<svg overflow="hidden" version="1" viewBox="0 0 2415.1 1117.1" xmlns="http://www.w3.org/2000/svg">
 <g id="countries" transform="translate(.033844 -.026603)" fill="#c5c5c5" stroke="#757575">
  <g>
   <path transform="matrix(3.36,0,0,1.54,-680.3,-171.8)" d="m299 452h-1l-2 4h-2l-1 2-3 1 3 3 1 5 2 1 3-1 2-2h4l2-1 2 2 1 2v2h-1v4h2l2-1 1-2h3l1-1v-3l-1-2 1 1 1 2 1-2-1-3-1-1h-3l2-2v-4l-1-3-1-2-2-1-1-1h-3l-2 1h-2l-2 1v-1l3-2v-1l-2-2h-2v1h-1v3l-1 1v1l-1 1m25-51v-1 1l-1 1-1 2-1-1-2 1v2l2 1v2l1 1v1l2 1h2l-1 1v1h2l1-2v-1h-1l-2-2 1-2-1-2v-3l-1-1m-6 27v-1 1l1 1h3l1-1 1 1 1-1v-1l-1-1-2-3v-1h-1l-1 1v1l1 1v2l-1 1h-2m6 6v-1h-1l-1 2h-1v2l-2 1v1h1l1-2 2-2v-1h1m-6 3h-3l-1 2v1l1-1h1v3l2-1v-4m9 6h-1v5h1l1-3 1-2h-2m5 27-6 6h2l3-1 2-2v-2l-1-1m-2 24 1-1-3-3 2 4m29 57-1-1h-1l-2 2h1l1 1h2l1-1v-1h-1"/>
   <path transform="matrix(3.36,0,0,1.54,-680.3,-171.8)" d="m314 518 3-1h3l7-4 2-3 1-1-1-1v-3l1-3v-2h-3l-3 2-1-1 12-8 4 1 3 1h2l2-2h-1v-3l1-2 2-1-2-1 1-3 2-1v-2l1-1 1-2h-1l-4 2h-1l-1-2v-1h-1v-2l-2-2v-2l1-1 2-4 1-1 2-1h1l1-1h-1l-3-1-2 1h-2l-2 1h-3l-1-1h-1v1l-1 2-4-4h-2v3l-1-1-1-5 1-1 1 2v-2l1-2 2-2 1-3 2-2v-2l-1-1v-4l2-2h1v-1l-1-1h-1l-1-1v3h-1l-1-1-1 1h-1v-2l2-3 1-1-3 2-1 1v5l-1 1-1 2-2 2-1 2-1 1h-1v-1l2-3 1-1 1-2 1-1v-2h-1v-2l1-2 1-1v-2l1-1v-1l2-2v-1l2-2v-1h-1l-4 2-2-2v-2l-2-1 1-1h3v-3l3-3v-2h1l1-2h-1l2-2h-4v-1l1-2h2l-1-1v-3l2-2h2l1-1h1l-1-2v-1h1l1-3h2v-1l1-2v-1l2-2h2l4 2h11l2 1-1 2v3l-3 1-2 3-4 1-3 2-1 1 3 1h1l-2 2h-3l-1 1h2v1l-1 1 1 1 2-1 7-2 2 2h5l2 1h5l1 1v5l-2 2-2 1v2l-1 1-1 2v2h-1v1l-3 3v1l-3 3-2-1v1l1 1 1 2 1 1-2 1-3-1-1 1-2 1v2l1 1h4l1-1 1 1 4 2 2 2 1 2 1 3 2 2v10l2 6v3l1 1 3 1 2 1 2 3 1 3 1 2v3l2 3 1 2v4l-3-1-1-1-1-2-1 1 6 6 1 2v4l-1 1-1 2-3 3h2l2 2 2-1 1-2h8l3 3 2 3v7l-2 5-2 2h-3v1l1 1-1 1-2 1-1-1h-2l-1 1 2 2-2 1v1h-3l1 2v2l3 1h6v1l-1 3-2 1-3 2-1 1h-1l-3 1h-7l-3-1h-2l-7 1-1-2h-2l-2-1-1-1v1l-2 2h-4l-3-1v2l-1 1-2-2-2 1-1 1-2-2-2-3h-3l-3 1h-2l-2 5-2 2h-1l-2-2-3-1-2-1h-3l-2-1-2 3-3 1-2 2-1-1h-1l-2-2h-1l-1 2-1-1 2-2 6-3 10-7 2-3 3-1 1-2h7l4 1h3l6-6 1-2v-1l-3 2h-2l-2 1-2 2h-2l-2-1-2-4v-1l-1-1h-1l-2 2-2-1-1-1v-3l-1-1-6 3-1-1h-1v-2l-1-1v-2zm47-134 1-1-1-1h-1l-1 1 1 1h1m6-2-1-1h-3v-2l-1-2-1 2v2h1l1 1h1l2 1 1-1m-52 18h1l-1-1h-4l1 1v1h2l1 1v-2m13-15h-1l-4 2-1 1v2h-2l-1-2-1 2v3l1 2-2 1v2l2-1 1-1h1l1-1h2l1-1v-3h2l1-1h-1v-1l1-1v-3"/>
  </g>
  <g>
   <path transform="matrix(.7 0 0 .68 -31.8 -230.1)" d="m3208 1601c-23 17-68 1.9-111 10-42 8.1-95 24-130 29-1.2 5-0.5 7.7-8.9 12-52 8.5-99-1.7-157 1.7l-3.7 8.5a68 68 0 0 0 21 9c9 2.5 21 1.8 25-0.5l2.3 0.9-0.5 5.2c-35 2-38 2.5-62 9 0 0.4 0.2 0.7 0.3 1l4.4 0.8 15 1.1c1.4 0 2.7-0.2 4-0.3-4.4 10-96 9-96 10-21 2-20 19-36 17-8.8-1.6-28 3.2-38 3.5-7.6 4.3-15 8.6-23 13l7.7 4.7-9-2.5c-5.2 3.2 5.6 3.1-6 4.5-1.2 7.7 33-9 43 2.7-9 2.4-13 5.5-18 9.4 11 8 19 8.1 13 17l14 0.2 5 2.8c-6.4 4-9 7-22 8.7l-0.9 4.2c8.3 1.5 7.6 1 10 6.6a62 62 0 0 0 21-0.3c-3.7 8.9-26 5.3-34 9.4-9.2-4-6.7-10-14-14-4-2.5-1-1.4-7-2.7l-2 0.1c-1.7 8.4 6 7.7 8.2 14-4.4 1.7-4.8 2.1-14 2.9l0.3 1 21 6.9 7-4.6c11 1.1 40 8.6 49 12l0.6 9.3-15 5.1 11 1.4 1.3 11 2.6 1.9c3.9-1 7.7-1.9 12-2.8 10 3.3 8.7 5.7 18 6.1l-5.4 9.6-15-3.2-5.2 3.4-1.1 3.2 0.3 1c17-2.5 49-1.2 78-2.9l0.3 1c-6.1 4.3-13 3.4-14 10h-17c6.5 2.5 14 1.1 23-0.4l2.6 2 0.3 1-7.2 3.5c0 0.4 0.2 0.7 0.3 1l2-0.1c6.8-3 8.2-3.6 7.5-9.8 17-2.8 26 3.6 42 3.5 10 4.3 6 2.2 19-0.2 12 2.8 13 7 15 17 41 17 67-2.9 102 2.8 4.5-7.8 9.8-18 3.3-24l2.3-6.3c60-11 143 20 173 33 60-7.8 123-21 133-47 22-1.9 46 3.7 67 9.2 5.9-1 12-2 18-3.2 4.5-6.9 15-14 32-19h2c10 5 12 5.4 15 15-9.1 6.5-14 4.2-13 13-5.4 1.6-3.3-0.7-7-2.8-2 4.4 1 2.5-7 4.6 6.5 5.1 16 11 18 20 14-0.6 14-3 25-6.8l-2.3-8c4.6-4 9.8-5 23-5.7-10-6.2-19-16-9.5-25 0.4-1 0.8-2 1-3.2 15 0.1 25 0.4 33 6.2 12-1.3 29-3 43-6v-205l-5.2 0.9c-22 4-40 0.6-48 0.2-5 1.7-22 4.2-27 5.9-19-0.2-36-7.5-52-11-18 2.5-19 9.4-34 8.5-13 1.6-27-11-34-19-14 3.4-30 11-49 6.4-12-2.6-18-9.7-20-16-3.6-0.5-13-2.5-16-3z" stroke-width="3.3"/>
   <path transform="matrix(3.36,0,0,1.54,-680.3,-171.8)" d="m752 687-2.2-1.1-1.9 0.6-2.6 0.9-3.5 1.6-5.1-1.6-3 2.6-5 2.7-1.3 1.8 3.9 2.7 0.1 3.3-1.9 3.2 0.3 8-1.4 3.3 3-0.8 2-0.3 3.4 0.1-1.5 1.5-3.2 1.1-2.3 1.4-0.3 1.4v3.1l1.7-0.6 1.5-2.4 2-1.6 2.9-1.8 2.8-1.8 3.9-4 1.9-3.6 4-1.7 2.4-0.5 4-4.4 3.7 0.2 1.6-2.2 12-2.4 0.7-2.9-9.1-1.8h-4.7l-4.1-0.9-3.2-1.6-1.2-1.7"/>
  </g>
  <path d="m983 793.8 3.3 1.5 3.4 1.5v1.6l-3.4 1.5 3.4 3-3.4 1.6h-10l-3.4 1.6 3.3 3 3.4 3.1-3.4 1.6-16.8-1.6h-10l-3.4-3-6.7-1.6v4.6l-10.1 7.7v3.1l-3.4 1.6-6.7-1.6-3.4-3-10-3.1-3.4-4.7v-3l-10 3-3.4 3.1v3l-3.4 1.6-6.7 1.6-3.4 1.5h-16.8l-6.7 1.6h-13.4v-1.6l-3.4-1.5-3.4-1.6-3.3-1.5v-7.7l-3.4-1.5h-13.4l-3.4 3-3.3 3.1-6.8 1.6-3.3-1.6v-4.6l3.3-3v-4.7l3.4-1.5 3.4-1.6 6.7-1.5 3.3-4.6 6.8-3.1 3.3-1.6 6.7-4.6 6.8-3-3.4-1.6 6.7-3 3.4 1.5h10l3.4-1.6 6.7-1.5 6.8 1.5h3.3l13.5-1.5h10l20.2-1.6h6.7l6.7 1.6 10.1 1.5 6.7 1.6v3l6.8 1.6 3.3 3-3.3 4.7 10 1.5v3l10.1 1.6z" stroke-width="2.3"/>
  <path transform="matrix(3.36,0,0,1.54,-680.3,-171.8)" d="m600 208 3 4v9l1 3 2 3 2 4h-1v2l-1-1-2-1-4 1v2h-1l-2-2-1 1v1l-1-1h-1v4h-1l1 1v1h-1l-1-1-2-1 3 3v1h-2l1 1v1l-1 1-1-1h-1v2l-1 2 2 2v3l-1 1v2l-1 1v1l-1 1 2 2-1 1 1 1 2 1v1l2 2h-1l-1 3v-3l-1 1-1 4v1l-1 3v1l-1 3-1 1-1 3h-1l-1 1h-1l-1 1-2 4-1-1-2 2-2 4h-3v3h-1v2l-1 1v1l-1 1h-1l2 1-1 1v1h-1l-1 2-1-1h-1v-2 2l1 1-1 4 1 1-2 2-3-1v3l3 3v1l-1 2v4l1 4v2l-3-1 1 1-1 1v2l1 1v6l1 6 1 1v4h1l1 3-1 2-2 3-2 1-1 2-4 2 2 1 2-1 1-1 3-2 2-4 1-4v-1h1l1 2 1-1h2l1 2v2l4 1 1 1h-2l1 1 1 2 3 1 1 2-1 1v4l-1 1-2 4-5 4h-2l-1-2v-1l-1 1-3-1v1l-1 1-2-2h-2l-2 1-1-1v2l-1 1h1l2-1 5 2 2 2 1-1 2 1 6-3 3-1v1l-1 1v1h-1l-1-1 1 3-3 3-2 3h-3l2-2-2-1-2 6-1 1h-1l-2 1 1 2h-4l-4 1 5 1 3 1-1 1-2 1-2-1v1l2 1 1 1v1l1 3 1 1-2 2 1 2h-2v2l1 1 1 2-1 2 1 1v3l-1 5v4l-1-1v7l-1 4-1 5-1 2-2 2h-7l-2 2-2 1-1 1-2 4 1 3-1 3-1 1h-4l-4 2-5-1h-3v-1h1v-3l1-1-2-4-2-6-1-4v-3h3l1-1v-2l-1-2-4-2-2-4v-3l-2-3h-1v-2l-1-3 1-2v-3l-2 1v-6l-3-1 1-2 1-1h-2l1-2-1-1v2l-1 1v-3h-1l-1-1v-2l-1-3v-6l1-2v-1l1 1v4-2l1 2 1-2 2-7-2-6 3-5v-2l4-3 1-2v-5l1-6-2-6-2-2v-2l3-1 2-2v-8l-4-2-2-3v-12l-2-6 1-1v-8l1-2v-1l-2-2v-7l1-3 2-3 4-4 4-2 3 1h2l1-3v-5l-1-2-2-2-1-2 3-6 2-6 1-9v-4l-1-6 1-1h2l2-3 1-2v-3l1-3 3-5v-2l2-2 1-2v-2l-1-2-2-3 1-2 1-3 1-2v-4l4-5 1-1 2 1 2 2 1-3 1-5-1-3v-2l2-1h5l5 1h2v-2l-1-1v-5l1-1v-1l-2-4h3l1-1 3 3 4 3 5 4h5l3 2 4 5 2 3v5l1 3 1 2v1l1 2v3l1 3zm-28 211v6l1 2v1h1v3h1v-2l3-3v-3h1v-1l-1-1 1-3v-3h1l1-1v-3h-1l-1 1-2-1-4 6zm-11 33 1-2 1-3v-4l1-4 1-3v-4l1-3v-2l-1 1v2l-1 2v5l-3 6v8zm-187 256 1 1 2-1-1-1 3 2 2 1h14l2 1 1 1 1 2-2 1v4l-2 3-5 3-6 2-3 3-5 1-6 2-6 1-3 4-1 2-2 2-4 3-5 7-6 6-2 3v1l-1 1 1 2v3l1 2 2 2 2 1 1 2-2 2-6 4-2 1-4 4-1 3-2 4v2h-9l-7 4-1 2-1 3-2 2-2 1h-2l-3-1-5 1-3-1-5-2h-4l-4-1h-10l-4 2h-4l-3 1-3 2-2 1-1 1h-1l-1 1h-1l-1-1-3-1-3-3-2-3v-5l-2-2v-5l-2-3-4-3-2-1h-2l-4-1v-5l1-3 2-2 5-2 2-2v-3l-2-3v-4l1-3 3-3 1-2v-2l-2-6v-4l3-1h3l3-2 1-3-1-3v-2l3-3 1-4 2-6 3-2 4-2 2-3 1-2-2-3v-3l-4-2-5-1-3 1-4-1-2-1h-4l-1-2v-3h-8l-3 2v-1l1-2 1-3 3-2h-3l2-2-2-2 2-3h-1l-2-1 1-2-1-2-2-2 2-3 4-2h3l4 1 3-1v-2l2-2h6l3 1 3 3 5 2 10 2 3-1 3 1 4 2 6 2 5 3 4 1h9l2 1 5 2h2l6 1 3 2 4 1 3-1v1l2 2 1 2 2 2 2 1 3 1 4 4 7 3 4 2 4 1h2l3-2h2l2 1 5 5zm-6 63v2l-2 1-1 1-2-1 1-2 3-1zm36-14 1-1h4v1l1 1v2h-2l-2-1zm-10-1v2l-1 1v1l3 1 1 2-2 4-3 2-4-3-1-2h-2l-2 1-1-2 3-3 4-2 3-1z"/>
  <g>
   <path transform="matrix(3.36,0,0,1.54,-680.3,-171.8)" d="m568 627h-5l-1 2h-2l-2-1-4 2-1 1v1l-2 1v1h-3l-4-1-4 1-2 1-1 1v3l1 1 1-1-1 2v2l1 1 1 2v1h2l1 2h1v2l-1 1h-1l-1-1-2 2 1 2 4-2h4l7 1h4l8-9 3-6 5-3h4l5-1-3-4-3-1-4-6h-4l-1 1v1zm13-28v1h2l2 1 4 3 2 1 2-1h3l1-1h3l1-2 1-3 4-1 6-4h4l3-2 3-1v-3l3-2 4-1 3-1h4l4 2 3-1v-8l1-5v-1h-2l-3-2-2-1-3-1h-3l-2 1-3 1-1 2-3-1h-4l-1 3-2 1h-2l-2-2-3-2-2-1-4 2-4-1-2 2h-1v1l-6 6v2l-2 3v1l-3 2-3-1-1 1-2 1-1 2v3l2 5zm91 82-4.4-3.5-3.1-3.1-1.5-5.2-0.3-5.3 3.9-2.7-2.6-0.2-2.7-3.5 2-3.2-2.3-2.4-2.4 2.8-7.3-1.2-4.3-2-1-3.8-1-2.2-2-0.9-2.8-0.1-2.8-3-1.8-4.1-1.9-2.5-2.9-2.5-3.7-1-1.2-0.6 0.7-0.2-0.8-0.2-1.3-1.2-2.8 1.5-2.8 0.6-3.4 3-3.4 0.7-1.4 1.6 1 8 5.4 5.3 3.4 2.3 3-0.4-0.6 2.8-3.2 2-0.1 10 5.5 7 1.3 4-1.7 4.1c5 1.8 8.6 6 13 7.8-3.2 1.6-1.3 4.6-1.6 7.8h0.1l3.3 2.8 2.8 0.8 4 3.6-1.5 1.7 6.2-1 4.7-6.6 9.3-1.6 4.3-1-1-5 2-7zm-150-2a2 2 0 0 0-1.9 1.9 2 2 0 0 0 1.9 1.9 2 2 0 0 0 1.9-1.9 2 2 0 0 0-1.9-1.9z"/>
   <path transform="matrix(3.36,0,0,1.54,-680.3,-171.8)" d="m655 590 3-1 5-1h5l3-2 4-1 3 2h2l3-3 4-2 4-1 6-6 3-1 8 4 2 2 2 4 4 4 5 4 3 4 5 10v4l2 3 2 6v1l2-1 2 2 2 1 2-1 2-2 8-4h1l1 2v1l2 6-1 3-3 1-2 3-1 3-1 2-1-2 1-2 1-3-1-1v-2h-2v3l1 3-1 3 1 3-1 2 2 4v2l1 3-4 2-6-2h-8l-2-1-4 1-6 4-5 3-4 5-3 2h-12l-10 3h-8l-4 1-3-2 1-3-3-1h-3l-3-4 2-3-2-2-2 3-3-1h-5l-4-3-2-6h-2l-3-1-2-2-2-5-5-5-4-1h-1 1v-1l2-1 5-2 3-2 1-5 2-3 1-4v-3l3-3v-3l1-3v-2l1-2 3-3h2l1-2 1-1zm-451 156v1l2 2 1 3v2h6v1l-1 1v1l-1 3-2 3v4l-1 2v2l-1 2-3 3-1 3 1 2h7l3 1 2 2 4 1 2-1 3-1h2v-5l1-3 3-2 4-2 2-2v-3l-2-3v-4l1-3 3-3 1-2v-2l-2-6v-4l3-1h3l3-2 1-3-1-3v-2l3-3 1-4 2-6 3-2 4-2 2-3 1-2-2-3v-3l-4-2-5-1-3 1-4-1-2-1h-4l-1-2v-3h-8l-3 2v12l-1 2-1 3-1 2-1 3-2 2-2 4-1 4-1 2-2 3-1 2-3 2-2 3-2 1-1 5zm365-268 2-1 2-2 4-2h6v1h4l2-2v1l-3 2v1h3l1 1 2 1h14l2 1h3l3-1 6-3 3-1 5-2 5-1 7 2 2 2 1 4 1 5 3 8 1 4-1 3-2 4-3 3-1 3 2 2 3 2 1 6v2l2 3 1 2 3 5 3 2v2l2 3v3l-4 4-3 4-3 5-2 9v3l1 3-2 1h-3l-3-2-2-1-3-1h-3l-2 1-3 1-1 2-3-1h-4l-1 3-2 1h-2l-2-2-3-2-2-1-4 2-4-1-3-1-3-3-2-3h-4l-2-1v-4h-7l-2-1h-1v3l-2 2-2-1-2-2-2-1v-4h-2l-3-2-2-1h-4l-1-2-3-1-1 2-2 2-1-1v-2l1-3v-6h-1l-2-2-1-2-1-3v-4l-1-3-1-2v-5l-1-2-2-1-1-1v-4l1-3v-6l-1-1-1-2v-2l2 1h1l1-1-1-2h-2l1-2 2-1 1 1 2-3 2-1 4-1 6-2 4-1 1-3 1-1 3-1z"/>
  </g>
  <g>
   <path transform="matrix(3.36,0,0,1.54,-680.3,-171.8)" d="m638 136-0.4-0.2-0.4-1.3-0.8-2-1 1-0.6-0.6-1.1 0.3 0.6 1.6 0.5 1.9h-0.7l-0.2-0.4h-0.9l-0.7-0.8 0.6 1.6-0.1 0.4-1-1h-0.4l-0.2 0.4-1 0.3-1 1.4v-1.8l0.7-1.2 0.8-0.5 0.2-0.8-0.5-0.9-0.7-0.6-2.6 1.1 0.3-0.9-1-0.6-1.7-0.4-1.8-0.9h-1.7l-0.7-0.5v-0.5l-0.1-0.6 3 0.1 0.9-0.3 1 0.1 2.7-0.2 1.9-0.4 1-1.8 0.9-1 1.3-2.4 1.3-1.2 0.7-1.2-0.8-1.6-1.7-0.3-1.5-1.4-1.9 0.6-1.2-0.3 1-1.1-2.3-0.5-1-1-0.5 1.5-0.7 0.6-0.2-0.8-0.4-0.6-2.1 1.7-0.3-0.2-0.2-1.2-0.4-1.2-0.6-0.2-0.5-0.8-1 0.8-0.9-0.2-0.8 0.6-0.6 2.4 0.2 1.6 0.5 2.5 0.8 1.9-1.3 1.2-0.4-0.1-0.9-0.5-0.6 0.2-0.7 0.6-0.4-0.5 1-1.6 0.5-2.2-0.8-1-1.5 1.8-1 0.4 1.2-2-1.3-1 0.4-1.4 2.2-0.3 0.4-2-0.4-2.2-1.4 0.3-0.1-1.2-1-0.4-0.8 0.2-1.2 1.6-1.6-1 0.3 2.1-0.1 1.1v1.4l-0.2 1.8-0.5 1.5v1.1l0.5 1.4-0.9 0.5-0.1 1.3 0.5 2-1.3 0.5-1.3 2.4-0.4-2.1v-2.5l-1.5-1.5 0.8-1.5-0.5-2.6-0.6-1.4-0.6-0.1-0.6 0.6-0.4 1.8-1.4 4.2-0.6 2.7-0.6 1-0.3 2.2-0.7 1.8-0.2 2.9 0.8-1-1.7 4.8-1 0.8-0.5-1.6v-1.5l0.3-1.3 0.6-0.6-0.3-0.8v-2.5l-0.4-1 0.2-1v-1.4l0.7-2 1.2-2.5 0.5-2.2-1.3-0.4-1.5 2-1 0.5-0.5-1.6-1-0.3-0.6-0.7-0.3-1-0.8 2-0.5-0.7-1 0.2 0.4 1.9 0.1 1.2-1.4-0.3h-0.3l1 1.7 1.2 0.9 0.3 0.5-1.4 1.4-0.7 1.7 0.8 1.6-3.1 0.7-1.2 2.2-0.3 1.5-1.2 2.4v0.8l0.5 1.1v1.6l0.2 1.9-1 0.3-0.8-0.5-0.2-1.2 0.6-0.7-1.8-0.2v-0.6l0.6-1-1.4-0.3-2.7 0.4 0.6 1.6-0.5 0.4-1-0.2-0.2-1-0.6-1.2-0.4 0.5-0.4-1.2-0.8 0.8-0.5-0.6-0.4 0.8 0.3 2.3-1-1-0.7-1.3-0.5-0.5 0.5 3.4 2.3 1 0.8-0.3 0.3 1.6 0.2 2.9 0.8 1.3 0.4 1.9-1.1-0.6-1.5-1.9-2.7-2.4-1.1-0.8 0.8 2.7h-0.6l-0.2 1.6h-0.7l-0.3 1-0.5-0.3-0.2-0.8 0.3-1.6-1 0.8-0.6 1.5-0.3 1.7-0.7 0.5 0.5 2.2 0.5 0.6-1.7 2.4-0.5 3-0.8 1.5 0.4-1.4 0.4-1.7 0.1-1.5-0.4-3.3-0.2-2.5-0.7-2.7-1.3 0.9-0.5 1.9-1 2.2 0.1 3.4-0.3 2.9-0.7-4.1-0.1-1.8-0.2-1.4-1 0.4-2.2 0.6-1 2.8 0.1 0.7 0.6 2.7 1.5 1.8 1.2 0.3 1.3 1.7v1.4l-1 0.1-1.1-2.2-1.5-0.6-1.6-2.1-1.1-1-1.6 0.6 1.2 2.2 2 1.6-1.1 1.5-1.2-1-0.5 1-0.5-1.7-1 1v-0.8l0.1-2-0.8-0.7-0.3 0.7-0.4 2.6v1l0.3 1.2 0.7 0.9-1.1 1-2 1.2-0.6 1-0.3 2.8 0.6 0.9 1.1-0.7 1 1.2-1.6 0.2 0.6 1.3 0.2 0.9-1.8-0.4-0.6 0.4 1.1 1.2-0.6 0.8-1.5-0.5-0.2 1.2-1.1-0.4-2 1.2-0.5 1.4-0.8 0.7-0.1 0.6 1.6 1 1.2-0.8 0.7-1 2.2 1.1 1.4-1.4 0.5 0.4 0.6 1.2-1.4 0.1-0.5 1.2v2.1l-2.4-1-1.3 0.2-0.4-0.8-1.7-0.3-0.5 0.6-1.3 1-0.4 1 1.5 2.4 0.1 1.2h-0.8l0.9 2 0.2 1.5-1-0.3 0.1 1.7-1 0.3-0.5-1.6-0.4-2.5-0.5-1.5-0.8 0.4-0.4 2-1.4 0.5 1.5 0.4-0.3 0.8-1 0.2-1 1-0.3 1.4 0.4 1.5 1.2 0.8-1 0.7 0.7 0.8-0.7 0.5-0.5 1.9-0.4 0.4h-0.8l0.2 0.5 1.4 0.4 1.2-0.4 1.4-0.8-1.7 2.4-0.9 0.8-1.5-0.4-1 0.1-0.7-0.6-0.3-1.1-1 0.2-1.5 1.6-0.5 2.6-1.2 1.4v1.4h0.8v2l-1.3 0.6-0.4 3h-1l-0.7 0.5-1 0.1-0.5 0.8-0.3 0.3-0.3 0.8 1 1.5-0.6 0.8-1.5 0.4 0.1 1.5-1.7 0.4 0.4 0.8-0.6 0.6-0.2 1.4 1.9 0.3-0.3 1-1.2 0.8-1-0.6v0.3l0.2 2.3 1 1.3 0.5-1.2 0.7 0.7-0.2 1.4-3 0.8-0.6 0.6v2.4l-1.3 1.2-1.3 0.5-0.7 2.3 1.4-0.3 1-1.5 1.6-0.8 0.1 1.5 1 2-3-1v1.5l0.5 0.6-0.9 1-0.2 1 0.4 1.5-0.5 0.3-1-0.5-0.6 1.1 0.6 1.6 1 0.8 0.3 1.6 0.2 1.5-1.1-1.3-1.2-0.4-1-1.8 0.3 2.6-0.6 1-1 0.4-0.3 1.7 0.8 0.3 0.8-0.4 0.5-1.5 0.3 0.6v2l0.3 1.2-1 1-0.7-0.5-1-0.3-0.7 1.4-0.5-0.5h-0.5l-1 1.8-0.3 1.5-1 0.9-1.2 0.7-0.7 3.4 1.5-0.5 1.5-1.2 0.5 0.7-1 0.2-1.5 1.1v1.8l0.5 1.8-0.5 1.3-1.7 0.6-2.2-1.9h-0.5l-1.3 2.6-1.7 1.4-0.1 1-1.7 2.4-0.7 1-0.6 1.1-1 2.1 0.5 1.8v0.7l-1.5 1.3-2 1v1.7l0.7 1 1.8-1-0.7 2.7 1.1 2 1.2 0.6 2.6-2.2 3.2-2.7 2.1-0.9 1.5-1 0.8-1.2 0.7 0.5-0.6 1.1-2 1.5-1.3 0.2-3 3 1 1.2-0.1 0.6-3 1.3h-1.5l-0.5 0.8 0.5 1-0.8 0.4-1.5-0.3 0.2-0.6-0.2-1-1.3-2.6-0.7-1-0.9 0.1-0.5 1-1.1 0.2-0.6 0.7-0.5 0.5v1.3l0.8 0.9 0.4 0.8-2 1-0.6-1.1v-1.4l-0.3-1.1-1.1 0.4-1 0.8-0.5-0.1-1.8 0.9-0.6 0.9-0.7 1.9h-1l0.2 1.1-0.3 0.8-0.6 0.2-0.8-0.1v-0.7l-0.3-1-0.7 0.2-0.3 1v0.8l-0.1 0.4h-0.5l-0.5-0.2-1.7 0.6-0.3 0.3-0.8 0.4-0.4 1.3-0.2 1.3-0.7 2-1.2-1-1.7-0.3-1.5 1.3-0.3 1.3 1.6 1.3-0.9 1.1 1.5 0.5 2-0.6 0.3 0.7 0.2 0.5 1 0.6-0.7 0.7-0.5 0.7 0.5 1.2-1.2-0.8-1.5 0.1-1.4-0.5h-1l-1.4-0.3h-1.1l-0.9 0.8-1.2-0.3-0.9 1 0.2 0.3 0.9 0.5v0.3l-1 0.2 0.1 1 1.3-0.1 0.5-0.5h0.3l-1.2 1.8 0.1 1.4 0.6 3-0.6 0.2-0.7-2.6-0.7-1.2-1.6 1-1 1.5-0.3 1.2-0.3 0.6 0.8 1 0.2 1.2-0.9-0.5-0.7-0.6-0.5-1.5-1.4 0.4-2.3-0.2-0.1 1.1 0.2 1-2.6-2.4-0.7 0.7 0.6 1.4 0.4 1.4-0.8 1 0.3 0.5 4.8 0.2 3.3-0.9h1l-2.8 1.3 0.5 0.7h2l1.5-0.6 0.4 0.5-1.7 1.1-2.6 0.3-2.6-0.2-1-0.8-1-0.1-2 1.6-0.1 1-1.3-0.2-0.5 0.3-0.3 1.3 1.4 0.9 1.2 0.3-0.2 1.3v1.3l-1 0.6-1.2 1.6 0.3 1.4-0.4 0.8-0.2 1.4 0.7 0.8v1.4l1 0.4 1.8 0.3 1.6-0.4 2.2-1.2 1.5-0.5 1.2 1 2 0.1 0.6-2.3 1.5-2.8 0.3 1.8-0.7 2.6 1 0.6h2l1.2-0.5 0.3 0.4 0.6 0.3 1.8-2.1 0.8-4.4 2.2-1.3 0.2 0.7-1.5 3-0.3 2.1-0.4 1 1.1-0.2 1.1-0.8 1 0.6-2.5 2.2-3.1 1-0.4 1.8 1.1 1.5-2.5 1.5 0.1-2.1-0.5-1.4-1.6-1.5-1.9-0.2-2.3 0.7-1.8-0.5-1.7 0.3-1.7-0.4-1.5 1.4-1.5-0.3-1.7-0.7-1 2.4-0.4 2 1.6 0.3 0.7-0.4v3l-1.4-0.8-1.1-1.1-0.2 0.4h-0.3v0.6l1.5 3.8 1.2 0.3 2.4-1.6 1.5-0.3-2.4 2.5-0.8 1.5 0.6 0.8-1.9 1.2-1 1 0.4 1.7 0.8 1 0.3 1.4 1.2-0.8 1.1-1.5v1.8l1 1.6 0.4 1.2-1.5 0.1-1.5 1.3v1l0.8 0.9 2-1.3 1.1-2.2 0.2-2.4 1.6-1.1 1.8-2.4 2-3.8 1.8-1.6 0.8 1v0.9l2.2-0.7 1.7 0.4-3 1.4-0.3 2-0.4 1.3-0.3-2.2-0.9-0.3-1.7 2.8-1.7 2 1 1 0.1 0.6-2 1.2-1.3 1.9-1.8 1.8-0.6 1.1 1.2 1.1 2.8-0.1 0.7 0.2 1.1-1 0.4 0.7-3.6 1.6-1 1-0.4 1-1.8-0.3-0.8 0.6-1-0.7-1.9 2.4-0.8 1.7v1.7l0.5 0.8 0.2 0.8 1.7-0.3 0.8-1.7 0.2 1.8h1.4l0.5-1.1-0.3-1.2 1.3 1 2.6-1.5 1-1.4 0.9 0.7-2.8 3.5h1v2l-1.2 2-0.5 1.2-1.2 1.2 0.2 1.4-0.2 0.4v0.6l-1-0.2-0.8 0.3-0.6-1.5-0.8-0.1-1.6 6.6 2.3 3.7 3.7 4 2.7 2 2.2 0.6 1.4-2.7v3.8l-0.6 2.6 1.2-1 1.9 1.3 0.7-2 2.8 0.3-1.3 1.8 3.1 1.4 2.3-1 2.2-2 1-3 1.3 2.4 3.8-2.8 3.7-5.6 2.3-1.3 0.6-2.3 1.2-1 0.5-1.4 3-3.7-0.6-1.6 2.4 1.4h2.7l1.3-0.7 0.6-2.4 0.1-1.6 0.9-0.7 0.5-0.7-0.1-2.2-1.2-1.4-0.8-1.7 0.5-0.5 0.3-0.9-0.3-1.5-0.3-0.9 0.8 0.6 0.9 1.6v1.7l1.1-0.5 0.3-1.3-1-1.7-0.3-3 0.3-0.7h0.6l0.2-0.2 0.8-0.4 1 0.6v1.3l-1.2 0.9-0.2 1 0.6 2.5 0.5 5.9 0.4 1 0.2 1.3 1.3-0.4 1.8 1.6 1.3-0.1 1.2 2.1v3.6h0.5l0.2-1.7 0.7 1.7 1.4-1.2 1.2-7.8-0.9-2.4-0.2-3.3 2-4.5v-2.7l4.7-2.4 1-2.2 0.2-3-0.9-1.7 1-6-1.8-6.4-1.9-2.3 0.6-1.3 2.6-1.4 1.6-2.2 1-3.6-0.9-3.9-3.6-2.7-1.7-2.8-0.4-12-0.9-2.8-0.5-0.5v-2.3l0.4-1.7-0.1-2.2v-1.3l0.6-3.6v-0.4l1-1.8h-0.4l-0.5-0.9-1.2-2.5-0.6-3.2 0.4-3.5 1-2.8 2.1-3 1.6-2.7 2.6-2 3.3-1.4 2.8 0.6h2.4l1.3-2.5 0.3-2-0.2-3.5-1.1-1.8-2.3-2.6-0.4-1.6 2.6-5.3 0.2-0.3 2-6.4 1-8.4-0.3-4.8-0.6-5.8 1-1 1.7-0.1 2.3-2.3 0.1-0.7 0.5-1.6 0.1-3.2 0.7-2.6 3-5.2 0.7-2.3 1.7-2.4 0.7-1.9 0.2-1.4-0.4-2-2.1-3.2 0.1-2.3 1.8-2.7 0.7-1.7 0.4-4.7 3.2-5 1.7-0.6 1.7 0.7 1.5 1.8 0.6 0.1 1-2.6 0.4-4.7-0.6-3.4 0.5-1.6 1.8-1 1.4 0.2 3-0.3 5.1 0.9 0.9 0.3 1-0.5 0.8-1.3-0.3-0.4-1.2-0.7-0.4-1.5 0.6-1.7 0.2-2.1 0.5-0.9v-1.3l-0.4-1.5-0.7-0.6-0.3-1.3 0.5-0.5 1.8-0.2 1.2-0.4v-0.5l0.3-0.6 1.1-0.7 1 0.5 1.2-0.8-0.6-1.5-0.4-1.8 1.4-1.2 1.9 0.5 1.9 1.3 3.4 3.4 1.5 1.8 1 2.6 1 0.9 1.5-0.2 2 0.1 2.2 0.7 1.5-0.7 1.7-1.5 0.7-1.6 1.2-1.8 1.3 0.6 1.6 1.7 0.5 0.9 1.5 0.1 3.1-3.3 0.7-2.3 2.8-3.5v-1.8l-1.5-5-0.2-2.1-0.5-3.7 0.6-4.6 1-2.2 1.4-1.4 3-1.1 1.4-1.1 2.7-2.8 2.8-1.4 0.8 0.3 0.8 0.8 1 1.6 1.8 0.7 2.4 0.2 2.8 1.7 2 3.3 0.7 2.2-0.3 0.4-1.4 3.7v1.8l0.5 1.5 1.5 0.7 0.3-0.3 0.8-1.6-0.1-1.5-0.2-0.5 0.1-0.8 2.5-3.7 1-1.7v-0.4l-0.1-0.9-0.3-1.9 0.1-0.4 0.3-0.4 0.6 0.3 1.2 0.7h0.8l1-0.6 0.6-0.9 0.3-0.8zm-190 252-1-1v4h1v-2zm-3-38v1h1v-2l1-1h-1v1h-1z"/>
   <path transform="matrix(3.36,0,0,1.54,-680.3,-171.8)" d="m483 295v-1l2-1h1v1h1v1l-4 1-1 2-2-2h1v-1h1zm47-94v-1l-1-1 2 1h1v-1l1-1v2l-3 3v1l-1-1 1-1zm55-68v2l-1 1v1h-3v-4h1v-1h1v-1h1l1 1zm-5-1v1h-1v1h-1l-1-1v1l-1-1v2l-1-2-1-1 1-1h1v-1h1v-1 2l1-1h1l-1-1h2l1 1v1h-1zm-2 5h2l1 1v1h-1v1-1h-1l-1-1zm-11 9h-1v-1 1l-1-1v-2l1-1 1 1v2zm-6-1 1 1v1h-2v-1l-1-1-1-2h1v1l1 1v-1zm-3 7-1 1h-1l-2-2v-1 1-2 1l-1-1v-2l1 1h2v2h1v-2l1 1h1v1l-1 1zm-12 9v-1h1l1 2h1v6l-1 1h-1v-1l-1 1-1 2h-2l-1 1v-1l1-1v-1l-1-1 1-1-1-1h1l-1-1 1-1 1 1 1-1-1-1 1-1h1l-1-2zm-12 9h1v-3h1l1 1v2l-1 2v1h-1v1h-2v-3h1zm-3 12-2 2-1-1 1-1 1-2-1 2h-2l-1 2-1-1v-1l1-1v-1 1-1h1l1-1v-2 2l2-1-1-1v-2l1 1 1 2v2l1 1v1z"/>
   <path transform="matrix(3.36,0,0,1.54,-680.3,-171.8)" d="m541 180v2l-1 1h-1l-1 2-1 1-1-1-1 1v2l-1 1v-1l-1-1 1-1-2 2-1 2-2 2v-2h-1l-1 2h-1l-1 1v-3l1-1h1l3-3 2-1h-1l2-3v-6l1-1h1v4-1l1 2v1l-1 2v-1h1l1-2 1-1-1-1 1-1h1l1 1zm-91 199v-4l-1-1-1 2v1l1 1zm6-55h1l1-1v-2h-2zm139-207h1v-2 1h1l2 2-1 1h-2v1l-1-1v1-2h1-2zm-9 10 1 1v1l1 1v1h-1v1l-2-2v-3 1zm-35 32v-3h1v-2l1 1h1v-3l2 2-1 3v1l-1 1-2 1h-1l-1-1zm-103 173v2l1-1v-1zm57-64-0.1 0.7 1.5-0.5 0.4-0.4z"/>
  </g>
  <g>
   <path transform="matrix(3.36,0,0,1.54,-680.3,-171.8)" d="m434 508 1-1h-1l-1 2-2 2v2l1-2 2-2zm-1 15 1 1h1l1 1h2v-2l-1-1v-1h1v-1h1v-4l1-1v-1h-2v-5l1-2h1v-1h2l1-1h5l2-1h3l1 1h1l2 2v1l-1 2v3l-1 2v2l-4 2 1 2 4 2-2 4-2 2-2 4-2 1-4-2-1 2 1 4v8l-2 2v4l1 1v2l-3-1-1-1-1-2 1-3v-2l-2-1h-2l-2-1v-2h-1l-1-1h-6l-3 2-3 1h-1l-3-2h-1l1-1h1l2 2 2-1h4l-1-1h-5l1-2h2l3-1 2-1h4l1-1-1-1-1 1h-3l-2-1-1-1v-3l3-3 2-3 1-3 1-4 2-4 2-1v2h1v1h1v1h-1l-1 1h-1z"/>
   <path transform="matrix(3.36,0,0,1.54,-680.3,-171.8)" d="m416 538v2h1v-1zm8-2-3-2h-1 2l1 1zm-3 1v-1h-2l-1-1h1l2 1z"/>
  </g>
  <path d="m1460 890.8c-14.4-2.6-26.2-9.3-43.6-12l-6 6.7-11.2 1.1-8 17 0.6 7.7 0.4 2.3 11 3.7 8.1 2 7 4.7 5.1 1.6 2.7-6.6-3.3-4.2 2-5.9 5.3-2.7 4.8-4 7.3 2.3 11.8-1.9c1-4.9-5.4-9.5 5.4-12z" stroke-width="2.3"/>
  <path transform="matrix(3.36,0,0,1.54,-680.3,-171.8)" d="m568 832 1-2 4 2 1 1v2h-2l-2-1zm-2-5h2v1h1l-1 1h-3l-1-2"/>
  <g>
   <path transform="matrix(3.36,0,0,1.54,-680.3,-171.8)" d="m649 724-3-5-1-4v-9l6-1 4-6 10-2 4-1v1l7 4 3 7 1 5h-1l-4 5-5 1-4 2-3 4-5 1-3 1h-1l-2-1zm-203-148v-3l-1-1-1-2v-3l-1-1h-2l-2 1-1 3v6l4 2h1l2-1zm194-103 2 2 5-1 2-2 9-3v-9l3-7v-7l-10-2-1-3-9-2-3-4h-2l-4 5-8-2-8 5-3-1-3 2-6 10h1l1 5 18 2 3 4 1 7 5-1z"/>
   <path transform="matrix(3.36,0,0,1.54,-680.3,-171.8)" d="m607 419-5 2-1 9 1 2-1 3-1 2v13l-1 3 2 2h2l1-1 6-10 3-2 3 1 8-5 8 2 4-5h2l3 4 9 2 1 3 10 2 1-9 11-13-1-3-6-7 2-8-3-3-3 2-2-1h-6l-3 2-8-1-2-3h-5l-5 2-4 6 2 7-2 7-6 3-5-5-5-2-1-4z"/>
  </g>
  <g>
   <path transform="matrix(3.36,0,0,1.54,-680.3,-171.8)" d="m619 747-1.1-1.9-1.9-2.1-3-2.3-2.1-2.7-1.5-1.8-2.8-0.5-7-1.8-2.4-2-3.4-1.4-6.6-1.8-3.4-1.1-2.1-1-1.7-0.5-1.1 0.1-1-1v-1.5l1.4-1.8 1.8-1.5v-2.3l-0.8-0.7-1.1-1.3h-1.4l-1.3 0.5-1 0.8-2.1 0.3-5.8 0.4-0.1 0.4 0.1 1.6-3.7-3-2.8-1.7-0.8-0.2-0.5 0.2-0.8-2-1 0.1-0.9-0.9-4.9-3.8-1.5-2-2.2-3.5-1-2.2-0.9-2.2-1-1-1-3.4-0.9-2.6-1-1.5-1.3-2.2-1-0.6h-1.7l-0.3-0.2-0.1-0.6-1.1-0.6-2.6-1.6-1.8-1.7-2-0.5-2.2-1-1.2-0.6-1.6-1.8-1.5-2.2-1-2.2v-7l0.2-1.6 1.4-1.3 0.2-1.6-0.9-1.6-1.8-0.5-0.7-3.7 0.3-1.8 1.2-0.7 1.4-1.5h0.9l0.4 0.4 1-0.3 2.6-1.4 3.6-2 1.6-1.2 2.3 0.4 2-1.3h1.9l0.2 1.5-0.4 1-0.1 0.8 1 0.6 1.3-0.3 0.7-0.8 0.3-1-0.7-1-0.9-0.4-0.7-1.2-0.8-0.3-1-0.4-0.7-0.5-0.1-2-0.6-0.1-0.7-1.2v-2l0.7-1.7h-0.4l-1 0.4-0.6-0.4v-1.1l0.5-2 1-1.1 1.3-1.2h-2l-1.1-0.6-2.1-0.4h-3l-4.4-0.5-2.3-1.5h-1.1l-2-1-1-0.8-1-1.6-0.4-1.9v-1l-0.6-0.5-1.5 0.1-1 1-2.3 0.5-4.6 0.4-4.4 2.2-3.8 1.3-1.1 0.1-2.1-0.5-1-0.4-0.5 1.3-0.2 1.4 0.3 1.7-1 0.7-2.6 0.2-0.4 1.5 0.3 1.8 0.7 1.4-0.4 1-4.9-0.9-2.8-0.1-1.5-1.3-1.7-0.8-0.6 2.6-2.4 4.7-0.6 2.4-0.6 1-1.7-1.1-1.5-2-2.7-1.8-1.2-3.3-0.2-1.4-2.7 1.4-1.5 1.8v2.2l-0.9 1.2-1.7 1.2-0.9 0.9-3.2-0.2-1.2 0.2h-0.7l-4 1.2h-3.6l-1 0.1-0.2 1.1 0.4 1.3 0.6 1.6 1.7 4.8 0.6 2.3-2.8 1.8-1.3 1.6-0.6 2.1 0.1 1.2 0.5 1 0.9 0.2 1 0.6 0.2 2-0.5 2.3v2.7l0.7 2.7 1.4 2.1 2.2 0.6h2.2l1.8 0.3 0.8 2v2.1l-0.6 1.7 0.2 0.9 2 0.2 2.5-0.2 2.7-1 1.3-0.9 0.4-1.7 2.4-3.4 1.2-0.6 0.5-1.5 2.1-1 2.3-1h2.2l2.4 0.6 2.5 1.3 7.7 4.6 4.4 1.7 0.7 1.2 0.6 3.1 1.4 3.8 2 4.8 1 2.8-0.2 1.8 0.8 0.9 4.6 4.2 2.7 3 1.1 3.8 2-0.8h1.8l2.5 1.7 2 2.8 1.8 2.3 2.5 0.3 1.5 1.9 3.6 4 3.5 3.3 4 2.6 3 2.3 1.4-0.7h7l1.6 0.3 2.1 1.9 2.1 2.2 1.3 2.7 4.5 1.4 0.5 0.6-0.2 2.1 5-1.2 1.5 0.3 1.2 1.5 1.2 2.8v1l-0.3 1 1.5 1.8 3.2 0.9 1.5 1.2 1.5 1.8 1-2.5 1.6-0.1 0.4 0.7 1 1 0.6 1 0.4 1.8 1.3 3.4 1.8 2.5 1.8 2.3 1.6 4.8 1 1.7 1 2.4 0.8 1.4-3.7 2-1.5 1.8 0.8 2.8-1.6 3-0.9 3 0.5 3.2 0.8 2h2.3l2-0.5 0.9-0.7 0.5-1.7 1.2-3 0.8-1.4 1.6-1.8 1.8-0.7 0.6-1.7-0.3-3.2-0.2-2.8 0.7-1.4 2-0.9 2.7-1.8 1.3-0.1 0.3-1.2-0.3-1.4-0.1-2.3-0.5-1.1-0.3-2.6-0.2-0.2-1.3-1.2-2.9-1.1-1.5-1.7-3-1-0.2-2.7 0.5-3 0.3-2.2 1.9-3.4 2.7-3.6 2.8-1 1.7 1.2 3.2 1.6 3.8 0.5 3 1.2 1.4 2.3 2.4 2.8 2.7 0.8 0.4 0.4v-0.6l0.5-2zm-97-64a2 2 0 0 1-1.9-1.9 2 2 0 0 1 1.9-1.9c1 0 1.9 0.8 1.9 1.9a2 2 0 0 1-1.9 1.9zm-54 59-1 2v3l1 1h2v1l1 2v9l1 1v1l-1 1v4l-1 2 1 2v4l2 3h1v1l2 1h2l2-2 1-2 2-2 2 1h1l2-1v-1l1-2v-25l-1-4-1-2v-1l-1-2-1-1h-1l-1-1h-2l-1 2-4 2-4 4h-2l-2-2h-1z"/>
   <path transform="matrix(3.36,0,0,1.54,-680.3,-171.8)" d="m536 792-2 1v1l-1 1v2l1 4 2 2 8 2 4 2 3 1 2 2 3 1h2l4 1 3 3 3 2 4 1h4v-3l1-2v-4l-1-1-1-2-1-1v-1l1-3 1-5 4-6v-3h-2l-2 1h-1l-1 2h-5l-3 2h-2l-6 1-3 1-1 1h-2l-2-2-6-2-2 1-2 2h-2l-1-1z"/>
  </g>
  <path d="m324.4 524.3v-9.3h-13.5l-6.7 1.6-6.7 1.5h-3.5l-6.7 3 3.4 1.6h-3.4l-6.7 3-6.7 1.6v1.6h6.7l3.4 1.5h10v1.6l-6.7 3-6.7 1.6-6.7 1.5v3l-13.5-1.4h-6.7l-3.3-1.6-3.4-1.5-16.8-3.1-6.7 1.5-3.4 3.1v4.6h-10l3.3 3.1 10 1.6h3.4v3l-13.4 1.6-3.4 1.5-6.7 1.6-3.3 1.5 3.3 3 3.4 1.6v1.6l3.3 1.5h6.8v1.5l6.7 1.6 16.8 1.5v1.6l-3.3 1.5h-10l-6.8 3-3.3 1.6v3l-6.8 3.2-3.3 1.5-6.7 1.6h-3.4 10l6.8 1.5h6.7l6.7-1.5 6.8-3.1h3.3l-3.3 3v1.6h6.7v1.5h-27l-10-1.5-3.3 1.5-10.1 3.1v3h-3.4l-3.3-1.4-6.8 1.5-3.3-1.5-6.7 1.5-3.4 1.5 10 1.6h10.2v1.5l-10.1 1.6-10.1 3v1.6h3.4l3.3 1.5-3.3 1.6h3.3l16.8-1.6v3h-6.6l-13.4 3.2h26.8l-3.3 3-6.7-1.5-3.4 1.6v1.5h13.4v1.5h37l3.4-1.5h3.3l3.4-3v-1.6h3.3v3h3.4l10-1.5 3.4-1.5h3.4l3.4 1.5 3.3-1.5 3.4-1.6 3.3-1.5h27l10 1.5 6.7 1.6h3.4l3.3-1.6v-4.6l3.4-1.5 3.4-3.1 3.3-4.6 3.4-1.6 3.3-3 3.4-1.6v-6l3.4-1.6v-6.1h3.3v-1.6l3.4-3-3.4-3.1-3.3-9.3 3.3-3h6.7-3.3v-6.3h3.3v-3.1l-3.3-3-6.7-3.2-6.8 1.6h-13.4l-6.7 3-10.1 1.6-6.7-1.5-3.4-7.7-10-4.7 10-1.5 3.4-3h6.7l3.4-3.2 3.3-3h3.4" stroke-width="2.3"/>
  <g>
   <path transform="matrix(3.36,0,0,1.54,-680.3,-171.8)" d="m299 221c-0.4 1.1-1 2-2.2 2-1-0.2-1-2.1-2.1-1.5 0.2 1.3 2 1.4 2.2 2.7h-0.7c-0.6 0-1 0.2-1.8 0 0.6-0.3 1.4-0.4 2.3-0.3-0.7-1-2.9-1.4-1.9-3.2 1 0.4 1.2 1.5 2.1 2 1.1 0.1 1.4-0.8 2-1.6-0.2-1-1.6-1.3-0.9-2.3 0 0.7 0.5 1.4 1.1 2.1z"/>
   <path transform="matrix(3.36,0,0,1.54,-680.3,-171.8)" d="m231 222c-1.8 0.3-3.2 2.1-4.6 3a6 6 0 0 1-1.6-3.7c0.2-0.7 1-0.5 1.2-1.4l-0.8-1.8c-3.2 0.6-6.7-1.2-9.5-1-0.7 0.7-1.1 1.5-2.2 1.5-1-0.7-2-1.7-1.7-3.4 1.3-0.6 2 0 3.2 0.6 3.8-2.7 9.5-2.2 15-1.2 0.4-1 2-2.8 0.6-3.7-1.1 2.6-4.4 1.4-6.3 0.1 1.8-2.5 5-3.3 7.8-4.7l-1.5 0.5-0.2-0.6c0.1 0-0.3-0.7-1.5-1.2-0.8 0.2-0.7 1.4-1.6 1.3 0-0.5-0.7-0.4-0.4-1 1-0.2 1.5-2 1.9-1.6-0.4-0.9-1.5 0.8-2.7 1l-0.6-0.1c-0.3-0.4-0.7-0.7-1.6-0.6-0.4 0-0.2 0.6-0.8 0.4-0.4-0.3-0.3-1-0.6-1.3-0.9-0.1-1.4 0.4-2 0.2l-0.5-0.2c-0.1 0.5-0.3 1-0.9 1.2-2.5-1.1-4.9 2.3-5.9 0.6l-0.3-1c-1-1.1-3.1-0.2-4.2-1 1.6-0.1 1.2-1.7 2.2-2.2 1.2 0.4 1.9 2.5 3 2.6 0.2 0 0.5 0 0.8-0.3-1-0.5-1.7-1.4-2-2.5 0.5 0.2 0.9 0.5 1.3 0.3-0.3 0.4 0.7 1 0.8 0.5l-0.6-0.6c-1-0.9-2.3-2.2-1.2-3.1 1.6 1 3.2 1.8 4 3.5v0.2l0.1 0.2c0.2-0.5 2.1-0.3 1.4-1l-0.3 0.3-0.1-0.2v-0.2c-0.3-0.1-1-0.8-0.5-0.8 1-0.3 2.6 0.4 2.6-1-2.4 1.2-6.8-0.9-4.7-3.3 1.8 0.4 3 2.4 4.8 2-1.9-1-5.8-2.6-4-4.9 1 0.6 2.1 1.2 2.8 2.1 0.3-1.7-1.6-1.6-1.7-2.9 0.3-0.5 0.7-1 1.2-1.4 1.3 0.4 2.6 0.8 3.2 1.7 0.3 0.5 0.5 1.1 0.5 1.9 0.7 0.1 1 0.7 1.7 1 0.1-0.6 0.3-1 0.8-1.3 0.6 0.8 0.5 2 1.3 2.6 0-0.1 0-0.4 0.2-0.4l0.3 0.3c0.1 0.4 0 1 0.6 1.3 1.2-4.6-3.2-4.7-4-7.7 1.4-0.8 3.2 1.3 4.1 0.2l0.2-0.5c-1.7-1.3-5.6-0.5-5.8-2.1 0-0.3 1.8-0.6 1-1.7 2.7-0.7 7 0.9 6.6 4.2l2.2 0.2c1 1.4 2 3.6 2 5.2 0.3-0.2 0.1-1 0.8-0.7 0.8 0 0.8 0.8 1.1 1.4-0.8 0.2-1.8 0-1.9 1.1 1.1 0.2 0.4-0.6 0.8-0.7 0.2 0.6 1.6 0.2 1.7 1-0.2 2-0.4 4-2 4.6h-0.5c-0.9-0.4-0.2-2-1.6-2-0.6 1 0.6 2.1 0.7 3.1 4.4 0 2 5.7 3.4 8.2h0.2l0.1 1.8c0.4-2 0.1-3.6 0.3-5.6l0.2-0.2c0.4 0 0.7 0.2 0.8 0.4 0.2-2.7 1.3-4.2 3.3-4.7 0.1 1.2-0.4 1.7-0.5 2.7 0.4 0.7 0.9 1.3 2 1.5 2.8-3.6 1.2-7.4 1.4-12 1 0 1.2-0.7 2.3-0.5 0.2 1.6 0.8 2.8 1.5 4 0.8 1.3 1.5 2.6 1.7 4.4 0.8-0.1 0.7 0.5 1.5 0.4 2.2-1.8-0.7-5.4 1.5-7.2 1.2 0 1.7-0.2 2.5 0.5-0.3-0.9 0-1.1 0.2-2 3-1.1 4.5 1.5 3.8 4.7 0.6 0.1 0.9 0.5 1.7 0.4 1 1.8 0.1 5.1 1.6 6.5 0.7-1.8 0.3-4.3 0.1-6-0.4 0.1-0.8-0.3-1-0.8-0.4-1.3-0.2-3.5 0.5-4.2 2.5 0.7 4.2 2 4.6 4.5l2 0.2c0.8-2 1-4.6 3.7-4.2-0.2 0.8 0.5 1 0.4 1.8 1.3-0.2 2.2 1.2 2.9 0.8-0.4-0.4-0.6-1-0.6-1.6 0.5-0.3 1.2-0.4 1.8-0.6 1.5-1.9-0.8-4.4-0.1-6.3 2.7 0.3 5.7-1 5.3 2.6 2.7 0.2 0.2 2.3 0.9 3.6 1.2 0.5 2 1.4 2.8 2.3 0.2-0.8 0.4-1.6 0.9-2 0.3-0.3 0.8-0.4 1.6-0.2a3 3 0 0 1 1-1.7c0.6-0.6 1.5-0.9 2.2 0-1.3 0.8-3.3 0.9-2.3 3-0.3 1-1.6 0.6-2 1.6-0.2 1.1 2.2 2.2 4 1.7 1.6 3.3-2.1 3.7-2.2 6.6 1.7 0 2.5-1 4.4-0.8l0.1 0.7c0.3 2.4-2.5 3-2.2 4.9 0.7-1 1.3-2.1 2.3-2.8 3.6 1 7 2.9 3.8 6.9 0.4 0.4 1.1 0.6 1.1 1.4v0.2c-0.7 1-3.2-0.3-3.9 0.6 0.6 0.4 2.2 0 3.5 0.4-0.7 1 0.6 1.4 0.8 2.3-0.5 0.7-0.8 1.7-2 1.6-0.8-0.5-1-1.6-2-2-1 1.8 1.3 2 1.9 3.2a4 4 0 0 0-2.3 0.3c0.8 0.2 1.3 0 1.8 0v0.5c-0.3-0.4-0.6 1.4-2 1.5a3 3 0 0 1-0.3 0h-0.3c-0.1 0.5 0.4 0.5 0.1 1.2-0.6 0.2-1.3 0.3-2 0.3-1-0.3-0.6-2.8-2-2 0.6-0.2 1.2 1.3 0.4 0.3 0.8 1.6 0.5 3-0.8 3.7h-0.3 0.1a3 3 0 0 1-0.4 0.2c0.2 0.5 1.1 0.5 0.9 1.3-0.5 0.6-0.6 1.5-1.2 2-1.5-0.9-2.7 0.8-3 2.3l-3.8-2.4c0.5 0.2 0 1.2 0 1.8-5.6 0.5-7.6 5.6-13 7-0.4-0.6-0.6-1.5-1.2-1.9-0.3 0.7-0.3 1.7-0.8 2.2-3-0.7-4.2 1.6-6.9 0.6-0.8 0.7-1.7 2-0.2 2.7a10.7 10.7 0 0 1-7.3 2.8c-4.4 0-7-4.4-11-3.7-0.8-1.2-2.3-1.8-2.7-3.3-0.3-1.3 0.8-1 1.2-1.6-1-0.4-1 0.5-1.6 0.6-0.1-0.9-0.4-1.5-0.8-2.1 0 0.8-1 0.7-1.4 1-0.3-1.2-2.8-0.9-2.5-2.7 0.6 0 1 0 1.3-0.4-0.6-0.1-1-0.5-1.7-0.4-1 2-2.7 2-4.7 1.8l-4.3-0.8a6 6 0 0 0-3.3 0.5c0.1-1.6-0.3-3.6 0.7-4.7 0.8 0.6 0.5 2.2 2 2.2 1-1.4 2.3-0.7 4-1.4 0.2-0.7 0.3-1 0.1-1.7 0.7 0 1.6 0.3 2 0 0-1-0.6-1.4-1.1-2 0.6-1.9 2.2-1.6 3.8-1.9h0.1l0.6-0.1c-0.8-0.4-1.7-0.6-2.7-0.8-1 0.6-2 2.5-3.7 1.4 1-2 1.7-4.3 3.8-5 0.5 0.2 1.2 1.4 1.7 0.8-0.4-0.6-0.8-0.8-1.2-1 0.3 0 0.2-0.4 0-0.6h0.1zm0 0c0.3 0.2 1.1 0.6 1.2 0a3 3 0 0 0-1.2 0zm-6.2-24c0.9 0.2 1.2-1.6 0.4-1.7 0 0.8-0.5 0.8-0.4 1.7z"/>
   <path transform="matrix(3.36,0,0,1.54,-680.3,-171.8)" d="m298 217-0.4 0.5 0.1-0.3c0-0.7-0.7-0.9-1-1.4 3.1-4-0.3-5.9-3.9-6.9-1 0.7-1.6 1.8-2.3 2.8-0.3-1.9 2.5-2.5 2.2-4.9 0.1 0.7 0.4 1.3-0.1 1.6 2.8 1.2 7.9 3.1 4.3 7.2 0 0.7 1 0.7 1.1 1.4zm0 1a2 2 0 0 0-0.3 1c-1.3-0.4-2.8 0-3.5-0.4 0.7-0.9 3.1 0.4 3.8-0.6zm0 1m-2 6v0.1c-0.3 0.9-0.8 1.5-2 1.4 1.4-0.1 1.8-1.8 2-1.5z"/>
   <path transform="matrix(3.36,0,0,1.54,-680.3,-171.8)" d="m294 226c0 0.6 0.3 0.8 0.1 1.5-1.2 0.3-2.5 0.5-3.2-0.6 0.4 1.4-0.1 2.6-1.5 2.6 1.3-0.6 1.7-2 0.8-3.7 0.9 1 0.3-0.5-0.4-0.3 1.4-0.8 1 1.7 2 2 0.9 0 1.5 0 2-0.3 0.4-0.6-0.2-0.6 0-1.3h0.2zm0 0h-0.4zm-1-19c0-0.2 0-0.4-0.2-0.6-1.9-0.3-2.7 0.7-4.4 0.8 0.2-3 3.8-3.3 2.2-6.6-1.8 0.5-4.2-0.6-3.9-1.7 0.5 1.4 2.2 1.7 4 1.4 2 3-1.6 4-2 6.6 1.5-0.3 2.4-1.1 4.4-0.8-0.1 0.3-0.1 0.5 0 0.8zm-4 24c0.2-0.8-0.7-0.8-0.9-1.3l0.4-0.1c1.3 0.8 0.3 2.7-0.5 3.7-1.6-1-2.7 0.6-3 2.2h-0.2c0.3-1.7 1.5-3.4 3-2.5 0.6-0.4 0.8-1.3 1.2-1.9zm0-1h-0.3zm2-36c-0.3 1.1-1.9 0.5-2.4 1.3-0.6 0.5 0.5 1 0 2-0.6 0.6-1.4 0.9-2 1.3 0.2-1 1.5-0.6 1.8-1.6-1-2.2 1-2.2 2.3-3-0.7-0.9-1.5-0.6-2.2 0l0.8-0.9c1 0 1.5 0.3 1.7 1z"/>
   <path transform="matrix(3.36,0,0,1.54,-680.3,-171.8)" d="m289 194c-0.5 0.5-0.9 1.1-1 1.7-0.8-0.2-1.3 0-1.6 0.2zm-4 41a10 10 0 0 1-3.3-2.1l-0.1 1.5c-5.6 0.8-8 5.4-13 7.3l-0.3-0.2c5-1.6 7-6.6 13-7 0-0.6 0.5-1.7 0-1.9a25 25 0 0 1 3.7 2.4zm1-39c-0.5 0.5-0.6 1.3-0.9 2a7.8 7.8 0 0 0-2.8-2.3c-0.6-1.3 1.8-3.4-0.9-3.6 0.4-3.5-2.5-2.2-5.3-2.6 2.4-0.2 5.7-1 5.6 2 0.2 0.5 0.8 0.5 1.2 0.7 0.3 1.5-0.3 1.6-0.6 3 0.7 0.9 2 1.3 2.5 2.3 0.3-0.6 0.7-1.1 1.1-1.5z"/>
   <path transform="matrix(3.36,0,0,1.54,-680.3,-171.8)" d="m277 190c-0.7 1.9 1.6 4.4 0.1 6.3-0.6 0.2-1.3 0.3-1.8 0.6 0 0.6 0.2 1.2 0.6 1.6-0.7 0.4-1.7-1-2.9-0.8 0.1-0.8-0.6-1-0.3-1.8 0.1 1.3 1.2 1.9 2.5 2.3 0.7-0.2-0.4-0.8-0.1-1.3 0.6-0.2 0.9-0.8 1.8-0.6 1.5-2-0.8-4.4-0.1-6.3zm-8 52c-0.4-0.3-0.9-0.7-0.9-1.4-0.8 0-0.5 1.2-0.7 2-3.2-1-4.6 1.4-7 0.5-0.6 0.1-0.8 0.8-1.2 1 0 0.9 1 0.8 0.9 1.7a13 13 0 0 1-7.3 2.8c-4.5 0-7.2-4.4-12-3.7-0.9-1.5-3.1-2-2.8-4.3-0.5 0.8-1 0-1.5-0.4 0-0.4 0.6-0.2 1-0.2 0-0.5-0.5-0.7-0.4-1.3-0.4 0.3-1.1 0.4-1.3 0.9l-0.2-0.3c0.4-0.4 1.3-0.2 1.4-1 0.4 0.5 0.7 1.2 0.8 2 0.6 0 0.6-0.9 1.6-0.6-0.3 0.7-1.4 0.4-1.2 1.6 0.3 1.5 1.9 2.1 2.7 3.3 4.4-0.7 7 3.7 11 3.7 2.6 0 5.5-1 7.3-2.8-1.4-0.7-0.6-2 0.2-2.7 2.6 1 4-1.2 7-0.5 0.4-0.5 0.4-1.5 0.7-2.2 0.7 0.4 0.8 1.3 1.3 1.9zm3-46c-2.8-0.5-3 2.2-3.7 4.2l-2-0.2c-0.4-2.4-2.1-3.8-4.6-4.5-0.8 0.7-1 3-0.6 4.2-0.5-1.4-0.7-2.9 0.3-4.5 2.5 0.8 4.6 2 4.8 4.5l1.5 0.2c1.3-1.5 1.1-4.8 4.2-4.1v0.2z"/>
   <path transform="matrix(3.36,0,0,1.54,-680.3,-171.8)" d="m262 200c0.2 1.7 0.6 4.3-0.1 6-1.5-1.4-0.6-4.7-1.6-6.5-0.8 0-1.1-0.3-1.7-0.4 0.6-3.1-1-5.8-3.8-4.7-0.2 0.9-0.5 1.2-0.2 2-0.8-0.7-1.3-0.5-2.5-0.5-2.2 1.8 0.6 5.3-1.5 7.2-0.8 0-0.7-0.5-1.5-0.4-0.2-1.8-1-3.1-1.7-4.4 0.3 0.4 0.6 0.8 1.3 1 0.6 1.2 0 3.3 1.7 3.5 2-1.7-0.8-5.3 1.5-7.2 1 0.3 1.5-0.4 2 0.2 0.5-0.3 0.5-1.3 1-1.7 2.7-1.1 4.4 1.5 4 4.4 0 0.6 0.8 0.5 1.4 0.6 1.1 1.5 0.5 4.5 1.4 6.2 1.1-2.4 0-4.3-0.7-6.3 0.2 0.6 0.6 1 1 0.8z"/>
   <path transform="matrix(3.36,0,0,1.54,-680.3,-171.8)" d="m248 198c-0.7-1.2-1.3-2.4-1.5-4-1.1-0.2-1.4 0.6-2.3 0.5-0.2 4.8 1.4 8.6-1.5 12-1-0.1-1.5-0.8-1.9-1.5 0-1 0.6-1.5 0.5-2.7-1.9 0.5-3 2-3.3 4.7-0.2-0.2-0.5-0.3-0.8-0.3 0.1-0.2 0.4-0.3 0.6-0.2 0.3-2.6 1.6-3.9 3.5-4.4 0.6 0.9-0.2 2-0.3 3 0.2 0.6 0.8 0.7 1.1 1.1 3.4-3 1.4-7.3 1.7-12 1-0.2 1.4-0.8 2.6-0.7 0.8 1 0.8 3 1.5 4.2zm-12 41c-0.7-0.7-1.7-1-2.6-1.5 0.2-0.5-0.1-0.7-0.2-1-0.1-0.8 0.6-0.4 1-0.4-1.8-0.8-2.4 2.1-4.5 1.8-0.3-0.4-0.8-0.5-1.4-0.6 2 0.3 3.8 0.1 4.7-1.8 0.9 0 1.1 0.3 1.7 0.4-0.2 0.4-0.6 0.5-1.3 0.4-0.2 1.8 2.2 1.4 2.5 2.8zm1-32c-0.2 2 0 3.5-0.3 5.6l-0.2-1.8c0-1.4 0-3.1 0.5-3.8zm0 0h0.1l-0.1 0.2zm-1-10c-0.1 2.3-0.7 4-1.8 5.1l-1.5-0.1c-0.1-0.8-0.3-1.6-0.8-1.9-0.7 0.7 0.6 1.6 0.5 2.6 4.5 0.1 2.4 5.5 3.4 8.4-1.5-2.4 1-8-3.4-8.2-0.2-1-1.3-2.2-0.7-3 1.3 0 0.7 1.5 1.6 1.8l0.5 0.1c1.5-0.4 1.7-2.6 2-4.6 0-0.7-1.4-0.3-1.7-1-0.5 0.1 0.2 1-0.8 0.7 0-1 1-0.9 1.9-1 0 0-0.3 0.2-0.6 0.1 0.3 0.5 1.1 0.5 1.4 1zm-2-3c1.2-0.3 2.4 1.2 1.9 1.7-0.3-0.6-0.3-1.3-1.2-1.4-0.6-0.3-0.5 0.4-0.8 0.6 0.1-1.6-1-3.8-2-5.2l-2.2-0.2c0.4-3.3-3.9-4.9-6.6-4.2 0.9 1.1-1 1.4-1 1.7 0.3 1.6 4.2 0.8 5.9 2.1 0 0.2-0.2 0.4-0.3 0.5-2-2-4.5-0.6-6-2.6 1-0.4 1.6-0.6 1.2-2 3-0.6 7.2 1 7 4.4l2 0.2c0.8 1.5 2.2 2.4 2.2 4.5zm-1 34-0.6 0.1c-0.5-0.4-1.3-0.5-2-0.6-1 0.8-2.2 2.4-4 1.4 0.8-2.4 2-4.4 3.8-5.4-1.5 0.4-2.5 1.7-3.5 2.7-1.4-0.7-1.6-2.3-2-3.7 0-1 0.8-0.8 1.1-1.4 0-0.7-0.5-1.1-0.6-1.8-3.6 1.2-8.9-3.1-10 0.4-0.8-0.3-1 0.3-1.8 0-0.6-1-1.6-1.8-1.4-3.6 1-0.7 2.4-0.7 3.2 0.3 4-2.6 9.5-2.3 15-1.2 0.6-0.9 1.5-1.9 1.1-3.2-1.5 2.5-4.5 1.4-6.8 0 1.5-2.3 4-3.4 6.6-4.4l1.5-0.5c-2.7 1.4-6 2.2-7.8 4.7 2 1.3 5.2 2.5 6.3-0.1 1.5 0.9-0.2 2.7-0.6 3.7-5.8-1-11-1.5-15 1.2-1-0.7-1.9-1.3-3.2-0.6-0.2 1.8 0.7 2.7 1.7 3.4 1.1 0 1.6-0.9 2.2-1.5 2.8-0.2 6.2 1.6 9.5 1l0.8 1.8c0 0.8-0.9 0.7-1.2 1.4 0.2 1.5 0.7 2.8 1.6 3.7 1.4-1 2.8-2.7 4.6-3 0.2 0.2 0.3 0.6 0 0.7 0.3 0 0.7 0.3 1.1 0.8-0.5 0.6-1.2-0.5-1.7-0.6-2 0.6-2.8 2.9-3.8 4.9 1.7 1 2.7-0.8 3.7-1.4 1 0.2 2 0.3 2.7 0.7zm-1 0h-0.1z"/>
   <path transform="matrix(3.36,0,0,1.54,-680.3,-171.8)" d="m228 230c0.7-1.9 1.8-3.1 4.1-2.4-1.6 0.3-3.2 0-3.8 1.9 0.5 0.5 1 1 1.1 1.9-0.4 0.3-1.3 0-2 0 0.2 0.8 0.1 1.1-0.2 1.7-1.6 0.8-3 0-3.9 1.4-1.6 0-1.2-1.6-2-2.2-1 1.1-0.6 3.1-0.7 4.7 1-0.5 2-0.5 3.3-0.4-1.3 0-2 0.7-3.3 0.7-0.5-1.6-0.2-3.5 0.3-5.3 1.5 0 1 1.8 2 2.2 0.9-1.2 3.3-0.6 4.4-1.6 0.2-0.8-0.4-0.8-0.1-1.5l2 0.2c-0.2-0.7-0.2-1.4-1.1-1.4zm3-8h1.2c-0.1 0.6-1 0.2-1.2 0z"/>
   <path transform="matrix(3.36,0,0,1.54,-680.3,-171.8)" d="m228 237c-1.4-0.2-3.3 0.3-4.3-0.7 1.4 0.1 2.9 0.5 4.3 0.7zm0-32h-0.3l-1-0.2c1.2-0.2 2.3-1.8 2.7-1-0.4-0.4-0.8 1.5-1.9 1.7-0.3 0.6 0.4 0.5 0.4 1 1 0 0.9-1.2 1.6-1.3 1.2 0.5 1.6 1 1.5 1.2-0.1 0-0.5-0.2-1.2-1-0.9 0-0.8 1.3-1.6 1.4-0.7 0-1.4-1.7-0.4-1.8h0.3zm-5-15c0.8 3 5.2 3.1 4 7.7-0.5-0.2-0.4-0.8-0.6-1.3l0.5 0.3c0.7-4-3.8-3.6-4.1-6.7 1.2-1.2 3 0.7 4.3 0.2-0.8 1.1-2.7-1-4.1-0.2zm3 15h-0.5z"/>
   <path transform="matrix(3.36,0,0,1.54,-680.3,-171.8)" d="m226 196 0.2 0.3-0.3-0.3z"/>
   <path transform="matrix(3.36,0,0,1.54,-680.3,-171.8)" d="m226 196-0.2 0.5c-0.8-0.6-0.7-1.8-1.2-2.6 0.6 0.5 0.9 1.5 1.4 2.2zm0 9a6 6 0 0 0-2.7 0c0-0.4-0.5-0.6-0.4-1.2-0.8-0.4-1.5 0.9-2 0 0.7 0.1 1.1-0.4 2-0.3 0.3 0.4 0.2 1.1 0.7 1.3s0.4-0.4 0.8-0.4c0.8 0 1.2 0.2 1.6 0.6zm-1-8c0.8 0.2 0.4 1.9-0.4 1.7-0.1-0.9 0.4-1 0.4-1.7zm0-3m-1-1c0.2 0 0.3 0.2 0.5 0.3-0.5 0.1-0.8 0.6-1 1.2-0.5-0.3-0.8-0.8-1.6-1 0-0.7-0.1-1.3-0.5-1.8 0.6 0.7 1 1.5 1.7 2.2 0.6 0.2 0.7-0.4 0.8-0.9z"/>
   <path transform="matrix(3.36,0,0,1.54,-680.3,-171.8)" d="m222 192c-0.7-0.9-2-1.4-3.3-1.7l-1.2 1.4c0.2 1.3 2 1.3 1.7 3-0.7-0.9-1.8-1.5-2.8-2.2-1.7 2.4 2.1 4 4 5-1.8 0.4-3-1.7-4.8-2-2 2.3 2.3 4.4 4.7 3.2 0 1.4-1.7 0.8-2.6 1-0.6 0 0.3 0.7 0.5 0.8v0.3l-1-0.9c0.1-0.5 0.7-0.4 1.3-0.3-2.3-0.4-4.8-2.2-3-4.3 0.8-0.1 0.8 0.6 1.6 0.6-0.7-0.8-2.2-2-1-3.6 1.2 0.3 1.8 1.1 2.8 1.6-0.3-0.8-1.2-1.3-1.8-2 0.5-0.6 1.1-1 1.5-1.9 1.8 0.2 2.7 1 3.5 2zm-1 12c-0.5 0.2-0.8 0.6-0.9 1.2-3-0.9-3.8 1.1-6.2 1.1a1 1 0 0 0-0.3-0.7h0.1c1 1.7 3.4-1.7 5.9-0.7 0.5-0.1 0.7-0.6 0.9-1.2zm-2-3c0.7 0.7-1.2 0.6-1.4 1.1l-0.1-0.3 1.2-0.5zm-2 0h-0.1v-0.1z"/>
   <path transform="matrix(3.36,0,0,1.54,-680.3,-171.8)" d="m217 200c0 0.5 0.3 0.7 0.1 1.3-0.7-1.6-2.3-2.5-4-3.5-1 1 0.2 2.3 1.3 3.1l-0.2 0.1c-0.5 0.2-0.8-0.1-1.3-0.2 0.3 1 1 1.9 2 2.5l-0.8 0.2c0.4-0.8-1.6-1.6-1.5-3l0.7 0.1c-0.5-0.7-0.9-1.7-1-2.9 2-0.6 2.8 1.9 4.7 2.2z"/>
   <path transform="matrix(3.36,0,0,1.54,-680.3,-171.8)" d="m215 202c-0.2 0.5-1.2-0.1-0.9-0.5h0.2zm-1 1c-1.1 0-1.8-2.1-3-2.5-1 0.4-0.6 2-2.2 2.3 1-0.8 1.4-1.4 1.8-2.6 1.9 0.3 2.2 2 3.5 2.9zm0-2-0.2 0.1zm-1 4c-0.9-1.4-3-1.5-4.9-1.8l0.3-0.2c1.1 0.7 3.2-0.2 4.2 1z"/>
  </g>
  <path d="m1325.7 756.8-3.4 1.5h-10l-6.8 1.6-6.7-1.6-13.5-4.6-6.7-1.5h-6.7v3l3.4 3.1-3.4 3.1-13.4 1.6h-6.8l-3.3 3 6.7 3.1-3.4 6.2v7.7l-6.7 1.5-6.7 3-3.4 1.6h13.5l6.7 4.7 6.7 4.6 10 1.5 10.2 6.2 10 1.5 13.5 4.6 6.7 1.6 13.5 3 13.4-1.5 13.4-3 6.8-3.1 13.4-1.6 3.4-1.5 10-1.6 13.5-4.6h10l6.8-3 6.7 1.5 3.4 1.5v-1.5l6.7-1.6 16.8-3 10-3.1 3.4-7.7 6.7-4.6 3.4-6.2v-4.6l10-4.6v-4.7l3.4-4.6v-3l3.4-3.1 10-4.7h6.8l3.4-3 3.3-1.6-3.3-4.6-10.1-1.5-10.1-3.1-10-1.6-10.2 1.6-13.4-3.1h-13.4l-10.1 1.5-13.5 1.6-10 3v4.7l-10.1 1.5-10.1 3h-13.5l-10.1 3.2-10.1 3-13.4 1.6-3.4 4.6-3.4 3h-3.3z" stroke-width="2.3"/>
  <g>
   <path transform="matrix(3.36,0,0,1.54,-680.3,-171.8)" d="m666 721-3 4-5 1-3 1h-1l1 3 1 4-3 3-2 5-2 3v3l-1 2-2 2 2 4 3 2 5 6 1-3 4 1 1 2-2 1h-3l4 5 2 3 2 1h1l2-2 4 1 5-1h3l3-1h3l2-2 2 2 2 1h3v2l-2 1 2 1 8-2 4 3 3 1 1-2-1-3v-2l-2-3-2-1-2 1-2-2-3-1h-1l-2-3-3 1-2-1h-3l-3-1-2-1 3-2h3l1-1-1-1-2-3v-2h3l1 1v2h2l1-1-1-2-2-2-6-4-2-3-2-2-1-3-1-4v-4l2-1 2 2 3 1 3 2 4 4 4 1v-1l-2-1-2-3h4l2 2 3 2v-2l-4-3-1-2 2-1 3 1 2 1h2l-2-2-2-1-4-1-4-3 3-3 4-1 2-4 3 1 2-1 1-1 3-2h12l5 2 1-3v-8l2-3v-4l-3-1-1-1-4 1 1 4-3 4-5 2h-6l-4-1-3-1h-3l-3 2-5 3-6 1-6 3h-2l-4 5-5 1zm-23 33-1-2-2-1-2 1 3 4 2 2h2v-1zm12 26h3l1 1 1-3-3-1-1-2-3 3 2 1z"/>
   <path transform="matrix(3.36,0,0,1.54,-680.3,-171.8)" d="m689 804v2l2 1v-7h3l4 3 2 2 1-1-2-4v-2l-3-7-3-3-1-3h1l4 2 1 2 3-3 2-1-1-2h-1l-2-1-2-2-1-2-1-1-2-1-8-1-3-1h-2l-1-1h-3l-2 1-3 3h-2l-3 5v3l3 3 4 1 3 3-1 5 2 4 2 1h2v-3l2-2 1 1 3 2zm35-30 1-1-1-2v-1l-2-1h-2v2l1 1zm-6-42h2v-3h-2l-2 1v2l1 1v-1zm-9-12v-2h-2l-2 3 1 1h3l1-1zm-14 41 2 1 3 1 1 2 3 1h2l4 1 2 4 2 1h3l-1-2h1v-3h-4l-3-3v-3l-2-1h-7l-3-2-3-1v-1h-2l-2 3-1 1h3zm36 52 1 1v-2l2-1 1-2h1v7h-2l-1 1h-5l-1 2-4 1-3 2v-2l-1-1-6-1-1 1-8-1-1-2 1-2h1v-2h1l1 2h2v-2h1v2h3l1 2h2l2-3h6l1-1 3 1 2-1zm-69-27-1-1v-3l3 2v2zm66-2h2l1 2h-3zm1 13h-1l-1-1h1z"/>
  </g>
  <path transform="matrix(3.36,0,0,1.54,-680.3,-171.8)" d="m524 480 1-1 1 1v1h3l-1 2v1l1 1v1h-2l-1 1-1-1-2-1h1v-1l-1-2h1l1 1h2l-2-2zm-7 4h2l-2 1-2 2 2-1h1l2-1h1l1 1 2 1 1 2 1 1 2-1h1v2l1 1 1 3h2l1 1h2v2l1 2 1 1v6l-1 3v4l1 1 2 1 1 2v5l1 2 1 3v4l1 3 1 2 2 2h1v6l-1 3v2h-2l-1-1-2-3h-2v2l-1 3-2 1-6 2-1 3-3 2-3 1h-1l-4 2v1l-1 2-1-1-3-2v3l2 2 3 1 1 3v4l2 3 7 5 4 4 4 3 1 1v2l-4 2-1 2v2l-5 2-1 3v4l2 3v2l-1 1-2-2-3 1-3-1-1 1-5 1h-2l-2 2-3 2h-3l-3-2h-3l-1 1-1 2h-1l-3-1-1-2h-4l-2 1-2-1-3-1-2-1h-2l-6 1h-3l-4 1h-1l-2-1-1-1v-5l1-4 1-5 1-3 4-6 1-2-3-1-4-2-5-2h-5l-2-4-2-1-1-2 1-1v-3l-1-1-1-2v-3l-1-1 2-4v-2l-1-2v-2l-1-1v-2l-1-1v-4l2-2v-8l-1-4 1-2 4 2 2-1 2-4 2-2 2-4-4-2-1-2 4-2v-2l1-2v-3l1-2 3-1 1 2h1l-1-2-2-2h-2v-2l1-1 1-2h2l4-1 3 1 1 2v2h2v-2l1 1 1 2 2 2-2-5v-3l1-1v-1h2l3-1h1l-2-1-1-1v-2h1v-1h-1l-1-2 1-1-1-1h-1v-1h1l2-2v-1l-1-2-2-2v-3l2 1 5 1h4l1 1 1 2v2l-1 1 1 1h1l1 1h1l1-1 2 1 1 1h3l1-1 1 1v2l-2 2-1 2 1 1v1l1-1 2-1 1 1h3v-2h1l1-2 3-1h1v1h1l2-4 2-2z"/>
  <path transform="matrix(3.36,0,0,1.54,-680.3,-171.8)" d="m428 566h2v1l-1 3v1h1v2l2 1 2 2 2 1 2-1 4 2h1l2-1 1 2 2 1 2 4h5l5 2 4 2 3 1-1 2-4 6-1 3-1 5-1 4v5l1 1-2 1-1 1h-3l-1-1-2 2 1 1-2 2-2 3-3 3-1 3-2 1-2 2v3l-1 2v3l1 1 2-1 2-4h4l1 1v5l3 3v1h-3v2l1 1v2l2 4v3l-2 1-2 2v4h1l1 1 1 2-1 2v3l1 3 1 2h2l3 1h1l1 2v4l-1 1-4 2-5 5-2 1h-1v3l-4 1-2 1h-5v-1l-2-2h-4v-2h-2l-1-1h-3l-1 1-2-1h-2l-1-1v-1l-4-1-1-1h-2l-2 1-1 2-3 1-2 1-3 1-2 3-1 3v1h1v8l-2-1h-14l-2-1-3-2-1-1-2-1h-2l-3-3-2-1h-2l-3 2h-2l-4-1-4-2-7-3-4-4-3-1-2-1-2-2-1-2-2-2v-1l2 1 3-1 2-3 1-4 4-10 2-4 1-1-2-2v-1l1-3 1-5 1-4 1-1 2 2 1 2 1 1-2-6-3-2v-2l2-6-1-2 1-2h-1l-2-1-6-4-1-4-1-3v-7h5l-2-1-4-1h-3v-3l1-1-1-1-4-1h1l-1-1h-4l-1-1v-1l-2-1-2-2-3-1-1-1-2-1-3 1-1-2-2-3 1-1h2v-1h-2v-2l1-1h2v-1h-5l1-1 1-2 3-1 2-1h4l2 1 2-1h2v-1h4l2 1 5 5h11v1l3 1 1-1-1-2v-11l-2-1v-6l2 1h5l1 1-1 1 2 4h1l4 1 3 2h4l3-2h5l-1-1h-4v-2l2-2 4-2h3l4-1 3-2 4-3v-1l-1-1 2-7 1-4 3-1h5l3-1h1v5l3 2h2l2 4 2 1 1 1h1l1 1 3 1 1 1v6l3 1h2l1-2zm49 160h-2v-6l-1-1-1-2v-1l1-1v-4l1-1h1l2-1 2-2h3v-2l1-1v-2l1 1v7l2 7v3l-1 2-1 3-1 1v2l-1 1v1l-1 2v1l-1-2h-2l-1-1-1-2z"/>
  <g>
   <path transform="matrix(3.36,0,0,1.54,-680.3,-171.8)" d="m591 171 2-1v-2l2-2 3 3h2l3-3v-2l3-4v-1l-1-5-1-2v-4l1-5v-2l2-1 3-2 1-1 6-4 4 4h3l2 1 3 6-2 4v2l2 2v1l-2 4h1v5l1 5 2 3 2 1h4l4 5 2 1 2 4-1 6-1 7v2l1 3 2 3 1 2 2 3 3 3 3 5 2 4v1l-2 3 1 3v3l1 1 1 3v2l1 4 2-1 2 3 1 3 2 3 3 1 1 3v4l-1 3v3l2 3 6 3h2l1 3 3 3v-2l2 7v3l-2 9-3 10-6 15-6 12-5 7-1 2-2 3-1-1h-3l-1 1-4 2h-1l-1 1h-1l-1-1 1 2-3 2-1-1-1 3-3 2-2 2h-1l-2 1-2 3v1l-1 1h-3l-3 3-2 1h-1v-2l-1 2v2l-2 2h-1l1-2 1-1-2-1v-1l-2-3v-2l-1-1-2 2-2-1 1-1-1-1h-3l-2-1-1-1-2-1-3 1v-2h1l-1-1v-3l-1-1v-4l1-3-1-3v-5h1l1 1-1-1-1-2-2-2v-3l-1-1v-8l-1-2-2-2-1-4 1-4v-1h1l1-1v-2l2-1 1-1-2-1 1-3h3l2-1v-2l1-1 1-2 1-1 2-5v-3l5-10 2-5 2-3v-6l4-3 1 1v-3h1l-1-2-1-1v-2l-1-3v-1l-4-4h-1l-2-1-1-3-1 1h-1l-1-1h-1l-1-1-1-2-2-3-1-3v-9l-3-4-1-2-1-3v-3l-1-2v-1l-1-2-1-3v-5l-2-3-4-5-3-2h-5l-5-4-4-3-3-3v-1l1-1 1 1 2-1-1-1v-2l1-1h2l2 1 3 4 2 2 1 2 1 1h3l2 1z"/>
   <path transform="matrix(3.36,0,0,1.54,-680.3,-171.8)" d="m613 358v4l1-1h1l1-1v-4h-1v1zm-21-2h-2v-1l-1 1v1l1 2-2-1v2l1 2h2l2 2v-2h-1l-1-2h1l1-2v-1zm15 3h-1v1l1 1h1z"/>
  </g>
  <path transform="matrix(3.36,0,0,1.54,-680.3,-171.8)" d="m605 397-3-4 3-5 4 3-1 3-1 4zm-1 11-3-2 2-4 3-2h1l4 1 3 2-7 6v5l-1 2-2-3zm32-6h5l2 3 8 1 3-2h6l2 1 3-2-5-5-2-7-3-1-7-7v-5h6v-5l-12 1-9-1-6 4-5 1-3 5-5 1-2 3 1 3v6h2l2 9 7 1 2-3 2 1 1 3 2-3z"/>
  <g>
   <path transform="matrix(3.36,0,0,1.54,-680.3,-171.8)" d="m548 473-1-3-2-2h-1l-1 4 2 1h2zm-49 5v-1l1-1v-2h1v-3h2v3h-1v3l-1 1v2h-1v-2z"/>
   <path transform="matrix(3.36,0,0,1.54,-680.3,-171.8)" d="m499 463 1 1v1h-1v1h1v2h1v4h-1 1-1l-1 1h-3l-1-1h-1l-1 1h-1v-1l1-1h-1l-1-1h-1v-2h-1v-2l-1-1v-1h-1v-1h1l2 1 2-2h3l1 1h1v-1l1-1v1zm12 14h1v2h1v2h-2l-1-1v1l-1 1-1-1h-1v-1h-1l-1-1h-1v-1h-1 1l1-1h-1v-2h3v1h1l1 1h1v-1h1zm5 2h-1v3h-1v-4h-1v-2l-1-1 1-1v1h1l1 1h2l1 2h-1zm-4-21-1 1 1-1v2-1h1v-4l1-1v2l1 1v1h-1v2l1-1v-5h-1v-1h-1l3-3h3l2 4v5l-1 1h-1v2l-1 1v1h2v1h1v3l-2 1v-1l-2 2h1v3l-2 1-1-1h-3l-1-1h1v-2h-2l-1-1h-1l-1 1-1-1v-1h-1v-7h-2v-1l-1-1 1-1h4v-2h2v-2l-1-1h1v1l2-1h1v1l-1 1v2-1 1zm-40-26-1 2h4l1-1 3-1 2-1h5l1-1h2l1 1h4v-1l2-2v-7l1-2h-1l-1 1-5 2-1 2-2 1-1 2-3 2h-3l-3 1h-3z"/>
   <path transform="matrix(3.36,0,0,1.54,-680.3,-171.8)" d="m501 445-1 2-3 3v-1l-2 2v-3l-2 1v5l-1 2-3-1v1l1 2-1 1h-4l2 2v1l-2 2 1 1h-1v4h1v1h-1l-1 1v3h1l2 2v1l-1-1h-1v1h-2l-1 1-5-1-2-1v-9l-1-2-2-1-2-2-1 1h-1v-1l1-3v-3l-1-2v-9l1-3v-2l2-5h4l2-1h3l2-1 4-1h7l1 1 1 2v1h-1l-2 1 1 2 2-1v1l-2 2 1 1 1-1 2 2h3z"/>
  </g>
  <g>
   <path transform="matrix(3.36,0,0,1.54,-680.3,-171.8)" d="m590 562h-4l-2-1v-4h-7l-2-1h-1v3l-2 2-2-1-2-2-2-1v-4h-2l-3-2-2-1h-4l-1-2-3-1-1 2-2 2-1-1h-2l-1-1-2-3h-2v2l-1 3-2 1-6 2-1 3-3 2-3 1h-1l-4 2v1l-1 2-1-1-3-2v3l2 2 3 1 1 3v4l2 3 7 5 4 4 4 3 1 1 3 1 2 1h5l2-1 2-2 1-3 1-2h8l2 1 3 2 4-1h4l2 2 1-2 2-1 1-1 3 1 3-2v-1l2-3v-2l6-6v-1h1l2-2-3-1-3-3zm255 250 7 1 5-1 10-5v2l-6 5-1 1 1 4h-4l-2 3-4 2h-2v1l-1 1-1-2-7-1-2-7 4-1h2v-2zm-222-158v-2h-3l-3-2-5-6-1-8-4 1-2 2-4 2-4 1-6-3-4-3-3-1-5 1h-4l-5 3-3 6-8 9h-4l-7-1h-4l-4 2 1 3 3 6 2 1h1l2-5 1-5 4 1 2 2h1l1 1 1 3v3l2 4 6 4-3 1v2l3 4 3 1 1 1 3 1 2 3v1h8l5 1 4 2 3 4 3 1v1h-1l-2-2h-3l-1 1 4 1 4 2h4l12 6 1 1v-7l-8-4h-4l-7-9-2-3-11-7-13-12v-5h5l8-5 8 2 4-1 11-3 4 4 4 2 4-1zm125-5-4 2-6-2h-8l-2-1-4 1-6 4-5 3-4 5-3 2h-12l-10 3h-8l-4 1-3-2 1-3-3-1-4 3v5l2 5 7 7-2 3-2 7 1 5v1l7 4 3 7 1 5h1l6-3 6-1 5-3 3-2h3l3 1 4 1h6l5-2 3-4-1-4 4-1 1-2 5-3 3-2 5 1 4-1 4-2-1-2-3-2-3-3-1-2h-2l-1-1 2-1v-2l3-3-1-4-1-3 2-4 4-3 1-3-1-4"/>
   <path transform="matrix(3.36,0,0,1.54,-680.3,-171.8)" d="m626 678-3 8-4 1-2 11-8-4h-4l-7-9-2-3-11-7-13-12v-5h5l8-5 8 2 4-1 11-3 4 4 4 2 4-1v11l5 7zm-218-125h2l2 4 2 1 1 1h1l1 1 3 1 1 1v6l3 1h2l1-2 1-1h2v1l-1 3v1h1v2l2 1 2 2 2 1 2-1v-6l1-3 2-1h2l2-4v-2l-1-2v-2l-1-1-3-1-1-1-1-2 1-3v-2l-2-1h-2l-2-1v-2h-1l-1-1h-6l-3 2-3 1h-1l-3-2h-5l-5 3v6zm102 63-3 2h-3l-3-2h-3l-1 1-1 2h-1l-3-1-1-2h-4l-2 1v2l2 1 1 2-1 3 3 1v2l3 1 2-2 2 2h1l2 1h1l4-2h1l3-2h5l2-1 1-1h2v2l1 1 1 2 1 1 2 1h1l4 2h8l1 1h2l4-1 4 1h3v-1l2-1v-1l1-1 4-2 2 1h2l1-2h5l1-1v-1l4-4 2-1v-5l1-4-2-2 1-2h2l4-1 1-2-1-2v-3l-2-2-2-5v-3l-2-2h-4l-4 1-3-2-2-1h-8l-1 2-1 3-2 2-2 1h-5l-2-1-3-1v2l-4 2-1 2v2l-5 2-1 3v4l2 3v2l-1 1-2-2-3 1-3-1-1 1-5 1h-2zm-136 92 1 1 2-1-2-2-2-1h-2l2 2zm256 26 1-4v-5l-2-3v-2l1-2 1-4-4-2 1-4-1-3v-3l2-2 1-3 2 2 4-2 3 3 3 1 4 4-1 1v9l1 4 3 5 3 2 2 1 1 3 1 4-3 3-2 5-2 3v3l-1 2-2 2-3-1-1-3-2-2-5-1-3-4-2-2h2v-2z"/>
  </g>
 </g>
 <g id="cities" transform="translate(.033844 -.026603)" fill="#000000">
  <circle cx="1246.9" cy="403.7" r="15.442"/>
  <circle cx="1005.3" cy="406.02" r="15.442"/>
  <circle cx="1051.6" cy="546.54" r="15.442"/>
  <circle cx="960.03" cy="604.76" r="15.442"/>
  <circle cx="1080.9" cy="625.29" r="15.442"/>
  <circle cx="1013.3" cy="708.61" r="15.442"/>
  <circle cx="1048.2" cy="750.11" r="15.442"/>
  <circle cx="910.65" cy="776.31" r="15.442"/>
  <circle cx="923.75" cy="700.43" r="15.442"/>
  <circle cx="810.46" cy="709.69" r="15.442"/>
  <circle cx="789.44" cy="661.66" r="15.442"/>
  <circle cx="766.51" cy="630" r="15.442"/>
  <circle cx="749.04" cy="637.64" r="15.442"/>
  <circle cx="741.4" cy="648.56" r="15.442"/>
  <circle cx="749.04" cy="663.84" r="15.442"/>
  <circle cx="742.49" cy="678.04" r="15.442"/>
  <circle cx="666.06" cy="743.55" r="15.442"/>
  <circle id="london" cx="585.26" cy="651.83" r="15.442"/>
  <circle cx="336.31" cy="571.03" r="15.442"/>
  <circle cx="87.352" cy="924.81" r="15.442"/>
  <circle cx="36.033" cy="987.05" r="15.442"/>
  <circle cx="327.57" cy="971.76" r="15.442"/>
  <circle cx="600.55" cy="939" r="15.442"/>
  <circle cx="1059.1" cy="914.98" r="15.442"/>
  <circle cx="1240.4" cy="1101.7" r="15.442"/>
  <circle cx="2168.5" cy="1085.3" r="15.442"/>
  <circle cx="1682.6" cy="1012.2" r="15.442"/>
  <circle cx="1596.6" cy="882.6" r="15.442"/>
  <circle cx="1733.9" cy="809.07" r="15.442"/>
  <circle cx="1375.8" cy="755.56" r="15.442"/>
  <circle cx="1284.1" cy="741.37" r="15.442"/>
  <circle cx="1262.2" cy="816.71" r="15.442"/>
  <circle cx="1191.3" cy="812.34" r="15.442"/>
  <circle cx="1239.3" cy="747.92" r="15.442"/>
  <circle cx="1376.9" cy="610.34" r="15.442"/>
  <circle cx="1438" cy="483.68" r="15.442"/>
  <circle cx="1426" cy="373.4" r="15.442"/>
  <circle cx="1422.7" cy="415.98" r="15.442"/>
  <circle cx="1512.3" cy="536.09" r="15.442"/>
  <circle cx="744.68" cy="822.17" r="15.442"/>
  <circle cx="767.61" cy="888.78" r="15.442"/>
  <circle cx="508.83" cy="840.73" r="15.442"/>
  <circle cx="852.77" cy="847.28" r="15.442"/>
  <circle cx="930.3" cy="836.37" r="15.442"/>
  <circle cx="1152" cy="702.06" r="15.442"/>
 </g>
</svg>
