<svg overflow="hidden" version="1" viewBox="0 0 1333 855" xmlns="http://www.w3.org/2000/svg">
 <g fill="#e9e9e9" stroke="#d4d4d4">
  <g transform="translate(-4 159)" stroke-width="1.61">
   <path d="m167 59v1l-4 6h-4l-1 4-4 2 5 5 1 6 3 3 5-2 3-4h10l4 6v4l-1 3v2l1 1 3-1 2-1 2-4h5l2-2-1-4v-3 1l2 4 1-4-1-4-1-1-5-1 2-3 2-6-3-5-1-4-4-2-1-1-5 1h-4l-2 2h-3v-1l4-4v-1l-3-2-1-1-2-1v2h-1l-1 2v3l-2 4h-2m41-81v-1 1l-3 6-2-3-2 2-1 2 1 1 2 1v4l2 2-1 2 4 1h3l-1 1v2h2l2-3 1-2h-2l-2-1-1-2 1-3-2-3 1-2v-3l-2-2m-10 44v-1 1l1 1 4 1 2-1 1-1h3v-2l-1-1v-1l-3-4v-1l-2-1-2 2v2l2 1 1 1-1 1v2l-1 1h-4m9 9 1-1h-1l-4 4v1l-2 2-1 2h2l1-3 3-2 1-3m-9 5v-1l-1 1-3 1-3 3 1 1 2-2 1 1v4l3-1 1-3-1-3v-1m14 9-1 3v3l1 3h2l1-5 1-3h-1l-3-1m9 45-5 4-4 5h3l4-1 2-3 1-2v-2l-1-1m-3 38 2-2-1-2-2-2-2-1 3 7m46 91-1-1h-2l-2 1-1 1 1 1 3 1h2l2-2-2-1"/>
   <path d="m213 158 3-4 2-3-2-2v-1l1-3v-7h-4l-5 2-2-1 10-7 5-4 5-1 6 1 5 1h3l2-2 2-1-2-1v-4l2-3 3-2-4-2 2-4 3-1 1-3v-3l2-2-2-1-3 3h-5l-1-2v-3l-1 1h-1v-3l-3-6 4-6 2-2 1-3 4-2 1 1 1-1-2-1-5-1-2 1h-1l-2 1-4 1-5-1-2-1h-1l-1 3-1 1-2-1-2-3-2-2h-2v1l-1 5h-1l-1-2-1-8 1-2 2 3v-3l2-3 3-4 2-4 3-3v-3l-2-2-1-2 1-2v-1l2-4 1-1h2v-1l-2-1-3-3v5h-1v-1l-2-1-1 1v1h-2l-1 1v-1l1-3 4-5v-2 1l-5 3-1 1v6l-1 3-2 4-3 4-2 3-1 2-2-1v-1l2-5 2-2 2-3 2-2v-3h-2v-2l3-6v-1l2-4v-1l3-3 1-2 2-3v-2h-1l-6 4h-1l-2-3-1-1v-3l-1-1h-2v-1l2-1h3l1-1v-3l1-1 1-2 3-3h1v-4l3-2-2-1 2-1 1-1h-4l-2-1v-1l1-3 1-1 2 1v-1l-1-1v-5l1-2 1-1h3l2-1h2l1-1-2-3v-1l2-1 1-4h3l1-2v-2l2-2 2-3h3l1-1 2 2h1l3 1v1l3-1h2l3 1h5l3-1h1l4 2-1 3-1 5-5 1-3 5-7 2-4 4v-1l-1 2 4 2h1l-3 2-5 1v1h3l-1 1-1 2 1 2 3-2 12-2 3 2h4l4 1 3 1h4l4 1h1l1 3-1 6-1 2-2 1-2 2-1 2-1 3-2 3-1 3-1 2-4 4-1 2-2 3-3 1-3-1 1 2 1 1 2 3 1 2-3 1h-7l-2 2-1 2v1l2 1 3 1 3-1h3l1 1 2 1 4 3 3 2 1 4 3 5 3 3v4l-1 5v4l1 3 1 5 2 4 1 5 1 2 4 1 4 2 3 5 1 4 2 4v5l3 5 2 3v6l-6-3-2-3-1 1 2 3 5 5 2 3 1 3 1 2v3l-1 2-5 5-2 3 2 1 3 1 1 1 2-1 3-3h3l4-1 5 1 3 1 3 3 3 5v6l-1 5-3 8-3 3-2 1h-2v3l-1 2-3 1-1-1h-3l-2 1 2 2v1l-2 2-1 2h-3l1 3v3l4 1h4l5 1 1 1-1 5-4 2-5 2v2l-3 1h-5l-7 1-4 1-4-2h-3l-12 1-2-2v-2h-3l-3-1-2-2v2l-1 2-4 2-5-1h-4v2l-2 1-3-2-4 1-1 1v1l-1-1v-1l-1-2-4-5-1 1h-5l-4 1h-4l-3 8-3 3h-1l-4-2-5-3h-2l-2-1h-4l-3-1-3 4-4 1-2 3-2 1-1-1h-2l-1-2-2-2-2 1-2 2v-1l3-3 3-1 6-4 16-12 3-4 4-2 2-3h1l5-1 6 1 6 2h4l13-13v-3l-6 4h-3l-2 1-2 3-3 1h-3l-4-4-2-6-1-1-1 1-3 1-5-1-1-1v-5l-1-1-4 1-3 3h-3l-2-1h-1v-1l-1-2v-2l-1-2v-2l3-1 5-1 4-1zm55-207 1-1-1-2-1-1-2 1v1l1 2h2m8-3h1v-1h-3l-1-1h-2v-4l-1-2h-1l-2 3v2l1 2h5l2 2 1-1m-82 28h1l-1-1h-6v1h1v2h1l2 1h1v-1l1-1v-1m21-23h-2l-4 1-2 2-2 1-1 1v2h-1l-2-2-2 3-1 4 1 3-1 2-1 1v2l4-2v-1l2-1 1-1 2 1 2-1 2-2v-1h-1v-2h1v-1l1-1h2l2-1-1 1-1-2 1-2 1-3v-1"/>
  </g>
  <path d="m481 505v5l-1 1h-5v5l1 3v1l-8-1h-5l-2-2-3-2-1 4-4 8-1 4v1l-3-1-7-7-2-5v-2l-4 2-3 3v4l-1 1-3 2-1 2h-9l-6 2h-4v-4l-3-1v-2l-1-3v-6l-1-1h-7l-4 6-3 2-1-1v-5l2-8 2-1 1-3 3-1 2-5 2-3 2-2 4-5 3-2v-1l-1-2 2-2h6l3-1 2-2h1l2 2h3l6-1h4l10-2 3 1 4 1 5 2 2 1 1 3 3 2 2 3-2 5 4 2 1 3 5 1 3-2 2 1 1 1z" stroke-width="2"/>
  <g transform="translate(-4 159)">
   <path d="m511-163 1 2-1 3v4l1 1 1 4 1 19 3 5 5 4 2 6-2 6-2 4-4 2-1 2 3 4 3 10-2 10 1 2v5l-2 4-7 4v4l-3 7v5l1 4-2 13-2 2-1-3v3h-1v-6l-1-1-1 1-1 3v3l1 6 1 5 1 3v2h1l1 2v3l2-2v-2l2 1-1 3h1l1 1-2 1-2 3 5 2 1 4-1 5 4-1 1 4-2 3 1 5v5l1-1 1 1 2 4 1 4 2 4 4 4 3 2 2 4v3l-2 1-3-1-2 2v2l1 3 1 5 2 5 1 5 1 3 2 4-1 1v5h-1l-1 2 5-1 8 2 6-3 4-1h4l1-1 1-4-1-6 3-6 2-1 2-2 4-3h6l2-1h3l4-2 1-3 2-9 2-7v-10l1 2-1-7 2-8v-4l-1-2 1-4-1-3-2-2v-4l2 1h1l-1-4 2-2v-2l-2-5v-2l-2-2-3-1h3l3-1 2-1-4-3h-9v-1l7-2 4 1 2-1-1-4h4l2-2 1-5 2-4 3 1-3 3h4l4-5 5-5-1-4 1 2h2v-2l2-2-1-2-4 2-11 4h-3l-2 1-1-2-2-1-7-3-4 1h-2l2-2 1-2 2 1 2-2h4l3 3 2-2v-1l4 2 1-2 1 1 2 4h2l9-7 1-3 2-3 2-2v-7l-1-3-4-2-2-3-1-2h2l-1-1-6-3-2-6-3 1-2 1-2-3h-1v1l-1 6-2 4-7 7h-2l-3 2-3-1 3-2 3-1 2-3 3-2 4-5 1-4-1-4h-2l1-3-1-3-1-2-2-9v-5l-1-3v-2l-1-2v-2l1-3v-2l4 2v-2l-2-7v-6l1-4v-1l-2-3-1-2v-5l4 2v-1h1l1-1z" stroke-width="1.37"/>
   <path d="m606 15v2l2 2 1 3h1v2l-1 2v1l2-1 1-3 4-4v-6h1v-2l-1-1 1-4 1-5h1l2-2v-5h-2l-1 2-3-1-7 8-2 8 1 1zm-13 31 1-7 1-5 1-6v-5l1-2v-1l-2 2v2l-1 4-1 8-2 3-2 7v14l2-4 1-4z" stroke-width="1.61"/>
  </g>
  <g transform="translate(-4 159)">
   <path d="m292 470 4 3 3 2h23l3 1 2 2 1 2-3 2v3l1 4-4 5-8 4-9 4-6 5-8 2-9 2-9 3-6 5v3l-5 3-5 6-9 11-5 4-5 5-2 6-2 2v1l2 2v8l2 3 3 1 3 2 1 2-2 4-7 4-8 4-2 4-3 3-1 4-3 3-2 4 1 2-5 1-5-1-5 1-10 6-2 4-3 4-2 3-3 3h-4l-5-2-7 1-6-1-7-3h-8l-5-2h-8l-5-1h-4l-6 5-6-1-6 1-5 3-2 3-2 1h-1l-1 1h-4l-6-3-4-4-2-5-2-4 1-4-3-3 1-5-1-4-9-9-4-1-3-1-6-1v-12l5-4 7-3 4-3v-5l-3-6-1-6 2-5 4-5 3-3-4-12v-7l5-2h4l6-4 1-4-2-4 1-4 4-5 2-6 1-5 2-4 5-4 6-3 4-5 1-4-4-8-6-3-7-2-6 1-6-1-4-2h-5l-3-3 1-4v-1h-12l-5 4v-6l3-5 4-2-4-1 2-3-3-3 4-4-2-1-2-2 1-3-2-3-3-4 4-5 5-2h5l7 2 4-3 1-3 3-3h10l4 2 5 4 7 3 9 2 8 2 5-1 4 1 7 4 5 1 4 2 9 4 7 2 7 1 6-1 4 2 8 3h4l8 1 5 3 8 2 4-1v2l3 3 2 3 3 2 3 3 5 1 4 4 2 3 12 4 6 3 6 1h3l5-2h4l3 1 8 8 1 2 3 1 1-1zm-18 109-3-2 2-3 4-2h1l1 3-3 3zm70-31 1 2 1 1v4h-3l-4-2-3-4 2-1h4zm-24 3-1 3v1l4 1 2 3-3 6-5 5-7-5-1-3h-3l-3 1-2-4 4-4 8-3 5-2 2-1h1v1z" stroke-width="1.61"/>
  </g>
  <g transform="translate(-4 159)" stroke-width="2">
   <path d="m594 341h-2l-1 3h-4l-4-1-2 1-3 1-1 2-5 5h-5l-6-1-6 1-3 2-1 2-1 3v2h3l-1 2v4l2 2v3l1 1h2l3 3h1l1 2v2l-1 1h-3l-1-1-3 3 1 4 6-4h7l12 1 6 1 12-15 5-10 8-5 7 1 8-3-5-5-5-2-4-4-2-5-3-1h-3l-3 2v1l-1 2-2-1zm33-42 7 5 3 1 3-1h4l3-1h4l2-3v-1l2-4 5-2 6-3 5-4 7 1 4-4 4-1 1-5 5-4 7-1 4-1h6l6 3 5-2v-5l1-7 2-8-1-3h-3l-5-2-3-3-5-1h-5l-4 1-5 5-5-2-6 1-3 4-3 3-3-1-3-3-4-3-4-2-3 3-4 1-6-2-3 3-1-1-2 4-9 9v3l-3 4v2l-4 3-4-1-4 1-2 2-1 3v5l3 7 3 5h1l2 1zm140 129-7-6-5-5-2-8-1-9 6-4h-4l-4-6 3-5-3-4-4 5-5-1-7-1-7-4-3-9-4-2h-4l-4-5-3-6-3-4-5-4-6-2-2-1h1-1l-2-2-5 2-4 1-6 5-5 1-3 2 2 13 9 9 5 3h5l-1 4-5 3v17l9 11 2 7-3 6c8 3 14 10 21 13-6 2-3 7-3 12l5 5 5 1 6 6-2 3 10-2 7-11 15-2 7-2-1-8 3-11zm-241-3a3 3 0 1 0 0 6 3 3 0 0 0 0-6z"/>
  </g>
  <path d="m646 261 5 1 5-1 5 1h5l5-2 9-4 5-1 8-4-3-10-4-7-29-4 1 9-3 5-6-1-2-2v-2l3-10h-2l-3 10h-4l-2 5h2l1 2h2l-5 4h-3l-3 4-4 3 3 2 3 1 7 2z" stroke-width="1.61"/>
  <g transform="translate(-4 159)" stroke-width="2">
   <path d="m761 278 5-3 6-1 4 2 4 1 5-5 6-3 6-2 11-10 5-1 11 6 5 4 2 5 7 7 7 6 6 7 5 10 2 7 1 6 2 5 2 4 1 5 1 2 3-1 6 4 4-1 3-4 6-3 3-2 3-1 2 1 2 2 1 2 1 5 1 4-2 5-4 2-3 4-2 5-2 3-1-2 2-3v-8l-1-3-3 1v4l1 5v13l2 7v3l2 5-7 2-9-3h-12l-3-1-8 1-9 6-8 6-6 7-6 3-10 1h-8l-16 4-14 1-6 1-5-2 2-6-6-1h-4l-4-6 3-5-3-4-4 5-5-1-7-1-7-4-3-9-4-2h-4l-4-5-3-6-3-4-5-4-6-2-2-1h1l1-1 3-1 8-4 5-4 2-7 2-4 2-7 1-5 4-6v-4l1-4v-3l3-5 5-3 2-1 3-3 1-2 2-2 6-1 7-1zm-741 264v3h10v2l-2 1v3l-2 4-2 5v3l-1 4-1 2v4l-2 3-4 5-1 5v2h6l5 1 6 2 3 2 5 1h5l4-2h4v-12l5-4 7-3 4-3v-5l-3-6v-6l1-5 4-5 3-3-4-12v-7l5-2h4l6-4 1-4-2-4 1-4 4-5 2-6 1-5 2-4 5-4 6-3 4-5 1-4-4-8-6-3-7-2-6 1-6-1-4-2h-5l-3-3 1-4v-1h-12l-5 4v5l-1 8v6l-1 3-4 8-2 5-2 3-3 6-2 7-2 3-3 5-2 2-4 5-4 3-3 3-2 7-3 6v1l3 3zm594-448 7-1h2v2l3 1 4-1 4-3v2l-5 4v1l4-1 3 2 3 1 7 2 4-1 5 1 5-1 5 1h5l5-2 9-4 5-1 8-4 7-2 12 4 2 4 2 5 1 9 6 13 1 5-1 6-3 6-4 4-3 5 3 3 6 4 1 9v4l3 5 2 4 4 6 5 3v5l3 4v5l-5 7-6 6-4 8-4 14 1 6 2 4-4 2-2-1h-3l-5-2-3-3-5-1h-5l-4 1-5 5-5-2-6 1-3 4-3 3-3-1-3-3-4-3-4-2-3 3-4 1-6-2-5-1-5-6-3-4-4-1-1 1-4-2-1-3v-3h-10l-6-2v2l1 2-4 4-2-1-8-6 1-1 1-3-1-1v-1h-4l-4-4h-10l-2-3-4-2-4 6-3-1v-1l1-2 1-6v-7l-1-2-6-6-1-5v-3l-1-4-1-5-1-3v-4l-1-4-1-3-3-2-2-2v-2l1-4 1-5v-9l-1-3-2-3-1-3 3 2 3 1v-5l-3-1h-1l1-2 4-2 1 1 3-4 4-3 6-1 10-2 6-3 3-4 2-2 4-2 7-2 4-1 3-2z"/>
  </g>
  <g transform="translate(-4 159)">
   <path d="m439-163-1 1 3 1 3-1v1l1 1h1l-1 1-1 2 1 2-2-2-2 1-2-1h-2l-2-1h-2l-1 1h-2l-2 2 2 1-2 1v1h3v-1h1l-2 3v2l1 5-1 1-1-5-1-1-3 1-2 4v1l1 2v2l-2-2-1-2h-6v3l-4-3-1 1 1 2v2l-1 2 1 1h7l6-1 1-1-4 3 1 1h3l2-1 1 1-3 1-4 1h-4l-2-2h-1l-4 3v1h-2l-1 1v2l2 1h2v5l-2 1-2 2 1 2-1 2v2l1 1v2l1 1 3 1 3-1 3-2 3-1 1 2h4l1-4 2-4 1 3-1 4 1 1h3l2-1 1 1h1l3-3 1-8 4-2v2l-3 4v4l-1 1h2l2-1 1 1-4 3-5 2v3l2 2-4 3v-4l-1-2-3-2-3-1-3 1h-6l-3-1-2 3-3-1-2-1-2 4-1 3 3 1 1-1v5l-4-4v1h-1v1l3 6 2 1 3-3h3l-4 4-1 2 1 1-4 2-1 2v2l2 2v2l2-1 2-2v3l2 4h-2l-3 2v2l2 1 3-2 2-3v-4l2-2 3-4 3-6 3-3 2 2v1l3-1 3 1-5 2v4l-1 2-1-4-1-1-3 5-2 3 1 2v1l-3 2-2 3-3 3-1 2 2 1h4l2 1 1-2 1 1-8 4v2l-3-1-1 1-2-1-3 4-1 3v4l1 1h3l1-3v3h2l1-2v-2l2 2 4-3 2-2 1 1-4 6h1v3l-1 3-1 2-2 2v4h-3l-1-2h-1l-3 10 4 6 6 7 4 3 4 1 2-5v6l-1 5 2-2 3 2 1-3h4l-2 3 5 2 4-1 3-4 2-4 2 4 6-5 6-9 4-2 1-4 2-1 1-2 4-6v-3l3 2h5l2-1 1-4v-2l1-1 1-2v-3l-2-2-1-3v-1l1-1-1-3v-1l3 3v3l1-1 1-2-2-3v-6h1l2-1 1 1 1 3-3 1v2l1 3 1 10 1 2v2l2-1 3 3 2-1 1 3 1 1v6h1v-3l1 3 2-2 2-13-1-4v-5l3-7v-4l7-4 2-4v-5l-1-2 2-10-3-10-3-4 1-2 4-2 2-4 2-6-2-6-5-4-3-5-1-19-1-4-1-1v-4l1-3-1-2z" stroke-width="1.37"/>
   <path d="m406-41-1 3v1h2v-6l-1-1v1zm-3-61 1-1 1-3v-2l-1 2h-1l-1 1v3zm7 38-1-1h-1v5l2 2 1-1v-4zm11-82 2-2v-2l-2-1-1 1v5h1zm-14 17 2-2v-1l-1-1h-1z" stroke-width="1.61"/>
  </g>
  <g transform="translate(-4 159)" stroke-width="1.61">
   <path d="m384 151-3 4-2 2 3-1 1-4 2-1 1-2-1-1zm1 25h1l2 2h3v-4l-2-2v-2h2l1-1 1-2v-3l2-3v-1h-4v-8l1-1 1-2 1-1h1l1-1h1l3-2h5l1 1h1l1-1 2-1h7l3 3 1 2h1l-1 2v3l-1 4-1 3-1 4-5 3v3l7 3-1 4-6 6-1 3-1 4h-3l-4-2h-4v3l1 5v8l-1 7-2 2v6l1 3v2h-4l-3-3v-7l1-4-3-2h-3l-3-2-1-2h-1l-3-3h-4l-4 1-10 5h-2l-4-3-2-1 1-1h2l3 2 1 1 3-2h4l1 1-1-1-2-1h-3l-2-1 1-2 2-1h5l4-2 6-1 2-1-1-2-3 1-1 1-4-1-2-1-2-2v-4l9-9 1-6 2-7 2-5 3-1 1 2 2 2v2h-2l-1 1v1l-1 2v4h1l-1 1 1 1z"/>
   <path d="m356 202 2-2-2-1-1 2v1zm8-10-1-1h3l1 2 2 1v1l-1 1zm-5 2 1-1h1l3 2v1h-1l-2-2z"/>
  </g>
  <path d="m708 601c-7-3-13-10-21-13l-3 7-5 2-4 18v10l6 4 4 2 3 5 2 1 2-7-2-4 1-6 3-3 2-4 3 2 6-2c0-5-3-10 3-12z" stroke-width="2"/>
  <g transform="translate(-4 159)">
   <path d="m607 670 1 1h1v4h-2l-4-2-3-3 2-4 2 3zm-11-8h2l1 1 2 1-2 2h-1l-2-1-2-2" stroke-width="1.61"/>
  </g>
  <g transform="translate(-4 159)" stroke-width="2">
   <path d="m723 475v-6l10-2 7-11 15-2 7-2 1 2 11 6 6 18-2 2-5 6-9 2-7 5-4 5-8 2-5 2h-2l-4-2-4-3-5-8-2-7zm-322-225v-3l1-3-3-1h-2l-4 2-2 5 1 4v6l5 2h3l2-1 2-2v-4l-1-3zm329-157 14-6 1-14 4-12 1-10-16-3-3-6-13-3-5-6-4-1-7 8-12-2-12 8-5-2-6 3-10 16h2l2 8 29 4 4 7 3 10 7-2 12 4 2 4 9-2z"/>
   <path d="m654 28-1 5-2 3 1 7-1 13-1 5 3 5h3l1-3 10-16 6-3 5 2 12-8 12 2 7-8 4 1 5 6 13 3 3 6 16 3v-14l18-22v-4l-10-13 3-11-5-6-6 4-3-2h-8l-6 3-13-2-3-4h-8l-7 3-5 5-2 5 2 10-2 12-3 2-6 2-10-7-7-3-2-7-5 5-7 3-3 14z"/>
  </g>
  <g transform="translate(-4 159)" stroke-width="1.61">
   <path d="m683 534-2-3-3-3-5-4-3-4-3-3-4-1-11-3-4-3-6-2-10-3-6-2-3-2h-5l-1-2v-2l2-3 3-2v-4l-3-3h-5l-1 2h-8l-5 1v3l-6-5-4-3h-2l-2-3h-1l-2-1-7-6-3-3-3-6-2-3-1-4-2-2-2-5-1-4-4-6-2-1h-3v-1l-2-1-4-3-3-3-6-2-2-1-3-3-2-4-2-3v-14l3-2v-3l-1-2-3-1-1-6v-3l2-1 2-2h4l4-2 6-4 2-2 4 1 3-2h3l1 2-1 2v1l1 1h3l1-1v-2l-1-2h-1l-3-3h-2l-1-1v-3l-2-2v-4l1-2h-3v-2l1-3 1-2 3-2h-4l-1-1-4-1h-12l-3-3h-2l-3-1-4-4v-5l-1-1-3 1-1 1-4 1-7 1-5 2-2 1-6 2h-6l-1-1-1 2v5l-1 1h-5v5l1 3v1l-8-1h-5l-2-2-3-2-1 4-4 8-1 4v1l-3-1-7-7-2-5v-2l-4 2-3 3v4l-1 1-3 2-1 2h-9l-6 2h-7l-1 2 1 2 1 3 3 7v4l-4 3-2 2-1 4v2l2 2 2 1v11l1 4 2 3 4 1h3l3 1 1 3v3l-1 3 1 2h7l6-3 1-3 4-6h2v-3l4-2 3-1h4l4 1 4 2 12 7 7 3 1 2 1 5 2 6 4 8 1 4v3l1 2 8 6 4 5 2 6 3-1h3l4 3 6 8h4l2 3 6 7 6 5 6 4 5 4 2-1h14l7 7 2 4 7 3 1 1-1 3 8-2 3 1 2 2 2 4v2l-1 2 2 2 6 2 5 5 1-4 3-1v2l2 1 1 2 1 3 2 5 2 4 3 4 3 8 2 3 1 3 1 2-6 4-2 3 1 4-4 10 1 5 1 3h4l4-1 1-1 1-3 2-5 1-2 2-3 3-1 1-2v-6l-1-4 1-2 4-2 4-3h2l1-2-1-2v-4l-1-2v-4l-3-2-4-2-3-3-5-1v-4l1-5 1-4 3-5 4-6 4-2 3 2 5 3h6l5 2 2 4 4 4 5 2v-1l1-3zm-243 2h2l2 4 1 3v4l-1 4 1 4 1 1v3l-2 1v5l-1 1v3l1 3v3l1 4 3 4 1 1v2l3 1h2l2-1 3-2 2-4 2-3 3 2h3l2-2 1-2 1-3v-25l1-4v-5l-1-6-3-9-2-4-3-3-2-1-1-1h-2l-2 4-3 1-8 8h-4l-2-1-2-2v2l-1 2v5z"/>
   <path d="m544 611v4l1 6 3 3 8 1 5 2 6 4 6 2 3 3 4 1h4l7 2 4 4 5 4 6 1h4l3-1v-3l1-5 1-3-1-2-2-3v-2l-2-2v-2l1-5 2-7 6-10v-5h-1l-1 1-4 1h-1l-3 2-8 1-4 2-3 2-10 1-4 1-6 2-2-3-6-2-4-2-4 2-3 3h-3l-2-2-2-1-2 1-1 2z"/>
  </g>
  <path d="m163 218v-1h1v-3l1-4-1-1h-2l-1 1h-2l-1-1-4 1-3 2-2 1-2 2v3l-3 2-5 2 1 2 3 1 1 1 2-1 3 1v2l-2 2h-1l-6 3v1l-1 2-5-1h-3l-3-1-1-2-8-3-3 2-2 3v5l-2-1h-3l1 3 5 2 2 1v2l-6 2-2 2-3 1-1 2 2 3 1 1v2l2 1h2v3l3 1 8 2 1 2-2 1-5 1-3 2-1 2-1 3-2 2-6 4h-1l3 1v-1l2 1h3l4 1 3-2 2-2 2-1v1l-1 2v1l2 1 1 1-4 1-4-1h-5l-5-1-2 2-4 3v2l-2 1-2-1h-2l-2-1-3 2-2 2 5 1 4 1v2h-5l-4 3v2h2v3h1l9-1-1 3h-3l-6 3h11l1 1-2 2-2-1-3 1 1 1-1 2 4-1h3l1 2h3l2-1 2 1h5l3-1h4l2-1 1-3v-2l2 1v2l1 1 5-1 2-3 1 1 2 1 2-1 1-3 1-1h14l4 1 3 2h2l2-2-1-4 2-2 2-3 2-5 1-1 4-6v-14h2l1-2v-6l-2-9 1-3h3l-1-1v-2l1-3v-4l-4-6h-10l-3 4-5 2-3-3-1-6-5-5 4-2 1-4h4l4-6v-1m470 246-3-1-7-5-3-1-2-1v8l-1 3h-6l-4 1-1 3 3 3-2 7v4l1 4-5 1-2 3-1 2h3l3 1 2 5 4 4 5 2 5 5 5 2 5 6 5 1 6 3 7-2 5-2 4-4 5-1 3-2 5-1 6-5 4-1 5-2 2 2h1l1-1 3-1 8-4 5-4 2-7 2-4 2-7 1-5 4-6v-4l1-4v-3l3-5 5-3 2-1 3-3 1-2-3-4-3-3-5-2-6-2-4 2-7-3h-6l-4 1-7 1-5 4-1 5-4 1-4 4-7-1-5 4-6 3-5 2-2 4v1l-2 3h-4l-3 1h-4z" stroke-width="2"/>
  <g transform="translate(-4 159)" stroke-width="1.61">
   <path d="m740 502h-2l2 4 1 6-5 6-2 8-4 4v5l-2 3-3 3 4 8 5 2 8 10v-4l7 1 2 4-4 1h-4l7 7 3 5 3 3 2-1 1-2h1l7 1 7-3 6 1 5-2h5l2-2 4 2 3 2h5v3l-4 3 5 1 12-4 5 5 7 2 1-3-1-5-1-4-3-4-4-1h-2l-4-2-4-3-3 1-3-4h-4l-4-1h-4l-5-2-3-2 4-2h3l2-1 1-2-1-1-2-4v-4h4l2 2v3h2l2-1-2-4-3-3-4-3-5-3-3-6-3-3-2-5-1-6v-6l3-2 2 4 6 2 5 2 6 7 6 2 1-2-5-2-3-5h6l5 4 4 2v-2l-6-5-1-4h8l3 2 2 1-1-2-2-2-4-2-6-2-5-4 4-4 6-3 4-6 5 1h3l5-5h21l7 3 2-5v-13l3-6v-5l-4-2-3-2-5 1v7l-4 7-8 4-9-1-7-1-5-3-5 1-4 2-8 5-9 2-7 3-4 2-1-1-2 2-5 6-9 2-7 5-4 5-8 2zm-28 40 5 7 4 3 2-1v-2l-2-3-3-4-3-2zm35 42-4-1-1-5-3 2-2 4h-1l3 2 1 1h4l3 1z"/>
   <path d="m798 627v-8h4l6 5 4 3 2-1-3-8v-2l-6-12-4-4-2-5h2l3 2 4 1 1 3 2-1 2-3 4-2-1-3-6-2-3-4-2-2-1-2-4-2-11-2h-9l-3-3-6 2-6 5h-3l-4 9v4l4 5 7 2 4 5-1 8 3 5 3 2 3 1 1-5 2-4 3 2 4 3 3 6 1 3 3 2zm52-56-3-1-4-1 1 3 2 1 4 5h1l1-2-1-4zm-5-65-2-2h-3l-3 2v4l2 1 1-2h1l2 1h1zm-24-14v2h3l4-2-1-1-1-3h-3zm-7 71 4 2 4-1 6 2 4 6 3 2h1l3-1-1-3h2l-1-3h-4l-2-1-4-5-1-4-3-2h-7l-5-1-5-2-4-4h-3l-4 4-1 3h1l3-1 4 2 4 3 3 1zm53 73 1-3h2v12l-3-1-2 3h-8l-1 3-6 1-6 4-1-3v-3h-10l-2 1-13-2-2-3 2-4 2 1v-3l2-1 1 3h3l1-2h1l1 3h4l1 2h3l5-4 6-1 3 1 1-1 4 1 5-2v2l2 1 1-3zm-113-43v3l-3 1-2-2v-4zm107 3-2 1h-2v-3l2-1h2zm-4 16 1 2h-1l-1-2z"/>
  </g>
  <g transform="translate(-4 159)">
   <path d="m532 106h3l2 1-1 3v2l1 2v1l-1-1-2 1-1 1-3-1-2-1 1-2v-1l-1-3h1l3 1 1 1v-2l-2-1-2-2 1-1h2zm-16 9-1 2 2-2 6-2h2l4 4 1 2h1l2 1h4l2 4 2 5 2 1h5l1 3 2 3 1 3v9l-1 5-1 4v2l2 2 3 2 1 3 1 4v4l1 3 1 5 1 4v3l1 5 6 6 1 2v7l-1 6-1 2v1h-2l-3-3-3-4-3-1v4l-1 4-4 2-5 3-4 1-2 5-6 3-9 3-2 2-1 2-1 3-2-2-4-3-1 2v3l4 3 4 2 1 4v7l4 4 11 8 7 7 6 4 2 2v3l-3 2-3 1-2 3v4l-8 4-2 4 1 6 3 6v3l-3 2-2-3h-5l-5-1-1 2-8 1-4 1-4 2-3 3h-6l-5-3h-4l-2 2-2 3-2 1-3-2-2-3-3-1-8 2-2-1-5-2-4-1-3-1-10 2h-4l-6 1h-3l-2-2h-1v-1l-1-4v-4l1-6 3-9 1-5 4-4 2-4 1-4-10-4-12-4h-4l-2-4-7-7 2-2v-4l-1-3-2-2v-3l1-3-3-1 4-6v-3l-2-3v-4l-2-2v-2l-1-3v-6l2-2 1-7v-8l-1-5v-3h4l4 2h3l1-4 1-3 6-6 1-4-7-3v-3l5-3 1-4 1-3 1-4v-3l1-2 5-1 1 3 1 1-1-3-1-2-4-2-1-1h-1l1-3 2-1 1-3 3-1h6l5 1 2 3v4h3v-3h2l2 4 2 3-2-7v-6l1-1 1-2h2l5-1h1l-2-2-3-1 1-3h1v-2l-1-1-1-2 1-2-2-1h-2l1-2 1-1 4-2-1-3-2-2-1-2-2-2 1-2v-2h2l9 2h3l3 1 2 1 2 3v3l-2 3 1 1h3v2h2l1-2 4 2 1 2h3l3-1 2-1 1 1v3l-1 2-3 2-1 3 1 1 1 2 1-1 3-2 2 1h5l-1-2h1l4-4 6-2v2h1l2-4 2-2 2-3 3-1h2l-3 2z" stroke-width="1.61"/>
  </g>
  <g transform="translate(-4 159)">
   <path d="m378 249-1 2 2 1-1 2 4 2 3 3 4 1h3l5 2h3l2-1 7 7 2 4h4l12 4 10 4v4l-3 4-4 4-1 5-3 9-1 6v4l1 4v1l-2 2-3 1h-6l-2 2 1 2v1l-3 2-4 5-2 2-2 3-2 5-3 1-1 3-2 1-2 8v5l1 1 3-2 4-6h7l1 1v6l1 3v2l3 1v4h-3l-1 2 1 2 1 3 3 7v4l-4 3-2 2-1 4v2l2 2 2 1v11l1 4 2 3 4 1h3l3 1 1 3v3l-1 3 1 2h-1l-8 4v2l-3 1-4 4-3 2-1 1v2l-2 2-6 2-2 1-1 1-1-1h-6l-2-2-1-2h-5l-2-1v-2l-6-2-1-1h-4v2l-4-1-3-1-2-2-6-2-2-1h-2l-4 1-2 2-5 3-3 1-5 2-3 4-1 6v1l1 1v12l-3-1h-23l-3-2-4-3-2-3h-3l-3-1-5-5-3-1h-4l-5 2h-2l-7-1-6-3-12-4-2-3-4-4-5-1-3-3-3-2-2-3-3-3v-2l4 1 4-2 3-4 1-6 3-8 3-9 4-7 1-1-2-3v-1l1-5 2-8 1-6 2-3 3 4 2 3 1 2-1-5-2-5-4-3-1-4 3-4 1-5-2-3 1-4h-1l-3-1-5-3-4-4-3-5-2-6 2-4v-4l-1-3h8l-4-2-6-1-5-1 2-6-1-1-7-1 2-1-2-2-5 1-2-1v-1l-4-4-3-2-5-3-2-1-4-1-4 1-1-3-4-5 3-1h3l-1-2h-2l-1-2 2-2h2l1-2h-7v-2l2-4 5-1 4-1h6l3 1 2-1h3l1-2 2-1 2 2h6l2 2 3 4 3 3h4l3-1 1 1h2l3-1h3l1 1 1 2h4l2-1-2-2v-18l-3-2v-11l4 2 7 1 1 1-1 3 2 2 2 4h2l6 2 4 2h7l4-2h8l1-1-2-1-6-1v-2l3-4 6-3 5-1 7-1 5-3 5-4 1-3-2-1 3-11 3-6 4-2 5-1h4l4-1h1v5l1 4 3 2h4l2 3 1 4 6 2v1l2 1 5 2 1 2 1 3v6l4 1 3 1 2-3 3-3 2 1v2zm72 241v-2l-2-2v-2l1-2-1-1v-2h1v-3l1-2 2 1 3-1 4-4 4-1 1-2v-2l1-2v-2l2 1v12l3 12-3 12-2 6-1 2-2 3v3l-2-4h-2l-3-2-1-2v-4h-3l-1-7z" stroke-width="1.61"/>
  </g>
  <g transform="translate(-4 159)">
   <path d="m646-163 1 8-1 5 2 2 1 3 1 2 1 3 1 2 2 2-2-1h-1v6l1 2 1 5-1 4h-1v5l1 1 1 2-1 2 1 2v1l1 1-2 1 1 2h4l3 1 2 2 4 1h5l1 2-1 2 3 1 4-4v2l1 4 3 4v2l3 1-1 2-2 3h1l3-3 1-3 1-4 1 1v3h2l1-2 5-3 4-2 1 1h1l2-4 3-4 2-2h2l4-4 5-3 1-5 2 3 5-4-2-3 1 1h4l1-2 4-1 2-1 3-2 4 1h1l1 1 2-5 3-3 8-11 10-19 1-4z" stroke-width="1.37"/>
   <path d="m672-85 2-1h2l1-1v-8l-4 4v3l-1 1zm-37-10-2 2 1 1 1 2h-2v3l1 3h4l2 2 1-2-2-1-1-2 1-1 1-3-2-2v-1h-2zm26 8 1 1h1v-3l-1-1-1 1z" stroke-width="1.61"/>
  </g>
  <g transform="translate(-4 159)">
   <path d="m665-37v4l-2 6-4-1-5-7 5-8zm-5 14 2-1 7 2 4 3-10 11v7l-3 3-3-4v-8l-3-4 1-6zm73 9 6-3h8l3 2 6-4-8-8-3-10-5-3-11-11v-7l8-1 1-7-19 1-14-2-10 6-8 2-5 9-8 2-4 4 2 4v9l4 2 3 14 10 1 4-4 3 1 1 5 5-5 7-3h8l3 4z" stroke-width="1.61"/>
  </g>
  <g transform="translate(-4 159)" stroke-width="1.61">
   <path d="m564 87-3-1v6l1 2h6v-1l-1-4zm-74 13v-3h1v-1l1-1v-1l1-1v-2l1-1h1v6l-2 2v4l-1 2-1 1v-1l-1-2v-1l-1-1z"/>
   <path d="m490 80v3l1 1v1l2 1h-1v7h-3v1l-2 1-2-1h-1l-2-1h-2l-1 1v-3h1l-2-1h-1l-1-1h-2v-3l-1-1h-1l1-1v-1l-1-1v-1l-1-1v-2h1l2 2 1-1 2-1 1-1h1l2-1h2l2 1v1h1v-2l1-1 1 1 1 2h1zm20 21v1l1 1v2h1v1h-1l-2 1-2-1-1 1-2 1v-1h-1v-1l-1-1h-2v-1h-2v-1h-1l-1-1h1l2-2h-2v-2l1-1h3v-1l1 1v1l2 1 1 1h1v-1h1l1-1v1h1v1zm5 6v2l-1-1v-5l-2-2v-1l-1-1v-1l-1-1v-1h3v1l1-1v2h4v1h1v2l-1 1-2 1v1l-1 1zm-5-35v1l1-1v-2l1-1v-5h1v1l1 1v4l-1 1h1v1h1v-9h-2l-1-1v-1l4-4h2l1-1h1l1 1 3 6v1l1 2v6h-1l-1 1h-1l-1 1v2l-1 1v3h2l2 2v4l-2 1-1-1-1 1-1 2v1l1 1h-1v4h-3l-1-1h-2l-2-1h-3l1-1 1 1v-4h-1l-2-1h-3l-2 1-1-1v-2l-1-1h-1l-1-1v-1h1v-8l-1-1h-3v-1l1-1h-2v-1l1-1h7v-3h2l1-1v-2l-2-2h2v1l3-1h2v2h-1v3h-1v1h1v3h1zm-58-43h5l3-2 8-1 2-2h2l2 2h7l1-2 3-3v-3l-1-3v-5l1-2v-1l-2 2-8 3-2 2-4 3-1 3-5 3-4 1h-5l-5 1-3 4-1 2h5z"/>
   <path d="m486 57-1-1-2 2-1-2v-2l-2 1-1 4 1 5-2 2-4-1-2 2 2 3v2l-5-1-2 1 3 2v2l-2 1-1 2 1 1-1 2v5h1v2l-2 1-1 1-1 3 1 1 4 2v3l-1-1h-2v1h-2l-2 1-9-2h-2l-1-3v-11l-2-4-2-2-3-2-1 1h-2v-2l1-4v-5l-1-4-1-9v-4l2-5v-4l3-8h7l2-2h5l3-2 7-1 5-1 7 1 2 4v2l-3 3v2l3-1h1l-2 3-1 2 1 2 2-3 2 2 1 2h1l2-1 2 1 1 2-1 4-4 4z"/>
  </g>
  <g transform="translate(-4 159)" stroke-width="2">
   <path d="m626 235-1-3v-3h-7l-3-1h-3l-3-1v2l1 2-4 4-2-1-8-6 1-1 1-3-1-1v-1h-4l-4-4h-10l-2-3-4-2-4 6-3-1h-2l-3-3-3-4-3-1v4l-1 4-4 2-5 3-4 1-2 5-6 3-9 3-2 2-1 2-1 3h-1l-1-2-4-3-1 2v3l4 3 4 2 1 4v7l4 4 11 8 7 7 6 4 2 2 5 2 3 2h4l4-1 3-2 4-3v-3l2-4h6l7-1 3 2 5 4 6-1 7-2 4 4 1-3 2-2 4-1 4 1 4-3v-2l3-4v-3l9-9 2-4 1 1 3-3-5-1-5-6-3-4-4-1-1 1zm454 396v3l-9 7-3 2 3 7h-8l-2 5-6 3h-3l-1 2h-1l-2-2-11-2-4-11 7-1h3v-4l2-2 11 2 8-2zm-396-250-5-3-9-9-2-13-5 1-4 4-5 2-7 2-6-3-5-1-5-6-5-2-8 3-7-1-8 5-5 10-12 15-6-1-12-1h-7l-6 4 1 4 2 3 4 7 2 1h2l4-8 2-8 5 2 3 3h2l3 6v6l4 6 4 3 5 3-4 1-1 2v2l5 5 5 3 2 2 5 2 2 3 1 3h2l6-1h5l7 2 6 4 6 5 4 2 1 2h-3l-2-3h-5l-1 2h5l7 4h7l9 4 4 3 4 1 1 2 3 1v-10l-13-7h-6l-11-14-4-6-18-11-20-19v-9l7 1 13-8 13 3 7-2 18-5 5 7 8 3 5-1 5-3 1-4zm205-4-7 2-9-3h-12l-3-1-8 1-9 6-8 6-6 7-6 3-10 1h-8l-16 4-14 1-6 1-5-2 2-6-6-1-6 4 1 9 2 8 5 5 7 6-3 5-3 11 1 8 1 2 11 6 6 18 1 1 4-2 7-3 9-2 8-5 4-2 5-1 5 3 7 1 9 1 8-4 4-7v-7l5-1 3-3 8-4 5-5 8 3 5-3 5-1 3-1-3-4-4-2-2-2-3-4-2-2h-2l-2-2 2-2 1-3 1-2 3-2-2-7-1-5 3-7 7-4 1-5-1-6"/>
   <path d="m679 456-13-7h-6l-11-14-4-6-18-11-20-19v-9l7 1 13-7 13 2 7-2 18-5 5 7 8 3 5-1v17l9 11 2 7-6 13-5 2zm-330-227 6 2v1l2 1 5 2 1 2 1 3v6l4 1 3 1 2-3 3-3 2 1v6l-1 2 2 1-1 2 4 2 3 3 4 1h3v-6l-1-4 2-5 4-2h2l4-6v-3l-2-3v-4l-2-2h-4l-3-3v-7l1-4-3-2h-3l-3-2-1-2h-1l-3-3h-4l-4 1-10 5h-2l-4-3-2-1h-2l-4 1-8 4-1 2v5l1 4 3 2h4l2 3zm143 94h-4l-2 2-2 3-2 1-3-2-2-3-3-1-8 2 1 3 3 2 2 3-2 5 4 2 1 3 5 1 3-2 2 1 2 2h6l6-2 2-1 5-2 7-1 4-1 1-1 3-1 1 1v5l4 4 3 1h2l3 3h12l4 1 1 1h4l6-1 6 1h5l5-5 1-2 3-1 2-1 4 1h4l1-3h2l4-1 2 1 1-2v-1l3-2 1-2 2-3 5-1-1-4v-4l2-7-3-3 1-3 4-1h6l1-3v-8h-1l-3-5-3-7v-5l-4-4-7 2-6 1-5-4-3-2-7 1h-6l-2 4v3l-4 3-3 2-4 1h-4l-3-2-5-2v3l-3 2-3 1-2 3v4l-8 4-2 4 1 6 3 6v3l-3 2-2-3h-5l-5-1-1 2-8 1-4 1-4 2-3 3h-6zm-200 147-2-3h-3l-3-1 3 3 1 2 3 1 1-1zm409 32v-4l-3-4 1-3v-5l1-6-2-2h-4l2-7-2-4 1-6 3-3 2-4 3 2 6-2 5 5 5 1 6 6-2 3v13l2 7 5 8 4 3 4 2 2 4 1 6-5 6-2 8-4 4v5l-2 3-3 3-5-1-1-5-4-3-8-2-5-5-2-4h3v-3l-3-6 1-5 1-2z"/>
  </g>
  <g transform="translate(-4 159)" stroke-width="1.61">
   <path d="m1250 390c-3-2-5-4-5-6l-4 1-1 6c-9 0-16 4-22 2-2 3-2 3-1 8 2 12-12 19-23 23-10 5-18 1-27 2-7 2-12 0-18 3-7 3-13 0-16 0l-9 4c-6 0-12-5-17-8-6 2-6 7-11 6-4 1-9-7-11-13-5 2-10 7-16 4-4-2-6-7-7-11l-5-2c-8 12-23 1-37 7s-31 17-43 20c0 4 0 6-3 9-17 6-33-1-51 1l-2 6c3 3 4 5 7 6 3 2 7 2 9 0v4c-11 2-12 2-20 7v1h1l5 1h2c-2 7-32 6-32 7-7 1-7 14-12 12-3-1-9 2-13 2l-7 9 2 4-3-2c-2 2 2 2-2 3 0 5 11-6 14 2l-6 7c4 5 7 5 5 12h5l1 2c-2 2-3 5-7 6v3c2 1 2 0 3 4h7c-2 6-9 4-12 7-3-3-2-7-4-10l-3-2c-1 6 2 6 2 10-1 2-1 2-4 2v1l7 5 2-3c4 1 13 6 16 9v6l-4 4 3 1v8l1 1 4-2c4 2 3 4 6 4l-2 7-5-2-1 2-1 3c6-1 17 0 26-2v1c-2 3-4 3-4 7h-6c2 2 5 1 8 0l1 1v1l-3 3h1c2-2 3-2 2-7 6-2 9 3 14 3 4 3 2 1 7 0 4 2 4 5 5 11 13 13 22-2 33 2 2-5 4-12 1-17l1-4c20-8 47 14 57 24 20-6 41-15 44-34 7-1 15 3 22 7l6-2c2-5 5-10 11-13v-1c4 4 4 4 5 11-3 5-4 3-4 9-2 1-1 0-2-2-1 3 0 2-3 4 2 3 6 7 6 13 5 0 5-2 9-4l-1-6c1-3 3-4 7-4-3-5-6-12-3-18l1-2c5 0 8 0 10 4 8-2 23-5 23-12 3 0 3-2 8-2s8 5 12 5c9 2 22-4 28-8l21-16c12-4 34-1 32-15 3 2 6 2 7 7 6-2 6-6 7-11 4 0 26 1 30-1 2-1 1-4 5-5 7 2 3 5 6 9l1 1c2-4 5-9 10-9-1-7-9-6-8-17l-10-3c-2-5 0-12 2-17h-4c-3-10-9-27-15-31l-1-2c4-2 4-2 8-1 2-5 1-12 4-16l-3-3-3-1c-5-1-12 3-19 0-5-4-4-14-3-22-4-5-9-7-10-13l-5 1-9-6"/>
   <path d="m895 437-3-1-3 1-3 2-7 2-8-2-4 3-8 5-2 3 2 2 4 2v6l-3 5v13l-1 4 4-1h8l-1 3-7 2-3 1v8l2-1 3-4 3-3 10-6 5-5 3-6 6-4h5l7-8 4 2 4-5 19-3 1-5-14-3h-8l-6-2-5-1-4-4"/>
  </g>
 </g>
 <g id="cities" transform="translate(-25 -255)" stroke="#006ea1" fill="#02afff" stroke-linecap="round">
  <circle id="hamburg" cx="496" cy="557" r="12"/>
  <circle id="berlin" cx="553" cy="586" r="12"/>
  <circle id="nuremburg" cx="516" cy="670" r="12"/>
  <circle id="munich" cx="532" cy="712" r="12"/>
  <circle id="frankfurt" cx="467" cy="651" r="12"/>
  <circle id="luxembourg" cx="418" cy="667" r="12"/>
  <circle id="eindhoven" cx="413" cy="624" r="12"/>
  <circle id="amsterdam" cx="406" cy="587" r="12"/>
  <circle id="thehague" cx="395" cy="595" r="12"/>
  <circle id="rotterdam" cx="397" cy="610" r="12"/>
  <circle id="antwerp" cx="391" cy="622" r="12"/>
  <circle id="brussels" cx="389" cy="636" r="12"/>
  <circle id="london" cx="313" cy="607" r="12"/>
  <circle id="dublin" cx="198" cy="521" r="12"/>
  <circle id="porto" cx="76" cy="886" r="12"/>
  <circle id="lisbon" cx="43" cy="951" r="12"/>
  <circle id="stockholm" cx="624" cy="359" r="12"/>
  <circle id="oslo" cx="512" cy="347" r="12"/>
  <circle id="budapest" cx="686" cy="726" r="12"/>
  <circle id="bratislava" cx="646" cy="706" r="12"/>
  <circle id="vienna" cx="620" cy="710" r="12"/>
  <circle id="warsaw" cx="702" cy="574" r="12"/>
  <circle id="riga" cx="718" cy="430" r="12"/>
  <circle id="helsinki" cx="722" cy="316" r="12"/>
  <circle id="tallinn" cx="719" cy="353" r="12"/>
  <circle id="vilnius" cx="753" cy="487" r="12"/>
  <circle id="prague" cx="580" cy="656" r="12"/>
  <circle id="zurich" cx="470" cy="745" r="12"/>
  <circle id="paris" cx="358" cy="704" r="12"/>
  <circle id="madrid" cx="175" cy="919" r="12"/>
  <circle id="barcelona" cx="312" cy="919" r="12"/>
  <circle id="rome" cx="552" cy="892" r="12"/>
  <circle id="zagreb" cx="636" cy="787" r="12"/>
  <circle id="ljubljana" cx="603" cy="777" r="12"/>
  <circle id="lyon" cx="390" cy="790" r="12"/>
  <circle id="marseille" cx="398" cy="862" r="12"/>
  <circle id="bordeaux" cx="279" cy="812" r="12"/>
  <circle id="turin" cx="452" cy="816" r="12"/>
  <circle id="milan" cx="484" cy="798" r="12"/>
  <circle id="copenhagen" cx="543" cy="492" r="12"/>
  <circle id="valletta" cx="626" cy="1084" r="12"/>
  <circle id="athens" cx="839" cy="988" r="12"/>
  <circle id="sofia" cx="802" cy="850" r="12"/>
  <circle id="bucharest" cx="850" cy="779" r="12"/>
  <circle id="nicosia" cx="1073" cy="1062" r="12"/>
 </g>
</svg>
