<?xml version="1.0" encoding="UTF-8" standalone="no"?>
<svg
   xmlns:dc="http://purl.org/dc/elements/1.1/"
   xmlns:cc="http://creativecommons.org/ns#"
   xmlns:rdf="http://www.w3.org/1999/02/22-rdf-syntax-ns#"
   xmlns:svg="http://www.w3.org/2000/svg"
   xmlns="http://www.w3.org/2000/svg"
   xmlns:sodipodi="http://sodipodi.sourceforge.net/DTD/sodipodi-0.dtd"
   xmlns:inkscape="http://www.inkscape.org/namespaces/inkscape"
   viewBox="0 0 2455.1188 1163.1706"
   width="2455.1189"
   height="1163.1707"
   overflow="hidden"
   version="1"
   id="svg278"
   sodipodi:docname="europe-inkscape.svg"
   inkscape:version="0.92.3 (2405546, 2018-03-11)"
   style="overflow:hidden">
  <metadata
     id="metadata284">
    <rdf:RDF>
      <cc:Work
         rdf:about="">
        <dc:format>image/svg+xml</dc:format>
        <dc:type
           rdf:resource="http://purl.org/dc/dcmitype/StillImage" />
        <dc:title></dc:title>
      </cc:Work>
    </rdf:RDF>
  </metadata>
  <defs
     id="defs282" />
  <sodipodi:namedview
     pagecolor="#ffffff"
     bordercolor="#666666"
     borderopacity="1"
     objecttolerance="10"
     gridtolerance="10"
     guidetolerance="10"
     inkscape:pageopacity="0"
     inkscape:pageshadow="2"
     inkscape:window-width="960"
     inkscape:window-height="1016"
     id="namedview280"
     showgrid="false"
     inkscape:zoom="0.32379611"
     inkscape:cx="341.56056"
     inkscape:cy="677.53906"
     inkscape:window-x="0"
     inkscape:window-y="27"
     inkscape:window-maximized="0"
     inkscape:current-layer="cities"
     fit-margin-top="20"
     fit-margin-left="20"
     fit-margin-right="20"
     fit-margin-bottom="20" />
  <g
     inkscape:groupmode="layer"
     id="countries"
     inkscape:label="Countries"
     style="display:inline"
     transform="translate(20.033844,19.973397)">
    <g
       style="fill:#c5c5c5;stroke:#757575"
       id="g6">
      <path
         d="m 299,452 h -1 l -1,2 -1,2 h -2 l -1,2 -3,1 3,3 1,5 2,1 3,-1 2,-2 h 4 l 2,-1 2,2 1,2 v 2 h -1 v 4 h 2 l 2,-1 1,-2 h 3 l 1,-1 v -3 l -1,-2 1,1 1,2 1,-2 -1,-3 -1,-1 h -3 l 2,-2 v -4 l -1,-3 -1,-2 -2,-1 -1,-1 h -3 l -2,1 h -2 l -2,1 v -1 l 3,-2 v -1 l -2,-2 h -2 v 1 h -1 v 3 l -1,1 v 1 l -1,1 m 25,-51 v -1 1 l -1,1 -1,2 -1,-1 -2,1 v 2 l 2,1 v 2 l 1,1 v 1 l 2,1 h 2 l -1,1 v 1 h 2 l 1,-2 v -1 h -1 l -1,-1 -1,-1 1,-2 -1,-2 v -3 l -1,-1 m -6,27 v -1 1 l 1,1 h 3 l 1,-1 1,1 1,-1 v -1 l -1,-1 -2,-3 v -1 h -1 l -1,1 v 1 l 1,1 v 2 l -1,1 h -2 m 6,6 v -1 h -1 l -1,2 h -1 v 2 l -2,1 v 1 h 1 l 1,-2 2,-2 v -1 h 1 m -6,3 h -3 l -1,2 v 1 l 1,-1 h 1 v 3 l 2,-1 v -4 m 9,6 h -1 v 5 h 1 l 1,-3 1,-2 h -2 m 5,27 -3,3 -3,3 h 2 l 3,-1 1,-1 1,-1 v -2 l -1,-1 m -2,24 1,-1 -1,-1 -1,-1 -1,-1 2,4 m 29,57 -1,-1 h -1 l -1,1 -1,1 h 1 l 1,1 h 2 l 1,-1 v -1 h -1"
         transform="matrix(3.36,0,0,1.54,-680.3,-171.8)"
         id="path2"
         inkscape:connector-curvature="0" />
      <path
         d="m 314,518 3,-1 h 3 l 7,-4 2,-3 1,-1 -1,-1 v -3 l 1,-3 v -2 h -3 l -3,2 -1,-1 6,-4 3,-2 3,-2 4,1 3,1 h 2 l 1,-1 1,-1 h -1 v -3 l 1,-2 2,-1 -2,-1 1,-3 2,-1 v -2 l 1,-1 1,-2 h -1 l -2,1 -2,1 h -1 l -1,-2 v -1 h -1 v -2 l -2,-2 v -2 l 1,-1 1,-2 1,-2 1,-1 2,-1 h 1 l 1,-1 h -1 l -3,-1 -2,1 h -2 l -2,1 h -3 l -1,-1 h -1 v 1 l -1,2 -1,-1 -2,-2 -1,-1 h -2 v 3 l -1,-1 -1,-5 1,-1 1,2 v -2 l 1,-2 2,-2 1,-3 2,-2 v -2 l -1,-1 v -4 l 1,-1 1,-1 h 1 v -1 l -1,-1 h -1 l -1,-1 v 3 h -1 l -1,-1 -1,1 h -1 v -2 l 2,-3 1,-1 -3,2 -1,1 v 5 l -1,1 -1,2 -2,2 -1,2 -1,1 h -1 v -1 l 2,-3 1,-1 1,-2 1,-1 v -2 h -1 v -2 l 1,-2 1,-1 v -2 l 1,-1 v -1 l 2,-2 v -1 l 2,-2 v -1 h -1 l -2,1 -2,1 -1,-1 -1,-1 v -2 l -2,-1 1,-1 h 3 v -3 l 1,-1 1,-1 1,-1 v -2 h 1 l 1,-2 h -1 l 1,-1 1,-1 h -4 v -1 l 1,-2 h 2 l -1,-1 v -3 l 1,-1 1,-1 h 2 l 1,-1 h 1 l -1,-2 v -1 h 1 l 1,-3 h 2 v -1 l 1,-2 v -1 l 2,-2 h 2 l 2,1 2,1 h 11 l 2,1 -1,2 v 3 l -3,1 -2,3 -4,1 -3,2 -1,1 3,1 h 1 l -2,2 h -3 l -1,1 h 2 v 1 l -1,1 1,1 2,-1 7,-2 2,2 h 5 l 2,1 h 5 l 1,1 v 5 l -1,1 -1,1 -2,1 v 2 l -1,1 -1,2 v 2 h -1 v 1 l -1,1 -2,2 v 1 l -2,2 -1,1 -2,-1 v 1 l 1,1 1,2 1,1 -2,1 -3,-1 -1,1 -2,1 v 2 l 1,1 h 4 l 1,-1 1,1 2,1 2,1 2,2 1,2 1,3 2,2 v 10 l 1,3 1,3 v 3 l 1,1 3,1 2,1 2,3 1,3 1,2 v 3 l 2,3 1,2 v 4 l -3,-1 -1,-1 -1,-2 -1,1 2,2 1,1 1,1 1,1 1,1 1,2 v 4 l -1,1 -1,2 -1,1 -2,2 h 2 l 1,1 1,1 2,-1 1,-2 h 8 l 1,1 2,2 2,3 v 7 l -2,5 -2,2 h -3 v 1 l 1,1 -1,1 -2,1 -1,-1 h -2 l -1,1 1,1 1,1 -2,1 v 1 h -3 l 1,2 v 2 l 3,1 h 6 v 1 l -1,3 -2,1 -3,2 -1,1 h -1 l -3,1 h -7 l -3,-1 h -2 l -7,1 -1,-2 h -2 l -2,-1 -1,-1 v 1 l -1,1 -1,1 h -4 l -3,-1 v 2 l -1,1 -2,-2 -2,1 -1,1 -1,-1 -1,-1 -2,-3 h -3 l -3,1 h -2 l -2,5 -2,2 h -1 l -1,-1 -1,-1 -3,-1 -2,-1 h -3 l -2,-1 -2,3 -3,1 -1,1 -1,1 -1,-1 h -1 l -1,-1 -1,-1 h -1 l -1,2 -1,-1 2,-2 2,-1 2,-1 2,-1 10,-7 2,-3 3,-1 1,-2 h 7 l 4,1 h 3 l 1,-1 1,-1 2,-2 2,-2 1,-2 v -1 l -3,2 h -2 l -2,1 -1,1 -1,1 h -2 l -2,-1 -1,-2 -1,-2 v -1 l -1,-1 h -1 l -2,2 -2,-1 -1,-1 v -3 l -1,-1 -2,1 -2,1 -2,1 -1,-1 h -1 v -2 l -1,-1 v -2 z m 47,-134 1,-1 -1,-1 h -1 l -1,1 1,1 h 1 m 6,-2 -1,-1 h -3 v -2 l -1,-2 -1,2 v 2 h 1 l 1,1 h 1 l 2,1 1,-1 m -52,18 h 1 l -1,-1 h -4 l 1,1 v 1 h 2 l 1,1 v -2 m 13,-15 h -1 l -2,1 -2,1 -1,1 v 2 h -2 l -1,-2 -1,2 v 3 l 1,2 -2,1 v 2 l 2,-1 1,-1 h 1 l 1,-1 h 2 l 1,-1 v -3 h 2 l 1,-1 h -1 v -1 l 1,-1 v -3"
         transform="matrix(3.36,0,0,1.54,-680.3,-171.8)"
         id="path4"
         inkscape:connector-curvature="0" />
    </g>
    <g
       style="fill:#c5c5c5;stroke:#757575"
       id="g12">
      <path
         d="m 3208,1601 c -23,17 -68,1.9 -111,10 -42,8.1 -95,24 -130,29 -1.2,5 -0.5,7.7 -8.9,12 -52,8.5 -99,-1.7 -157,1.7 l -3.7,8.5 a 68,68 0 0 0 21,9 c 9,2.5 21,1.8 25,-0.5 l 2.3,0.9 -0.5,5.2 c -35,2 -38,2.5 -62,9 0,0.4 0.2,0.7 0.3,1 l 4.4,0.8 15,1.1 c 1.4,0 2.7,-0.2 4,-0.3 -4.4,10 -96,9 -96,10 -21,2 -20,19 -36,17 -8.8,-1.6 -28,3.2 -38,3.5 -7.6,4.3 -15,8.6 -23,13 l 7.7,4.7 -9,-2.5 c -5.2,3.2 5.6,3.1 -6,4.5 -1.2,7.7 33,-9 43,2.7 -9,2.4 -13,5.5 -18,9.4 11,8 19,8.1 13,17 l 14,0.2 5,2.8 c -6.4,4 -9,7 -22,8.7 l -0.9,4.2 c 8.3,1.5 7.6,1 10,6.6 a 62,62 0 0 0 21,-0.3 c -3.7,8.9 -26,5.3 -34,9.4 -9.2,-4 -6.7,-10 -14,-14 -4,-2.5 -1,-1.4 -7,-2.7 l -2,0.1 c -1.7,8.4 6,7.7 8.2,14 -4.4,1.7 -4.8,2.1 -14,2.9 l 0.3,1 21,6.9 7,-4.6 c 11,1.1 40,8.6 49,12 l 0.6,9.3 -15,5.1 11,1.4 1.3,11 2.6,1.9 c 3.9,-1 7.7,-1.9 12,-2.8 10,3.3 8.7,5.7 18,6.1 l -5.4,9.6 -15,-3.2 -5.2,3.4 -1.1,3.2 0.3,1 c 17,-2.5 49,-1.2 78,-2.9 l 0.3,1 c -6.1,4.3 -13,3.4 -14,10 h -17 c 6.5,2.5 14,1.1 23,-0.4 l 2.6,2 0.3,1 -7.2,3.5 c 0,0.4 0.2,0.7 0.3,1 l 2,-0.1 c 6.8,-3 8.2,-3.6 7.5,-9.8 17,-2.8 26,3.6 42,3.5 10,4.3 6,2.2 19,-0.2 12,2.8 13,7 15,17 41,17 67,-2.9 102,2.8 4.5,-7.8 9.8,-18 3.3,-24 l 2.3,-6.3 c 60,-11 143,20 173,33 60,-7.8 123,-21 133,-47 22,-1.9 46,3.7 67,9.2 5.9,-1 12,-2 18,-3.2 4.5,-6.9 15,-14 32,-19 h 2 c 10,5 12,5.4 15,15 -9.1,6.5 -14,4.2 -13,13 -5.4,1.6 -3.3,-0.7 -7,-2.8 -2,4.4 1,2.5 -7,4.6 6.5,5.1 16,11 18,20 14,-0.6 14,-3 25,-6.8 l -2.3,-8 c 4.6,-4 9.8,-5 23,-5.7 -10,-6.2 -19,-16 -9.5,-25 0.4,-1 0.8,-2 1,-3.2 15,0.1 25,0.4 33,6.2 12,-1.3 29,-3 43,-6 v -205 l -5.2,0.9 c -22,4 -40,0.6 -48,0.2 -5,1.7 -22,4.2 -27,5.9 -19,-0.2 -36,-7.5 -52,-11 -18,2.5 -19,9.4 -34,8.5 -13,1.6 -27,-11 -34,-19 -14,3.4 -30,11 -49,6.4 -12,-2.6 -18,-9.7 -20,-16 -3.6,-0.5 -13,-2.5 -16,-3 z"
         transform="matrix(0.7,0,0,0.68,-31.8,-230.1)"
         id="path8"
         inkscape:connector-curvature="0"
         style="stroke-width:3.29999995" />
      <path
         d="m 752,687 -2.2,-1.1 -1.9,0.6 -2.6,0.9 -3.5,1.6 -5.1,-1.6 -3,2.6 -5,2.7 -1.3,1.8 3.9,2.7 0.1,3.3 -1.9,3.2 0.3,8 -1.4,3.3 3,-0.8 2,-0.3 3.4,0.1 -1.5,1.5 -3.2,1.1 -2.3,1.4 -0.3,1.4 v 3.1 l 1.7,-0.6 1.5,-2.4 2,-1.6 2.9,-1.8 2.8,-1.8 3.9,-4 1.9,-3.6 4,-1.7 2.4,-0.5 4,-4.4 3.7,0.2 1.6,-2.2 12,-2.4 0.7,-2.9 -9.1,-1.8 h -4.7 l -4.1,-0.9 -3.2,-1.6 -1.2,-1.7"
         transform="matrix(3.36,0,0,1.54,-680.3,-171.8)"
         id="path10"
         inkscape:connector-curvature="0" />
    </g>
    <path
       style="fill:#c5c5c5;stroke:#757575;stroke-width:2.29999995"
       d="m 983,793.8 3.3,1.5 3.4,1.5 v 1.6 l -3.4,1.5 3.4,3 -3.4,1.6 h -10 l -3.4,1.6 3.3,3 3.4,3.1 -3.4,1.6 -16.8,-1.6 h -10 l -3.4,-3 -6.7,-1.6 v 4.6 l -10.1,7.7 v 3.1 l -3.4,1.6 -6.7,-1.6 -3.4,-3 -10,-3.1 -3.4,-4.7 v -3 l -10,3 -3.4,3.1 v 3 l -3.4,1.6 -6.7,1.6 -3.4,1.5 h -16.8 l -6.7,1.6 H 838.5 V 823 l -3.4,-1.5 -3.4,-1.6 -3.3,-1.5 v -7.7 l -3.4,-1.5 h -13.4 l -3.4,3 -3.3,3.1 -6.8,1.6 -3.3,-1.6 v -4.6 l 3.3,-3 V 803 l 3.4,-1.5 3.4,-1.6 6.7,-1.5 3.3,-4.6 6.8,-3.1 3.3,-1.6 6.7,-4.6 6.8,-3 -3.4,-1.6 6.7,-3 3.4,1.5 h 10 l 3.4,-1.6 6.7,-1.5 6.8,1.5 h 3.3 l 13.5,-1.5 h 10 l 20.2,-1.6 h 6.7 l 6.7,1.6 10.1,1.5 6.7,1.6 v 3 l 6.8,1.6 3.3,3 -3.3,4.7 10,1.5 v 3 l 10.1,1.6 z"
       id="path14"
       inkscape:connector-curvature="0" />
    <path
       style="fill:#c5c5c5;stroke:#757575"
       d="m 600,208 3,4 v 9 l 1,3 2,3 1,2 1,2 h -1 v 2 l -1,-1 -2,-1 -4,1 v 2 h -1 l -1,-1 -1,-1 -1,1 v 1 l -1,-1 h -1 v 4 h -1 l 1,1 v 1 h -1 l -1,-1 -2,-1 1,1 2,2 v 1 h -2 l 1,1 v 1 l -1,1 -1,-1 h -1 v 2 l -1,2 1,1 1,1 v 3 l -1,1 v 2 l -1,1 v 1 l -1,1 1,1 1,1 -1,1 1,1 2,1 v 1 l 1,1 1,1 h -1 l -1,3 v -3 l -1,1 -1,4 v 1 l -1,3 v 1 l -1,3 -1,1 -1,3 h -1 l -1,1 h -1 l -1,1 -1,2 -1,2 -1,-1 -2,2 -1,2 -1,2 h -3 v 3 h -1 v 2 l -1,1 v 1 l -1,1 h -1 l 2,1 -1,1 v 1 h -1 l -1,2 -1,-1 h -1 v -2 2 l 1,1 -1,4 1,1 -1,1 -1,1 -3,-1 v 3 l 1,1 2,2 v 1 l -1,2 v 4 l 1,4 v 2 l -3,-1 1,1 -1,1 v 2 l 1,1 v 6 l 1,6 1,1 v 4 h 1 l 1,3 -1,2 -2,3 -2,1 -1,2 -2,1 -2,1 2,1 2,-1 1,-1 3,-2 1,-2 1,-2 1,-4 v -1 h 1 l 1,2 1,-1 h 2 l 1,2 v 2 l 4,1 1,1 h -2 l 1,1 1,2 3,1 1,2 -1,1 v 4 l -1,1 -1,2 -1,2 -5,4 h -2 l -1,-2 v -1 l -1,1 -3,-1 v 1 l -1,1 -2,-2 h -2 l -2,1 -1,-1 v 2 l -1,1 h 1 l 2,-1 5,2 1,1 1,1 1,-1 2,1 6,-3 3,-1 v 1 l -1,1 v 1 h -1 l -1,-1 1,3 -3,3 -2,3 h -3 l 2,-2 -2,-1 -1,3 -1,3 -1,1 h -1 l -2,1 1,2 h -4 l -4,1 5,1 3,1 -1,1 -2,1 -2,-1 v 1 l 2,1 1,1 v 1 l 1,3 1,1 -2,2 1,2 h -2 v 2 l 1,1 1,2 -1,2 1,1 v 3 l -1,5 v 4 l -1,-1 v 7 l -1,4 -1,5 -1,2 -2,2 h -7 l -2,2 -2,1 -1,1 -2,4 1,3 -1,3 -1,1 h -4 l -4,2 -5,-1 h -3 v -1 h 1 v -3 l 1,-1 -1,-2 -1,-2 -1,-3 -1,-3 -1,-4 v -3 h 3 l 1,-1 v -2 l -1,-2 -2,-1 -2,-1 -1,-2 -1,-2 v -3 l -2,-3 h -1 v -2 l -1,-3 1,-2 v -3 l -2,1 v -6 l -3,-1 1,-2 1,-1 h -2 l 1,-2 -1,-1 v 2 l -1,1 v -3 h -1 l -1,-1 v -2 l -1,-3 v -6 l 1,-2 v -1 l 1,1 v 4 -2 l 1,2 1,-2 2,-7 -1,-3 -1,-3 3,-5 v -2 l 4,-3 1,-2 v -5 l 1,-6 -2,-6 -2,-2 v -2 l 3,-1 2,-2 v -8 l -4,-2 -2,-3 v -12 l -1,-3 -1,-3 1,-1 v -8 l 1,-2 v -1 l -2,-2 v -7 l 1,-3 2,-3 2,-2 2,-2 4,-2 3,1 h 2 l 1,-3 v -5 l -1,-2 -2,-2 -1,-2 3,-6 2,-6 1,-9 v -4 l -1,-6 1,-1 h 2 l 2,-3 1,-2 v -3 l 1,-3 3,-5 v -2 l 2,-2 1,-2 v -2 l -1,-2 -2,-3 1,-2 1,-3 1,-2 v -4 l 4,-5 1,-1 2,1 2,2 1,-3 1,-5 -1,-3 v -2 l 2,-1 h 5 l 5,1 h 2 v -2 l -1,-1 v -5 l 1,-1 v -1 l -1,-2 -1,-2 h 3 l 1,-1 1,1 2,2 4,3 5,4 h 5 l 3,2 4,5 2,3 v 5 l 1,3 1,2 v 1 l 1,2 v 3 l 1,3 z m -28,211 v 6 l 1,2 v 1 h 1 v 3 h 1 v -2 l 3,-3 v -3 h 1 v -1 l -1,-1 1,-3 v -3 h 1 l 1,-1 v -3 h -1 l -1,1 -2,-1 -4,6 z m -11,33 1,-2 1,-3 v -4 l 1,-4 1,-3 v -4 l 1,-3 v -2 l -1,1 v 2 l -1,2 v 5 l -1,2 -2,4 v 8 z m -187,256 1,1 2,-1 -1,-1 3,2 2,1 h 14 l 2,1 1,1 1,2 -2,1 v 4 l -2,3 -5,3 -6,2 -3,3 -5,1 -6,2 -6,1 -3,4 -1,2 -2,2 -4,3 -5,7 -3,3 -3,3 -2,3 v 1 l -1,1 1,2 v 3 l 1,2 1,1 1,1 2,1 1,2 -2,2 -3,2 -3,2 -2,1 -2,2 -2,2 -1,3 -1,2 -1,2 v 2 h -9 l -7,4 -1,2 -1,3 -2,2 -2,1 h -2 l -3,-1 -5,1 -3,-1 -5,-2 h -4 l -4,-1 h -10 l -4,2 h -4 l -3,1 -3,2 -2,1 -1,1 h -1 l -1,1 h -1 l -1,-1 -3,-1 -3,-3 -2,-3 v -5 l -2,-2 v -5 l -2,-3 -4,-3 -2,-1 h -2 l -4,-1 v -5 l 1,-3 2,-2 5,-2 2,-2 v -3 l -2,-3 v -4 l 1,-3 3,-3 1,-2 v -2 l -2,-6 v -4 l 3,-1 h 3 l 3,-2 1,-3 -1,-3 v -2 l 3,-3 1,-4 1,-3 1,-3 3,-2 4,-2 2,-3 1,-2 -2,-3 v -3 l -4,-2 -5,-1 -3,1 -4,-1 -2,-1 h -4 l -1,-2 v -3 h -8 l -3,2 v -1 l 1,-2 1,-3 3,-2 h -3 l 2,-2 -2,-2 2,-3 h -1 l -2,-1 1,-2 -1,-2 -2,-2 2,-3 4,-2 h 3 l 4,1 3,-1 v -2 l 2,-2 h 6 l 3,1 3,3 5,2 5,1 5,1 3,-1 3,1 4,2 3,1 3,1 5,3 4,1 h 9 l 2,1 5,2 h 2 l 6,1 3,2 4,1 3,-1 v 1 l 2,2 1,2 2,2 2,1 3,1 2,2 2,2 7,3 4,2 4,1 h 2 l 3,-2 h 2 l 2,1 3,3 2,2 z m -6,63 v 2 l -2,1 -1,1 -2,-1 1,-2 3,-1 z m 36,-14 1,-1 h 4 v 1 l 1,1 v 2 h -2 l -2,-1 z m -10,-1 v 2 l -1,1 v 1 l 3,1 1,2 -2,4 -3,2 -4,-3 -1,-2 h -2 l -2,1 -1,-2 3,-3 4,-2 3,-1 z"
       transform="matrix(3.36,0,0,1.54,-680.3,-171.8)"
       id="path16"
       inkscape:connector-curvature="0" />
    <g
       style="fill:#c5c5c5;stroke:#757575"
       id="g22">
      <path
         d="m 568,627 h -5 l -1,2 h -2 l -2,-1 -2,1 -2,1 -1,1 v 1 l -2,1 v 1 h -3 l -4,-1 -4,1 -2,1 -1,1 v 3 l 1,1 1,-1 -1,2 v 2 l 1,1 1,2 v 1 h 2 l 1,2 h 1 v 2 l -1,1 h -1 l -1,-1 -2,2 1,2 4,-2 h 4 l 7,1 h 4 l 8,-9 3,-6 5,-3 h 4 l 5,-1 -3,-4 -3,-1 -2,-3 -2,-3 h -4 l -1,1 v 1 z m 13,-28 v 1 h 2 l 2,1 4,3 2,1 2,-1 h 3 l 1,-1 h 3 l 1,-2 1,-3 4,-1 3,-2 3,-2 h 4 l 3,-2 3,-1 v -3 l 3,-2 4,-1 3,-1 h 4 l 4,2 3,-1 v -8 l 1,-5 v -1 h -2 l -3,-2 -2,-1 -3,-1 h -3 l -2,1 -3,1 -1,2 -3,-1 h -4 l -1,3 -2,1 h -2 l -2,-2 -3,-2 -2,-1 -2,1 -2,1 -4,-1 -2,2 h -1 v 1 l -1,1 -4,4 -1,1 v 2 l -2,3 v 1 l -3,2 -3,-1 -1,1 -2,1 -1,2 v 3 l 2,5 z m 91,82 -4.4,-3.5 -3.1,-3.1 -1.5,-5.2 -0.3,-5.3 3.9,-2.7 -2.6,-0.2 -2.7,-3.5 2,-3.2 -2.3,-2.4 -2.4,2.8 -7.3,-1.2 -4.3,-2 -1,-3.8 -1,-2.2 -2,-0.9 -2.8,-0.1 -2.8,-3 -1.8,-4.1 -1.9,-2.5 -2.9,-2.5 -3.7,-1 -1.2,-0.6 0.7,-0.2 -0.8,-0.2 -1.3,-1.2 -2.8,1.5 -2.8,0.6 -3.4,3 -3.4,0.7 -1.4,1.6 1,8 5.4,5.3 3.4,2.3 3,-0.4 -0.6,2.8 -3.2,2 -0.1,10 5.5,7 1.3,4 -1.7,4.1 c 5,1.8 8.6,6 13,7.8 -3.2,1.6 -1.3,4.6 -1.6,7.8 h 0.1 l 3.3,2.8 2.8,0.8 4,3.6 -1.5,1.7 6.2,-1 4.7,-6.6 9.3,-1.6 4.3,-1 -1,-5 2,-7 z m -150,-2 a 2,2 0 0 0 -1.9,1.9 2,2 0 0 0 1.9,1.9 2,2 0 0 0 1.9,-1.9 2,2 0 0 0 -1.9,-1.9 z"
         transform="matrix(3.36,0,0,1.54,-680.3,-171.8)"
         id="path18"
         inkscape:connector-curvature="0" />
      <path
         d="m 655,590 3,-1 5,-1 h 5 l 3,-2 4,-1 3,2 h 2 l 3,-3 4,-2 4,-1 6,-6 3,-1 8,4 2,2 2,4 4,4 5,4 3,4 3,6 2,4 v 4 l 2,3 1,3 1,3 v 1 l 2,-1 2,2 2,1 2,-1 2,-2 4,-2 2,-1 2,-1 h 1 l 1,2 v 1 l 1,3 1,3 -1,3 -3,1 -2,3 -1,3 -1,2 -1,-2 1,-2 1,-3 -1,-1 v -2 h -2 v 3 l 1,3 -1,3 1,3 -1,2 2,4 v 2 l 1,3 -4,2 -6,-2 h -8 l -2,-1 -4,1 -6,4 -5,3 -4,5 -3,2 h -12 l -10,3 h -8 l -4,1 -3,-2 1,-3 -3,-1 h -3 l -3,-4 2,-3 -2,-2 -2,3 -3,-1 h -5 l -4,-3 -1,-3 -1,-3 h -2 l -3,-1 -2,-2 -2,-5 -2,-2 -3,-3 -4,-1 h -1 1 v -1 l 2,-1 5,-2 3,-2 1,-5 2,-3 1,-4 v -3 l 3,-3 v -3 l 1,-3 v -2 l 1,-2 3,-3 h 2 l 1,-2 1,-1 z M 204,746 v 1 l 2,2 1,3 v 2 h 6 v 1 l -1,1 v 1 l -1,3 -2,3 v 4 l -1,2 v 2 l -1,2 -3,3 -1,3 1,2 h 7 l 3,1 2,2 4,1 2,-1 3,-1 h 2 v -5 l 1,-3 3,-2 4,-2 2,-2 v -3 l -2,-3 v -4 l 1,-3 3,-3 1,-2 v -2 l -2,-6 v -4 l 3,-1 h 3 l 3,-2 1,-3 -1,-3 v -2 l 3,-3 1,-4 1,-3 1,-3 3,-2 4,-2 2,-3 1,-2 -2,-3 v -3 l -4,-2 -5,-1 -3,1 -4,-1 -2,-1 h -4 l -1,-2 v -3 h -8 l -3,2 v 12 l -1,2 -1,3 -1,2 -1,3 -2,2 -2,4 -1,4 -1,2 -2,3 -1,2 -3,2 -2,3 -2,1 -1,5 z m 365,-268 2,-1 2,-2 4,-2 h 6 v 1 h 4 l 2,-2 v 1 l -3,2 v 1 h 3 l 1,1 2,1 h 14 l 2,1 h 3 l 3,-1 6,-3 3,-1 5,-2 5,-1 7,2 2,2 1,4 1,5 3,8 1,4 -1,3 -2,4 -3,3 -1,3 2,2 3,2 1,6 v 2 l 2,3 1,2 3,5 3,2 v 2 l 2,3 v 3 l -4,4 -3,4 -3,5 -2,9 v 3 l 1,3 -2,1 h -3 l -3,-2 -2,-1 -3,-1 h -3 l -2,1 -3,1 -1,2 -3,-1 h -4 l -1,3 -2,1 h -2 l -2,-2 -3,-2 -2,-1 -2,1 -2,1 -4,-1 -3,-1 -3,-3 -2,-3 h -4 l -2,-1 v -4 h -7 l -2,-1 h -1 v 3 l -2,2 -2,-1 -2,-2 -2,-1 v -4 h -2 l -3,-2 -2,-1 h -4 l -1,-2 -3,-1 -1,2 -2,2 -1,-1 v -2 l 1,-3 v -6 h -1 l -2,-2 -1,-2 -1,-3 v -4 l -1,-3 -1,-2 v -5 l -1,-2 -2,-1 -1,-1 v -4 l 1,-3 v -6 l -1,-1 -1,-2 v -2 l 2,1 h 1 l 1,-1 -1,-2 h -2 l 1,-2 2,-1 1,1 2,-3 2,-1 4,-1 6,-2 4,-1 1,-3 1,-1 3,-1 z"
         transform="matrix(3.36,0,0,1.54,-680.3,-171.8)"
         id="path20"
         inkscape:connector-curvature="0" />
    </g>
    <g
       style="fill:#c5c5c5;stroke:#757575"
       id="g30">
      <path
         d="m 638,136 -0.4,-0.2 -0.4,-1.3 -0.8,-2 -1,1 -0.6,-0.6 -1.1,0.3 0.6,1.6 0.5,1.9 h -0.7 l -0.2,-0.4 H 633 l -0.7,-0.8 0.6,1.6 -0.1,0.4 -1,-1 h -0.4 l -0.2,0.4 -1,0.3 -1,1.4 v -1.8 l 0.7,-1.2 0.8,-0.5 0.2,-0.8 -0.5,-0.9 -0.7,-0.6 -2.6,1.1 0.3,-0.9 -1,-0.6 -1.7,-0.4 -1.8,-0.9 h -1.7 l -0.7,-0.5 v -0.5 l -0.1,-0.6 3,0.1 0.9,-0.3 1,0.1 2.7,-0.2 1.9,-0.4 1,-1.8 0.9,-1 1.3,-2.4 1.3,-1.2 0.7,-1.2 -0.8,-1.6 -1.7,-0.3 -1.5,-1.4 -1.9,0.6 -1.2,-0.3 1,-1.1 -2.3,-0.5 -1,-1 -0.5,1.5 -0.7,0.6 -0.2,-0.8 -0.4,-0.6 -2.1,1.7 -0.3,-0.2 -0.2,-1.2 -0.4,-1.2 -0.6,-0.2 -0.5,-0.8 -1,0.8 -0.9,-0.2 -0.8,0.6 -0.6,2.4 0.2,1.6 0.5,2.5 0.8,1.9 -1.3,1.2 -0.4,-0.1 -0.9,-0.5 -0.6,0.2 -0.7,0.6 -0.4,-0.5 1,-1.6 0.5,-2.2 -0.8,-1 -1.5,1.8 -1,0.4 1.2,-2 -1.3,-1 0.4,-1.4 2.2,-0.3 0.4,-2 -0.4,-2.2 -1.4,0.3 -0.1,-1.2 -1,-0.4 -0.8,0.2 -1.2,1.6 -1.6,-1 0.3,2.1 -0.1,1.1 v 1.4 l -0.2,1.8 -0.5,1.5 v 1.1 l 0.5,1.4 -0.9,0.5 -0.1,1.3 0.5,2 -1.3,0.5 -1.3,2.4 -0.4,-2.1 v -2.5 l -1.5,-1.5 0.8,-1.5 -0.5,-2.6 -0.6,-1.4 -0.6,-0.1 -0.6,0.6 -0.4,1.8 -1.4,4.2 -0.6,2.7 -0.6,1 -0.3,2.2 -0.7,1.8 -0.2,2.9 0.8,-1 -1.7,4.8 -1,0.8 -0.5,-1.6 V 137 l 0.3,-1.3 0.6,-0.6 -0.3,-0.8 v -2.5 l -0.4,-1 0.2,-1 v -1.4 l 0.7,-2 1.2,-2.5 0.5,-2.2 -1.3,-0.4 -1.5,2 -1,0.5 -0.5,-1.6 -1,-0.3 -0.6,-0.7 -0.3,-1 -0.8,2 -0.5,-0.7 -1,0.2 0.4,1.9 0.1,1.2 -1.4,-0.3 h -0.3 l 1,1.7 1.2,0.9 0.3,0.5 -1.4,1.4 -0.7,1.7 0.8,1.6 -3.1,0.7 -1.2,2.2 -0.3,1.5 -1.2,2.4 v 0.8 l 0.5,1.1 v 1.6 l 0.2,1.9 -1,0.3 -0.8,-0.5 -0.2,-1.2 0.6,-0.7 -1.8,-0.2 v -0.6 l 0.6,-1 -1.4,-0.3 -2.7,0.4 0.6,1.6 -0.5,0.4 -1,-0.2 -0.2,-1 -0.6,-1.2 -0.4,0.5 -0.4,-1.2 -0.8,0.8 -0.5,-0.6 -0.4,0.8 0.3,2.3 -1,-1 -0.7,-1.3 -0.5,-0.5 0.5,3.4 2.3,1 0.8,-0.3 0.3,1.6 0.2,2.9 0.8,1.3 0.4,1.9 -1.1,-0.6 -1.5,-1.9 -2.7,-2.4 -1.1,-0.8 0.8,2.7 h -0.6 l -0.2,1.6 h -0.7 l -0.3,1 -0.5,-0.3 -0.2,-0.8 0.3,-1.6 -1,0.8 -0.6,1.5 -0.3,1.7 -0.7,0.5 0.5,2.2 0.5,0.6 -1.7,2.4 -0.5,3 -0.8,1.5 0.4,-1.4 0.4,-1.7 0.1,-1.5 -0.4,-3.3 -0.2,-2.5 -0.7,-2.7 -1.3,0.9 -0.5,1.9 -1,2.2 0.1,3.4 -0.3,2.9 -0.7,-4.1 -0.1,-1.8 -0.2,-1.4 -1,0.4 -2.2,0.6 -1,2.8 0.1,0.7 0.6,2.7 1.5,1.8 1.2,0.3 1.3,1.7 v 1.4 l -1,0.1 -1.1,-2.2 -1.5,-0.6 -1.6,-2.1 -1.1,-1 -1.6,0.6 1.2,2.2 2,1.6 -1.1,1.5 -1.2,-1 -0.5,1 -0.5,-1.7 -1,1 v -0.8 l 0.1,-2 -0.8,-0.7 -0.3,0.7 -0.4,2.6 v 1 l 0.3,1.2 0.7,0.9 -1.1,1 -2,1.2 -0.6,1 -0.3,2.8 0.6,0.9 1.1,-0.7 1,1.2 -1.6,0.2 0.6,1.3 0.2,0.9 -1.8,-0.4 -0.6,0.4 1.1,1.2 -0.6,0.8 -1.5,-0.5 -0.2,1.2 -1.1,-0.4 -2,1.2 -0.5,1.4 -0.8,0.7 -0.1,0.6 1.6,1 1.2,-0.8 0.7,-1 2.2,1.1 1.4,-1.4 0.5,0.4 0.6,1.2 -1.4,0.1 -0.5,1.2 v 2.1 l -2.4,-1 -1.3,0.2 -0.4,-0.8 -1.7,-0.3 -0.5,0.6 -1.3,1 -0.4,1 1.5,2.4 0.1,1.2 h -0.8 l 0.9,2 0.2,1.5 -1,-0.3 0.1,1.7 -1,0.3 -0.5,-1.6 -0.4,-2.5 -0.5,-1.5 -0.8,0.4 -0.4,2 -1.4,0.5 1.5,0.4 -0.3,0.8 -1,0.2 -1,1 -0.3,1.4 0.4,1.5 1.2,0.8 -1,0.7 0.7,0.8 -0.7,0.5 -0.5,1.9 -0.4,0.4 h -0.8 l 0.2,0.5 1.4,0.4 1.2,-0.4 1.4,-0.8 -1.7,2.4 -0.9,0.8 -1.5,-0.4 -1,0.1 -0.7,-0.6 -0.3,-1.1 -1,0.2 -1.5,1.6 -0.5,2.6 -1.2,1.4 v 1.4 h 0.8 v 2 l -1.3,0.6 -0.4,3 h -1 l -0.7,0.5 -1,0.1 -0.5,0.8 -0.3,0.3 -0.3,0.8 1,1.5 -0.6,0.8 -1.5,0.4 0.1,1.5 -1.7,0.4 0.4,0.8 -0.6,0.6 -0.2,1.4 1.9,0.3 -0.3,1 -1.2,0.8 -1,-0.6 v 0.3 l 0.2,2.3 1,1.3 0.5,-1.2 0.7,0.7 -0.2,1.4 -3,0.8 -0.6,0.6 v 2.4 l -1.3,1.2 -1.3,0.5 -0.7,2.3 1.4,-0.3 1,-1.5 1.6,-0.8 0.1,1.5 1,2 -3,-1 v 1.5 l 0.5,0.6 -0.9,1 -0.2,1 0.4,1.5 -0.5,0.3 -1,-0.5 -0.6,1.1 0.6,1.6 1,0.8 0.3,1.6 0.2,1.5 -1.1,-1.3 -1.2,-0.4 -1,-1.8 0.3,2.6 -0.6,1 -1,0.4 -0.3,1.7 0.8,0.3 0.8,-0.4 0.5,-1.5 0.3,0.6 v 2 l 0.3,1.2 -1,1 -0.7,-0.5 -1,-0.3 -0.7,1.4 -0.5,-0.5 h -0.5 l -1,1.8 -0.3,1.5 -1,0.9 -1.2,0.7 -0.7,3.4 1.5,-0.5 0.5,-0.4 1,-0.8 0.5,0.7 -1,0.2 -1.5,1.1 v 1.8 l 0.5,1.8 -0.5,1.3 -1.7,0.6 -2.2,-1.9 h -0.5 l -1.3,2.6 -1.7,1.4 -0.1,1 -1.7,2.4 -0.7,1 -0.6,1.1 -1,2.1 0.5,1.8 v 0.7 l -1.5,1.3 -2,1 v 1.7 l 0.7,1 1.8,-1 -0.7,2.7 1.1,2 1.2,0.6 2.6,-2.2 3.2,-2.7 2.1,-0.9 1.5,-1 0.8,-1.2 0.7,0.5 -0.6,1.1 -2,1.5 -1.3,0.2 -3,3 1,1.2 -0.1,0.6 -3,1.3 H 496 l -0.5,0.8 0.5,1 -0.8,0.4 -1.5,-0.3 0.2,-0.6 -0.2,-1 -1.3,-2.6 -0.7,-1 -0.9,0.1 -0.5,1 -1.1,0.2 -0.6,0.7 -0.5,0.5 v 1.3 l 0.8,0.9 0.4,0.8 -2,1 -0.6,-1.1 v -1.4 l -0.3,-1.1 -1.1,0.4 -1,0.8 -0.5,-0.1 -1.8,0.9 -0.6,0.9 -0.7,1.9 h -1 l 0.2,1.1 -0.3,0.8 -0.6,0.2 -0.8,-0.1 v -0.7 l -0.3,-1 -0.7,0.2 -0.3,1 v 0.8 l -0.1,0.4 h -0.5 l -0.5,-0.2 -1.7,0.6 -0.3,0.3 -0.8,0.4 -0.4,1.3 -0.2,1.3 -0.7,2 -1.2,-1 -1.7,-0.3 -1.5,1.3 -0.3,1.3 1.6,1.3 -0.9,1.1 1.5,0.5 2,-0.6 0.3,0.7 0.2,0.5 1,0.6 -0.7,0.7 -0.5,0.7 0.5,1.2 -1.2,-0.8 -1.5,0.1 -1.4,-0.5 h -1 l -1.4,-0.3 h -1.1 l -0.9,0.8 -1.2,-0.3 -0.9,1 0.2,0.3 0.9,0.5 v 0.3 l -1,0.2 0.1,1 1.3,-0.1 0.5,-0.5 h 0.3 l -1.2,1.8 0.1,1.4 0.6,3 -0.6,0.2 -0.7,-2.6 -0.7,-1.2 -1.6,1 -1,1.5 -0.3,1.2 -0.3,0.6 0.8,1 0.2,1.2 -0.9,-0.5 -0.7,-0.6 -0.5,-1.5 -1.4,0.4 -2.3,-0.2 -0.1,1.1 0.2,1 -2.6,-2.4 -0.7,0.7 0.6,1.4 0.4,1.4 -0.8,1 0.3,0.5 4.8,0.2 3.3,-0.9 h 1 l -2.8,1.3 0.5,0.7 h 2 l 1.5,-0.6 0.4,0.5 -1.7,1.1 -2.6,0.3 -2.6,-0.2 -1,-0.8 -1,-0.1 -2,1.6 -0.1,1 -1.3,-0.2 -0.5,0.3 -0.3,1.3 1.4,0.9 1.2,0.3 -0.2,1.3 v 1.3 l -1,0.6 -1.2,1.6 0.3,1.4 -0.4,0.8 -0.2,1.4 0.7,0.8 v 1.4 l 1,0.4 1.8,0.3 1.6,-0.4 2.2,-1.2 1.5,-0.5 1.2,1 2,0.1 0.6,-2.3 1.5,-2.8 0.3,1.8 -0.7,2.6 1,0.6 h 2 l 1.2,-0.5 0.3,0.4 0.6,0.3 1.8,-2.1 0.8,-4.4 2.2,-1.3 0.2,0.7 -1.5,3 -0.3,2.1 -0.4,1 1.1,-0.2 1.1,-0.8 1,0.6 -2.5,2.2 -3.1,1 -0.4,1.8 1.1,1.5 -2.5,1.5 0.1,-2.1 -0.5,-1.4 -1.6,-1.5 -1.9,-0.2 -2.3,0.7 -1.8,-0.5 -1.7,0.3 -1.7,-0.4 -1.5,1.4 -1.5,-0.3 -1.7,-0.7 -1,2.4 -0.4,2 1.6,0.3 0.7,-0.4 v 3 l -1.4,-0.8 -1.1,-1.1 -0.2,0.4 h -0.3 v 0.6 l 1.5,3.8 1.2,0.3 2.4,-1.6 1.5,-0.3 -2.4,2.5 -0.8,1.5 0.6,0.8 -1.9,1.2 -1,1 0.4,1.7 0.8,1 0.3,1.4 1.2,-0.8 1.1,-1.5 v 1.8 l 1,1.6 0.4,1.2 -1.5,0.1 -1.5,1.3 v 1 l 0.8,0.9 2,-1.3 1.1,-2.2 0.2,-2.4 1.6,-1.1 1.8,-2.4 2,-3.8 1.8,-1.6 0.8,1 v 0.9 l 2.2,-0.7 1.7,0.4 -3,1.4 -0.3,2 -0.4,1.3 -0.3,-2.2 -0.9,-0.3 -1.7,2.8 -1.7,2 1,1 0.1,0.6 -2,1.2 -1.3,1.9 -1.8,1.8 -0.6,1.1 1.2,1.1 2.8,-0.1 0.7,0.2 1.1,-1 0.4,0.7 -3.6,1.6 -1,1 -0.4,1 -1.8,-0.3 -0.8,0.6 -1,-0.7 -1.9,2.4 -0.8,1.7 v 1.7 l 0.5,0.8 0.2,0.8 1.7,-0.3 0.8,-1.7 0.2,1.8 h 1.4 l 0.5,-1.1 -0.3,-1.2 1.3,1 2.6,-1.5 1,-1.4 0.9,0.7 -2.8,3.5 h 1 v 2 l -1.2,2 -0.5,1.2 -1.2,1.2 0.2,1.4 -0.2,0.4 v 0.6 l -1,-0.2 -0.8,0.3 -0.6,-1.5 -0.8,-0.1 -1.6,6.6 2.3,3.7 3.7,4 2.7,2 2.2,0.6 1.4,-2.7 v 3.8 l -0.6,2.6 1.2,-1 1.9,1.3 0.7,-2 2.8,0.3 -1.3,1.8 3.1,1.4 2.3,-1 2.2,-2 1,-3 1.3,2.4 3.8,-2.8 3.7,-5.6 2.3,-1.3 0.6,-2.3 1.2,-1 0.5,-1.4 3,-3.7 -0.6,-1.6 2.4,1.4 h 2.7 l 1.3,-0.7 0.6,-2.4 0.1,-1.6 0.9,-0.7 0.5,-0.7 -0.1,-2.2 -1.2,-1.4 -0.8,-1.7 0.5,-0.5 0.3,-0.9 -0.3,-1.5 -0.3,-0.9 0.8,0.6 0.9,1.6 v 1.7 l 1.1,-0.5 0.3,-1.3 -1,-1.7 -0.3,-3 0.3,-0.7 h 0.6 l 0.2,-0.2 0.8,-0.4 1,0.6 v 1.3 l -1.2,0.9 -0.2,1 0.6,2.5 0.5,5.9 0.4,1 0.2,1.3 1.3,-0.4 1.8,1.6 1.3,-0.1 0.8,1.4 0.4,0.7 v 3.6 h 0.5 l 0.2,-1.7 0.7,1.7 1.4,-1.2 1.2,-7.8 -0.9,-2.4 -0.2,-3.3 2,-4.5 v -2.7 l 4.7,-2.4 1,-2.2 0.2,-3 -0.9,-1.7 1,-6 -1.8,-6.4 -1.9,-2.3 0.6,-1.3 2.6,-1.4 1.6,-2.2 1,-3.6 -0.9,-3.9 -3.6,-2.7 -1.7,-2.8 -0.4,-12 -0.9,-2.8 -0.5,-0.5 v -2.3 l 0.4,-1.7 -0.1,-2.2 v -1.3 l 0.3,-1.8 0.3,-1.8 v -0.4 l 1,-1.8 h -0.4 l -0.5,-0.9 -1.2,-2.5 -0.6,-3.2 0.4,-3.5 1,-2.8 2.1,-3 1.6,-2.7 2.6,-2 3.3,-1.4 2.8,0.6 h 2.4 l 1.3,-2.5 0.3,-2 -0.2,-3.5 -1.1,-1.8 -2.3,-2.6 -0.4,-1.6 2.6,-5.3 0.2,-0.3 2,-6.4 1,-8.4 -0.3,-4.8 -0.6,-5.8 1,-1 1.7,-0.1 2.3,-2.3 0.1,-0.7 0.5,-1.6 0.1,-3.2 0.7,-2.6 3,-5.2 0.7,-2.3 1.7,-2.4 0.7,-1.9 0.2,-1.4 -0.4,-2 -2.1,-3.2 0.1,-2.3 1.8,-2.7 0.7,-1.7 0.4,-4.7 3.2,-5 1.7,-0.6 1.7,0.7 1.5,1.8 0.6,0.1 1,-2.6 0.4,-4.7 -0.6,-3.4 0.5,-1.6 1.8,-1 1.4,0.2 3,-0.3 5.1,0.9 0.9,0.3 1,-0.5 0.8,-1.3 -0.3,-0.4 -1.2,-0.7 -0.4,-1.5 0.6,-1.7 0.2,-2.1 0.5,-0.9 V 173 l -0.4,-1.5 -0.7,-0.6 -0.3,-1.3 0.5,-0.5 1.8,-0.2 1.2,-0.4 V 168 l 0.3,-0.6 1.1,-0.7 1,0.5 1.2,-0.8 -0.6,-1.5 -0.4,-1.8 1.4,-1.2 1.9,0.5 1.9,1.3 3.4,3.4 1.5,1.8 1,2.6 1,0.9 1.5,-0.2 2,0.1 2.2,0.7 1.5,-0.7 1.7,-1.5 0.7,-1.6 1.2,-1.8 1.3,0.6 1.6,1.7 0.5,0.9 1.5,0.1 3.1,-3.3 0.7,-2.3 2.8,-3.5 v -1.8 l -1.5,-5 -0.2,-2.1 -0.5,-3.7 0.6,-4.6 1,-2.2 1.4,-1.4 3,-1.1 1.4,-1.1 2.7,-2.8 2.8,-1.4 0.8,0.3 0.8,0.8 1,1.6 1.8,0.7 2.4,0.2 2.8,1.7 2,3.3 0.7,2.2 -0.3,0.4 -1.4,3.7 v 1.8 l 0.5,1.5 1.5,0.7 0.3,-0.3 0.8,-1.6 -0.1,-1.5 -0.2,-0.5 0.1,-0.8 2.5,-3.7 1,-1.7 v -0.4 l -0.1,-0.9 -0.3,-1.9 0.1,-0.4 0.3,-0.4 0.6,0.3 1.2,0.7 h 0.8 l 1,-0.6 0.6,-0.9 0.3,-0.8 z m -190,252 -1,-1 v 4 h 1 v -2 z m -3,-38 v 1 h 1 v -2 l 1,-1 h -1 v 1 h -1 z"
         transform="matrix(3.36,0,0,1.54,-680.3,-171.8)"
         id="path24"
         inkscape:connector-curvature="0" />
      <path
         d="m 483,295 v -1 l 2,-1 h 1 v 1 h 1 v 1 l -4,1 -1,2 -1,-1 -1,-1 h 1 v -1 h 1 z m 47,-94 v -1 l -1,-1 2,1 h 1 v -1 l 1,-1 v 2 l -1,1 -1,1 -1,1 v 1 l -1,-1 1,-1 z m 55,-68 v 2 l -1,1 v 1 h -3 v -4 h 1 v -1 h 1 v -1 h 1 l 1,1 z m -5,-1 v 1 h -1 v 1 h -1 l -1,-1 v 1 l -1,-1 v 2 l -1,-2 -1,-1 1,-1 h 1 v -1 h 1 v -1 2 l 1,-1 h 1 l -1,-1 h 2 l 1,1 v 1 h -1 z m -2,5 h 2 l 1,1 v 1 h -1 v 1 -1 h -1 l -1,-1 z m -11,9 h -1 v -1 1 l -1,-1 v -2 l 1,-1 1,1 v 2 z m -6,-1 1,1 v 1 h -2 v -1 l -1,-1 -1,-2 h 1 v 1 l 1,1 v -1 z m -3,7 -1,1 h -1 l -1,-1 -1,-1 v -1 1 -2 1 l -1,-1 v -2 l 1,1 h 2 v 2 h 1 v -2 l 1,1 h 1 v 1 l -1,1 z m -12,9 v -1 h 1 l 1,2 h 1 v 6 l -1,1 h -1 v -1 l -1,1 -1,2 h -2 l -1,1 v -1 l 1,-1 v -1 l -1,-1 1,-1 -1,-1 h 1 l -1,-1 1,-1 1,1 1,-1 -1,-1 1,-1 h 1 l -1,-2 z m -12,9 h 1 v -3 h 1 l 1,1 v 2 l -1,2 v 1 h -1 v 1 h -2 v -3 h 1 z m -3,12 -1,1 -1,1 -1,-1 1,-1 1,-2 -1,2 h -2 l -1,2 -1,-1 v -1 l 1,-1 v -1 1 -1 h 1 l 1,-1 v -2 2 l 2,-1 -1,-1 v -2 l 1,1 1,2 v 2 l 1,1 v 1 z"
         transform="matrix(3.36,0,0,1.54,-680.3,-171.8)"
         id="path26"
         inkscape:connector-curvature="0" />
      <path
         d="m 541,180 v 2 l -1,1 h -1 l -1,2 -1,1 -1,-1 -1,1 v 2 l -1,1 v -1 l -1,-1 1,-1 -2,2 -1,2 -1,1 -1,1 v -2 h -1 l -1,2 h -1 l -1,1 v -3 l 1,-1 h 1 l 1,-1 1,-1 1,-1 2,-1 h -1 l 2,-3 v -6 l 1,-1 h 1 v 4 -1 l 1,2 v 1 l -1,2 v -1 h 1 l 1,-2 1,-1 -1,-1 1,-1 h 1 l 1,1 z m -91,199 v -4 l -1,-1 -1,2 v 1 l 1,1 z m 6,-55 h 1 l 1,-1 v -2 h -2 z M 595,117 h 1 v -2 1 h 1 l 1,1 1,1 -1,1 h -2 v 1 l -1,-1 v 1 -2 h 1 -2 z m -9,10 1,1 v 1 l 1,1 v 1 h -1 v 1 l -2,-2 v -3 1 z m -35,32 v -3 h 1 v -2 l 1,1 h 1 v -3 l 1,1 1,1 -1,3 v 1 l -1,1 -2,1 h -1 l -1,-1 z M 448,332 v 2 l 1,-1 v -1 z m 57,-64 -0.1,0.7 1.5,-0.5 0.4,-0.4 z"
         transform="matrix(3.36,0,0,1.54,-680.3,-171.8)"
         id="path28"
         inkscape:connector-curvature="0" />
    </g>
    <g
       style="fill:#c5c5c5;stroke:#757575"
       id="g36">
      <path
         d="m 434,508 1,-1 h -1 l -1,2 -2,2 v 2 l 1,-2 1,-1 1,-1 z m -1,15 1,1 h 1 l 1,1 h 2 v -2 l -1,-1 v -1 h 1 v -1 h 1 v -4 l 1,-1 v -1 h -2 v -5 l 1,-2 h 1 v -1 h 2 l 1,-1 h 5 l 2,-1 h 3 l 1,1 h 1 l 1,1 1,1 v 1 l -1,2 v 3 l -1,2 v 2 l -4,2 1,2 4,2 -1,2 -1,2 -2,2 -1,2 -1,2 -2,1 -2,-1 -2,-1 -1,2 1,4 v 8 l -2,2 v 4 l 1,1 v 2 l -3,-1 -1,-1 -1,-2 1,-3 v -2 l -2,-1 h -2 l -2,-1 v -2 h -1 l -1,-1 h -6 l -3,2 -3,1 h -1 l -3,-2 h -1 l 1,-1 h 1 l 2,2 2,-1 h 4 l -1,-1 h -5 l 1,-2 h 2 l 3,-1 2,-1 h 4 l 1,-1 -1,-1 -1,1 h -3 l -2,-1 -1,-1 v -3 l 1,-1 1,-1 1,-1 2,-3 1,-3 1,-4 2,-4 2,-1 v 2 h 1 v 1 h 1 v 1 h -1 l -1,1 h -1 z"
         transform="matrix(3.36,0,0,1.54,-680.3,-171.8)"
         id="path32"
         inkscape:connector-curvature="0" />
      <path
         d="m 416,538 v 2 h 1 v -1 z m 8,-2 -3,-2 h -1 2 l 1,1 z m -3,1 v -1 h -2 l -1,-1 h 1 l 2,1 z"
         transform="matrix(3.36,0,0,1.54,-680.3,-171.8)"
         id="path34"
         inkscape:connector-curvature="0" />
    </g>
    <path
       style="fill:#c5c5c5;stroke:#757575;stroke-width:2.29999995"
       d="m 1460,890.8 c -14.4,-2.6 -26.2,-9.3 -43.6,-12 l -6,6.7 -11.2,1.1 -8,17 0.6,7.7 0.4,2.3 11,3.7 8.1,2 7,4.7 5.1,1.6 2.7,-6.6 -3.3,-4.2 2,-5.9 5.3,-2.7 4.8,-4 7.3,2.3 11.8,-1.9 c 1,-4.9 -5.4,-9.5 5.4,-12 z"
       id="path38"
       inkscape:connector-curvature="0" />
    <path
       style="fill:#c5c5c5;stroke:#757575"
       d="m 568,832 1,-2 2,1 2,1 1,1 v 2 h -2 l -2,-1 z m -2,-5 h 2 v 1 h 1 l -1,1 h -3 l -1,-2"
       transform="matrix(3.36,0,0,1.54,-680.3,-171.8)"
       id="path40"
       inkscape:connector-curvature="0" />
    <g
       style="fill:#c5c5c5;stroke:#757575"
       id="g46">
      <path
         d="m 649,724 -3,-5 -1,-4 v -9 l 6,-1 4,-6 10,-2 4,-1 v 1 l 7,4 3,7 1,5 h -1 l -4,5 -5,1 -4,2 -3,4 -5,1 -3,1 h -1 l -2,-1 z M 446,576 v -3 l -1,-1 -1,-2 v -3 l -1,-1 h -2 l -2,1 -1,3 v 6 l 4,2 h 1 l 2,-1 z m 194,-103 2,2 5,-1 2,-2 9,-3 v -9 l 3,-7 v -7 l -10,-2 -1,-3 -9,-2 -3,-4 h -2 l -4,5 -8,-2 -8,5 -3,-1 -3,2 -6,10 h 1 l 1,5 18,2 3,4 1,7 5,-1 z"
         transform="matrix(3.36,0,0,1.54,-680.3,-171.8)"
         id="path42"
         inkscape:connector-curvature="0" />
      <path
         d="m 607,419 -5,2 -1,9 1,2 -1,3 -1,2 v 13 l -1,3 2,2 h 2 l 1,-1 6,-10 3,-2 3,1 8,-5 8,2 4,-5 h 2 l 3,4 9,2 1,3 10,2 1,-9 11,-13 -1,-3 -6,-7 2,-8 -3,-3 -3,2 -2,-1 h -6 l -3,2 -8,-1 -2,-3 h -5 l -5,2 -2,3 -2,3 2,7 -2,7 -2,1 -4,2 -5,-5 -5,-2 -1,-4 z"
         transform="matrix(3.36,0,0,1.54,-680.3,-171.8)"
         id="path44"
         inkscape:connector-curvature="0" />
    </g>
    <g
       style="fill:#c5c5c5;stroke:#757575"
       id="g52">
      <path
         d="m 619,747 -1.1,-1.9 -1.9,-2.1 -3,-2.3 -2.1,-2.7 -1.5,-1.8 -2.8,-0.5 -7,-1.8 -2.4,-2 -3.4,-1.4 -6.6,-1.8 -3.4,-1.1 -2.1,-1 -1.7,-0.5 -1.1,0.1 -1,-1 v -1.5 l 1.4,-1.8 1.8,-1.5 v -2.3 l -0.8,-0.7 -1.1,-1.3 h -1.4 l -1.3,0.5 -1,0.8 -2.1,0.3 -5.8,0.4 -0.1,0.4 0.1,1.6 -3.7,-3 -2.8,-1.7 -0.8,-0.2 -0.5,0.2 -0.8,-2 -1,0.1 -0.9,-0.9 -4.9,-3.8 -1.5,-2 -2.2,-3.5 -1,-2.2 -0.9,-2.2 -1,-1 -1,-3.4 -0.9,-2.6 -1,-1.5 -1.3,-2.2 -1,-0.6 h -1.7 l -0.3,-0.2 -0.1,-0.6 -1.1,-0.6 -2.6,-1.6 -1.8,-1.7 -2,-0.5 -2.2,-1 -1.2,-0.6 -1.6,-1.8 -1.5,-2.2 -1,-2.2 v -7 l 0.2,-1.6 1.4,-1.3 0.2,-1.6 -0.9,-1.6 -1.8,-0.5 -0.7,-3.7 0.3,-1.8 1.2,-0.7 1.4,-1.5 h 0.9 l 0.4,0.4 1,-0.3 2.6,-1.4 3.6,-2 1.6,-1.2 2.3,0.4 2,-1.3 h 1.9 l 0.2,1.5 -0.4,1 -0.1,0.8 1,0.6 1.3,-0.3 0.7,-0.8 0.3,-1 -0.7,-1 -0.9,-0.4 -0.7,-1.2 -0.8,-0.3 -1,-0.4 -0.7,-0.5 -0.1,-2 -0.6,-0.1 -0.7,-1.2 v -2 l 0.7,-1.7 H 538 l -1,0.4 -0.6,-0.4 v -1.1 l 0.5,-2 1,-1.1 1.3,-1.2 h -2 l -1.1,-0.6 -2.1,-0.4 h -3 l -4.4,-0.5 -2.3,-1.5 h -1.1 l -2,-1 -1,-0.8 -1,-1.6 -0.4,-1.9 v -1 l -0.6,-0.5 -1.5,0.1 -1,1 -2.3,0.5 -4.6,0.4 -3,1.5 -1.4,0.7 -3.8,1.3 -1.1,0.1 -2.1,-0.5 -1,-0.4 -0.5,1.3 -0.2,1.4 0.3,1.7 -1,0.7 -2.6,0.2 -0.4,1.5 0.3,1.8 0.7,1.4 -0.4,1 -4.9,-0.9 -2.8,-0.1 -1.5,-1.3 -1.7,-0.8 -0.6,2.6 -2.4,4.7 -0.6,2.4 -0.6,1 -1.7,-1.1 -1.5,-2 -2.7,-1.8 -1.2,-3.3 -0.2,-1.4 -2.7,1.4 -1.5,1.8 v 2.2 l -0.9,1.2 -1.7,1.2 -0.9,0.9 -3.2,-0.2 -1.2,0.2 h -0.7 l -4,1.2 h -3.6 l -1,0.1 -0.2,1.1 0.4,1.3 0.6,1.6 1.7,4.8 0.6,2.3 -2.8,1.8 -1.3,1.6 -0.6,2.1 0.1,1.2 0.5,1 0.9,0.2 1,0.6 0.2,2 -0.5,2.3 v 2.7 l 0.7,2.7 1.4,2.1 2.2,0.6 h 2.2 l 1.8,0.3 0.8,2 v 2.1 l -0.6,1.7 0.2,0.9 2,0.2 2.5,-0.2 2.7,-1 1.3,-0.9 0.4,-1.7 2.4,-3.4 1.2,-0.6 0.5,-1.5 2.1,-1 2.3,-1 h 2.2 l 2.4,0.6 2.5,1.3 7.7,4.6 4.4,1.7 0.7,1.2 0.6,3.1 1.4,3.8 2,4.8 1,2.8 -0.2,1.8 0.8,0.9 4.6,4.2 2.7,3 1.1,3.8 2,-0.8 h 1.8 l 2.5,1.7 2,2.8 1.8,2.3 2.5,0.3 1.5,1.9 3.6,4 3.5,3.3 4,2.6 3,2.3 1.4,-0.7 h 7 l 1.6,0.3 2.1,1.9 2.1,2.2 1.3,2.7 4.5,1.4 0.5,0.6 -0.2,2.1 2.5,-0.6 2.5,-0.6 1.5,0.3 1.2,1.5 1.2,2.8 v 1 l -0.3,1 1.5,1.8 3.2,0.9 1.5,1.2 1.5,1.8 1,-2.5 1.6,-0.1 0.4,0.7 1,1 0.6,1 0.4,1.8 1.3,3.4 1.8,2.5 1.8,2.3 1.6,4.8 1,1.7 1,2.4 0.8,1.4 -3.7,2 -1.5,1.8 0.8,2.8 -1.6,3 -0.9,3 0.5,3.2 0.8,2 h 2.3 l 2,-0.5 0.9,-0.7 0.5,-1.7 1.2,-3 0.8,-1.4 1.6,-1.8 1.8,-0.7 0.6,-1.7 -0.3,-3.2 -0.2,-2.8 0.7,-1.4 2,-0.9 2.7,-1.8 1.3,-0.1 0.3,-1.2 -0.3,-1.4 -0.1,-2.3 -0.5,-1.1 -0.3,-2.6 -0.2,-0.2 -1.3,-1.2 -2.9,-1.1 -1.5,-1.7 -3,-1 -0.2,-2.7 0.5,-3 0.3,-2.2 1.9,-3.4 2.7,-3.6 2.8,-1 1.7,1.2 3.2,1.6 3.8,0.5 3,1.2 1.4,2.3 2.4,2.8 2.7,0.8 0.4,0.4 v -0.6 l 0.5,-2 z m -97,-64 a 2,2 0 0 1 -1.9,-1.9 2,2 0 0 1 1.9,-1.9 c 1,0 1.9,0.8 1.9,1.9 A 2,2 0 0 1 522,683 Z m -54,59 -1,2 v 3 l 1,1 h 2 v 1 l 1,2 v 9 l 1,1 v 1 l -1,1 v 4 l -1,2 1,2 v 4 l 2,3 h 1 v 1 l 2,1 h 2 l 2,-2 1,-2 2,-2 2,1 h 1 l 2,-1 v -1 l 1,-2 v -25 l -1,-4 -1,-2 v -1 l -1,-2 -1,-1 h -1 l -1,-1 h -2 l -1,2 -2,1 -2,1 -4,4 h -2 l -1,-1 -1,-1 h -1 z"
         transform="matrix(3.36,0,0,1.54,-680.3,-171.8)"
         id="path48"
         inkscape:connector-curvature="0" />
      <path
         d="m 536,792 -2,1 v 1 l -1,1 v 2 l 1,4 2,2 4,1 4,1 4,2 3,1 2,2 3,1 h 2 l 4,1 3,3 3,2 4,1 h 4 v -3 l 1,-2 v -4 l -1,-1 -1,-2 -1,-1 v -1 l 1,-3 1,-5 2,-3 2,-3 v -3 h -2 l -2,1 h -1 l -1,2 h -5 l -3,2 h -2 l -6,1 -3,1 -1,1 h -2 l -2,-2 -3,-1 -3,-1 -2,1 -2,2 h -2 l -1,-1 z"
         transform="matrix(3.36,0,0,1.54,-680.3,-171.8)"
         id="path50"
         inkscape:connector-curvature="0" />
    </g>
    <path
       style="fill:#c5c5c5;stroke:#757575;stroke-width:2.29999995"
       d="M 324.4,524.3 V 515 h -13.5 l -6.7,1.6 -6.7,1.5 H 294 l -6.7,3 3.4,1.6 h -3.4 l -6.7,3 -6.7,1.6 v 1.6 h 6.7 l 3.4,1.5 h 10 v 1.6 l -6.7,3 -6.7,1.6 -6.7,1.5 v 3 l -13.5,-1.4 h -6.7 l -3.3,-1.6 -3.4,-1.5 -16.8,-3.1 -6.7,1.5 -3.4,3.1 v 4.6 h -10 l 3.3,3.1 10,1.6 h 3.4 v 3 l -13.4,1.6 -3.4,1.5 -6.7,1.6 -3.3,1.5 3.3,3 3.4,1.6 v 1.6 l 3.3,1.5 h 6.8 v 1.5 l 6.7,1.6 16.8,1.5 v 1.6 L 237,572 h -10 l -6.8,3 -3.3,1.6 v 3 l -6.8,3.2 -3.3,1.5 -6.7,1.6 h -3.4 10 l 6.8,1.5 h 6.7 l 6.7,-1.5 6.8,-3.1 h 3.3 l -3.3,3 v 1.6 h 6.7 v 1.5 h -27 l -10,-1.5 -3.3,1.5 -10.1,3.1 v 3 h -3.4 l -3.3,-1.4 -6.8,1.5 -3.3,-1.5 -6.7,1.5 -3.4,1.5 10,1.6 h 10.2 v 1.5 l -10.1,1.6 -10.1,3 v 1.6 h 3.4 l 3.3,1.5 -3.3,1.6 h 3.3 l 16.8,-1.6 v 3 H 180 l -13.4,3.2 h 26.8 l -3.3,3 -6.7,-1.5 -3.4,1.6 v 1.5 h 13.4 v 1.5 h 37 l 3.4,-1.5 h 3.3 l 3.4,-3 v -1.6 h 3.3 v 3 h 3.4 l 10,-1.5 3.4,-1.5 h 3.4 l 3.4,1.5 3.3,-1.5 3.4,-1.6 3.3,-1.5 h 27 l 10,1.5 6.7,1.6 h 3.4 l 3.3,-1.6 v -4.6 l 3.4,-1.5 3.4,-3.1 3.3,-4.6 3.4,-1.6 3.3,-3 3.4,-1.6 v -6 l 3.4,-1.6 v -6.1 h 3.3 v -1.6 l 3.4,-3 -3.4,-3.1 -3.3,-9.3 3.3,-3 h 6.7 -3.3 V 552 h 3.3 v -3.1 l -3.3,-3 -6.7,-3.2 -6.8,1.6 h -13.4 l -6.7,3 -10.1,1.6 -6.7,-1.5 -3.4,-7.7 -10,-4.7 10,-1.5 3.4,-3 h 6.7 l 3.4,-3.2 3.3,-3 h 3.4"
       id="path54"
       inkscape:connector-curvature="0" />
    <g
       style="fill:#c5c5c5;stroke:#757575"
       id="g86">
      <path
         d="m 299,221 c -0.4,1.1 -1,2 -2.2,2 -1,-0.2 -1,-2.1 -2.1,-1.5 0.2,1.3 2,1.4 2.2,2.7 h -0.7 c -0.6,0 -1,0.2 -1.8,0 0.6,-0.3 1.4,-0.4 2.3,-0.3 -0.7,-1 -2.9,-1.4 -1.9,-3.2 1,0.4 1.2,1.5 2.1,2 1.1,0.1 1.4,-0.8 2,-1.6 -0.2,-1 -1.6,-1.3 -0.9,-2.3 0,0.7 0.5,1.4 1.1,2.1 z"
         transform="matrix(3.36,0,0,1.54,-680.3,-171.8)"
         id="path56"
         inkscape:connector-curvature="0" />
      <path
         d="m 231,222 c -1.8,0.3 -3.2,2.1 -4.6,3 a 6,6 0 0 1 -1.6,-3.7 c 0.2,-0.7 1,-0.5 1.2,-1.4 l -0.8,-1.8 c -3.2,0.6 -6.7,-1.2 -9.5,-1 -0.7,0.7 -1.1,1.5 -2.2,1.5 -1,-0.7 -2,-1.7 -1.7,-3.4 1.3,-0.6 2,0 3.2,0.6 3.8,-2.7 9.5,-2.2 15,-1.2 0.4,-1 2,-2.8 0.6,-3.7 -1.1,2.6 -4.4,1.4 -6.3,0.1 1.8,-2.5 5,-3.3 7.8,-4.7 l -1.5,0.5 -0.2,-0.6 c 0.1,0 -0.3,-0.7 -1.5,-1.2 -0.8,0.2 -0.7,1.4 -1.6,1.3 0,-0.5 -0.7,-0.4 -0.4,-1 1,-0.2 1.5,-2 1.9,-1.6 -0.4,-0.9 -1.5,0.8 -2.7,1 l -0.6,-0.1 c -0.3,-0.4 -0.7,-0.7 -1.6,-0.6 -0.4,0 -0.2,0.6 -0.8,0.4 -0.4,-0.3 -0.3,-1 -0.6,-1.3 -0.9,-0.1 -1.4,0.4 -2,0.2 l -0.5,-0.2 c -0.1,0.5 -0.3,1 -0.9,1.2 -2.5,-1.1 -4.9,2.3 -5.9,0.6 l -0.3,-1 c -1,-1.1 -3.1,-0.2 -4.2,-1 1.6,-0.1 1.2,-1.7 2.2,-2.2 1.2,0.4 1.9,2.5 3,2.6 0.2,0 0.5,0 0.8,-0.3 -1,-0.5 -1.7,-1.4 -2,-2.5 0.5,0.2 0.9,0.5 1.3,0.3 -0.3,0.4 0.7,1 0.8,0.5 l -0.6,-0.6 c -1,-0.9 -2.3,-2.2 -1.2,-3.1 1.6,1 3.2,1.8 4,3.5 v 0.2 l 0.1,0.2 c 0.2,-0.5 2.1,-0.3 1.4,-1 l -0.3,0.3 -0.1,-0.2 v -0.2 c -0.3,-0.1 -1,-0.8 -0.5,-0.8 1,-0.3 2.6,0.4 2.6,-1 -2.4,1.2 -6.8,-0.9 -4.7,-3.3 1.8,0.4 3,2.4 4.8,2 -1.9,-1 -5.8,-2.6 -4,-4.9 1,0.6 2.1,1.2 2.8,2.1 0.3,-1.7 -1.6,-1.6 -1.7,-2.9 0.3,-0.5 0.7,-1 1.2,-1.4 1.3,0.4 2.6,0.8 3.2,1.7 0.3,0.5 0.5,1.1 0.5,1.9 0.7,0.1 1,0.7 1.7,1 0.1,-0.6 0.3,-1 0.8,-1.3 0.6,0.8 0.5,2 1.3,2.6 0,-0.1 0,-0.4 0.2,-0.4 l 0.3,0.3 c 0.1,0.4 0,1 0.6,1.3 1.2,-4.6 -3.2,-4.7 -4,-7.7 1.4,-0.8 3.2,1.3 4.1,0.2 l 0.2,-0.5 c -1.7,-1.3 -5.6,-0.5 -5.8,-2.1 0,-0.3 1.8,-0.6 1,-1.7 2.7,-0.7 7,0.9 6.6,4.2 l 2.2,0.2 c 1,1.4 2,3.6 2,5.2 0.3,-0.2 0.1,-1 0.8,-0.7 0.8,0 0.8,0.8 1.1,1.4 -0.8,0.2 -1.8,0 -1.9,1.1 1.1,0.2 0.4,-0.6 0.8,-0.7 0.2,0.6 1.6,0.2 1.7,1 -0.2,2 -0.4,4 -2,4.6 h -0.5 c -0.9,-0.4 -0.2,-2 -1.6,-2 -0.6,1 0.6,2.1 0.7,3.1 4.4,0 2,5.7 3.4,8.2 h 0.2 l 0.1,1.8 c 0.4,-2 0.1,-3.6 0.3,-5.6 l 0.2,-0.2 c 0.4,0 0.7,0.2 0.8,0.4 0.2,-2.7 1.3,-4.2 3.3,-4.7 0.1,1.2 -0.4,1.7 -0.5,2.7 0.4,0.7 0.9,1.3 2,1.5 2.8,-3.6 1.2,-7.4 1.4,-12 1,0 1.2,-0.7 2.3,-0.5 0.2,1.6 0.8,2.8 1.5,4 0.8,1.3 1.5,2.6 1.7,4.4 0.8,-0.1 0.7,0.5 1.5,0.4 2.2,-1.8 -0.7,-5.4 1.5,-7.2 1.2,0 1.7,-0.2 2.5,0.5 -0.3,-0.9 0,-1.1 0.2,-2 3,-1.1 4.5,1.5 3.8,4.7 0.6,0.1 0.9,0.5 1.7,0.4 1,1.8 0.1,5.1 1.6,6.5 0.7,-1.8 0.3,-4.3 0.1,-6 -0.4,0.1 -0.8,-0.3 -1,-0.8 -0.4,-1.3 -0.2,-3.5 0.5,-4.2 2.5,0.7 4.2,2 4.6,4.5 l 2,0.2 c 0.8,-2 1,-4.6 3.7,-4.2 -0.2,0.8 0.5,1 0.4,1.8 1.3,-0.2 2.2,1.2 2.9,0.8 -0.4,-0.4 -0.6,-1 -0.6,-1.6 0.5,-0.3 1.2,-0.4 1.8,-0.6 1.5,-1.9 -0.8,-4.4 -0.1,-6.3 2.7,0.3 5.7,-1 5.3,2.6 2.7,0.2 0.2,2.3 0.9,3.6 1.2,0.5 2,1.4 2.8,2.3 0.2,-0.8 0.4,-1.6 0.9,-2 0.3,-0.3 0.8,-0.4 1.6,-0.2 a 3,3 0 0 1 1,-1.7 c 0.6,-0.6 1.5,-0.9 2.2,0 -1.3,0.8 -3.3,0.9 -2.3,3 -0.3,1 -1.6,0.6 -2,1.6 -0.2,1.1 2.2,2.2 4,1.7 1.6,3.3 -2.1,3.7 -2.2,6.6 1.7,0 2.5,-1 4.4,-0.8 l 0.1,0.7 c 0.3,2.4 -2.5,3 -2.2,4.9 0.7,-1 1.3,-2.1 2.3,-2.8 3.6,1 7,2.9 3.8,6.9 0.4,0.4 1.1,0.6 1.1,1.4 v 0.2 c -0.7,1 -3.2,-0.3 -3.9,0.6 0.6,0.4 2.2,0 3.5,0.4 -0.7,1 0.6,1.4 0.8,2.3 -0.5,0.7 -0.8,1.7 -2,1.6 -0.8,-0.5 -1,-1.6 -2,-2 -1,1.8 1.3,2 1.9,3.2 a 4,4 0 0 0 -2.3,0.3 c 0.8,0.2 1.3,0 1.8,0 v 0.5 c -0.3,-0.4 -0.6,1.4 -2,1.5 a 3,3 0 0 1 -0.3,0 h -0.3 c -0.1,0.5 0.4,0.5 0.1,1.2 -0.6,0.2 -1.3,0.3 -2,0.3 -1,-0.3 -0.6,-2.8 -2,-2 0.6,-0.2 1.2,1.3 0.4,0.3 0.8,1.6 0.5,3 -0.8,3.7 h -0.3 0.1 a 3,3 0 0 1 -0.4,0.2 c 0.2,0.5 1.1,0.5 0.9,1.3 -0.5,0.6 -0.6,1.5 -1.2,2 -1.5,-0.9 -2.7,0.8 -3,2.3 l -3.8,-2.4 c 0.5,0.2 0,1.2 0,1.8 -5.6,0.5 -7.6,5.6 -13,7 -0.4,-0.6 -0.6,-1.5 -1.2,-1.9 -0.3,0.7 -0.3,1.7 -0.8,2.2 -3,-0.7 -4.2,1.6 -6.9,0.6 -0.8,0.7 -1.7,2 -0.2,2.7 a 10.7,10.7 0 0 1 -7.3,2.8 c -4.4,0 -7,-4.4 -11,-3.7 -0.8,-1.2 -2.3,-1.8 -2.7,-3.3 -0.3,-1.3 0.8,-1 1.2,-1.6 -1,-0.4 -1,0.5 -1.6,0.6 -0.1,-0.9 -0.4,-1.5 -0.8,-2.1 0,0.8 -1,0.7 -1.4,1 -0.3,-1.2 -2.8,-0.9 -2.5,-2.7 0.6,0 1,0 1.3,-0.4 -0.6,-0.1 -1,-0.5 -1.7,-0.4 -1,2 -2.7,2 -4.7,1.8 l -4.3,-0.8 a 6,6 0 0 0 -3.3,0.5 c 0.1,-1.6 -0.3,-3.6 0.7,-4.7 0.8,0.6 0.5,2.2 2,2.2 1,-1.4 2.3,-0.7 4,-1.4 0.2,-0.7 0.3,-1 0.1,-1.7 0.7,0 1.6,0.3 2,0 0,-1 -0.6,-1.4 -1.1,-2 0.6,-1.9 2.2,-1.6 3.8,-1.9 h 0.1 l 0.6,-0.1 c -0.8,-0.4 -1.7,-0.6 -2.7,-0.8 -1,0.6 -2,2.5 -3.7,1.4 1,-2 1.7,-4.3 3.8,-5 0.5,0.2 1.2,1.4 1.7,0.8 -0.4,-0.6 -0.8,-0.8 -1.2,-1 0.3,0 0.2,-0.4 0,-0.6 h 0.1 z m 0,0 c 0.3,0.2 1.1,0.6 1.2,0 a 3,3 0 0 0 -1.2,0 z m -6.2,-24 c 0.9,0.2 1.2,-1.6 0.4,-1.7 0,0.8 -0.5,0.8 -0.4,1.7 z"
         transform="matrix(3.36,0,0,1.54,-680.3,-171.8)"
         id="path58"
         inkscape:connector-curvature="0" />
      <path
         d="m 298,217 -0.4,0.5 0.1,-0.3 c 0,-0.7 -0.7,-0.9 -1,-1.4 3.1,-4 -0.3,-5.9 -3.9,-6.9 -1,0.7 -1.6,1.8 -2.3,2.8 -0.3,-1.9 2.5,-2.5 2.2,-4.9 0.1,0.7 0.4,1.3 -0.1,1.6 2.8,1.2 7.9,3.1 4.3,7.2 0,0.7 1,0.7 1.1,1.4 z m 0,1 a 2,2 0 0 0 -0.3,1 c -1.3,-0.4 -2.8,0 -3.5,-0.4 0.7,-0.9 3.1,0.4 3.8,-0.6 z m 0,1 z m -2,6 v 0.1 c -0.3,0.9 -0.8,1.5 -2,1.4 1.4,-0.1 1.8,-1.8 2,-1.5 z"
         transform="matrix(3.36,0,0,1.54,-680.3,-171.8)"
         id="path60"
         inkscape:connector-curvature="0" />
      <path
         d="m 294,226 c 0,0.6 0.3,0.8 0.1,1.5 -1.2,0.3 -2.5,0.5 -3.2,-0.6 0.4,1.4 -0.1,2.6 -1.5,2.6 1.3,-0.6 1.7,-2 0.8,-3.7 0.9,1 0.3,-0.5 -0.4,-0.3 1.4,-0.8 1,1.7 2,2 0.9,0 1.5,0 2,-0.3 0.4,-0.6 -0.2,-0.6 0,-1.3 h 0.2 z m 0,0 h -0.4 z m -1,-19 c 0,-0.2 0,-0.4 -0.2,-0.6 -1.9,-0.3 -2.7,0.7 -4.4,0.8 0.2,-3 3.8,-3.3 2.2,-6.6 -1.8,0.5 -4.2,-0.6 -3.9,-1.7 0.5,1.4 2.2,1.7 4,1.4 2,3 -1.6,4 -2,6.6 1.5,-0.3 2.4,-1.1 4.4,-0.8 -0.1,0.3 -0.1,0.5 0,0.8 z m -4,24 c 0.2,-0.8 -0.7,-0.8 -0.9,-1.3 l 0.4,-0.1 c 1.3,0.8 0.3,2.7 -0.5,3.7 -1.6,-1 -2.7,0.6 -3,2.2 h -0.2 c 0.3,-1.7 1.5,-3.4 3,-2.5 0.6,-0.4 0.8,-1.3 1.2,-1.9 z m 0,-1 h -0.3 z m 2,-36 c -0.3,1.1 -1.9,0.5 -2.4,1.3 -0.6,0.5 0.5,1 0,2 -0.6,0.6 -1.4,0.9 -2,1.3 0.2,-1 1.5,-0.6 1.8,-1.6 -1,-2.2 1,-2.2 2.3,-3 -0.7,-0.9 -1.5,-0.6 -2.2,0 l 0.8,-0.9 c 1,0 1.5,0.3 1.7,1 z m -6,41 z"
         transform="matrix(3.36,0,0,1.54,-680.3,-171.8)"
         id="path62"
         inkscape:connector-curvature="0" />
      <path
         d="m 289,194 c -0.5,0.5 -0.9,1.1 -1,1.7 -0.8,-0.2 -1.3,0 -1.6,0.2 z m -4,41 a 10,10 0 0 1 -3.3,-2.1 l -0.1,1.5 c -5.6,0.8 -8,5.4 -13,7.3 l -0.3,-0.2 c 5,-1.6 7,-6.6 13,-7 0,-0.6 0.5,-1.7 0,-1.9 a 25,25 0 0 1 3.7,2.4 z m 1,-39 c -0.5,0.5 -0.6,1.3 -0.9,2 a 7.8,7.8 0 0 0 -2.8,-2.3 c -0.6,-1.3 1.8,-3.4 -0.9,-3.6 0.4,-3.5 -2.5,-2.2 -5.3,-2.6 2.4,-0.2 5.7,-1 5.6,2 0.2,0.5 0.8,0.5 1.2,0.7 0.3,1.5 -0.3,1.6 -0.6,3 0.7,0.9 2,1.3 2.5,2.3 0.3,-0.6 0.7,-1.1 1.1,-1.5 z"
         transform="matrix(3.36,0,0,1.54,-680.3,-171.8)"
         id="path64"
         inkscape:connector-curvature="0" />
      <path
         d="m 277,190 c -0.7,1.9 1.6,4.4 0.1,6.3 -0.6,0.2 -1.3,0.3 -1.8,0.6 0,0.6 0.2,1.2 0.6,1.6 -0.7,0.4 -1.7,-1 -2.9,-0.8 0.1,-0.8 -0.6,-1 -0.3,-1.8 0.1,1.3 1.2,1.9 2.5,2.3 0.7,-0.2 -0.4,-0.8 -0.1,-1.3 0.6,-0.2 0.9,-0.8 1.8,-0.6 1.5,-2 -0.8,-4.4 -0.1,-6.3 z m -8,52 c -0.4,-0.3 -0.9,-0.7 -0.9,-1.4 -0.8,0 -0.5,1.2 -0.7,2 -3.2,-1 -4.6,1.4 -7,0.5 -0.6,0.1 -0.8,0.8 -1.2,1 0,0.9 1,0.8 0.9,1.7 a 13,13 0 0 1 -7.3,2.8 c -4.5,0 -7.2,-4.4 -12,-3.7 -0.9,-1.5 -3.1,-2 -2.8,-4.3 -0.5,0.8 -1,0 -1.5,-0.4 0,-0.4 0.6,-0.2 1,-0.2 0,-0.5 -0.5,-0.7 -0.4,-1.3 -0.4,0.3 -1.1,0.4 -1.3,0.9 l -0.2,-0.3 c 0.4,-0.4 1.3,-0.2 1.4,-1 0.4,0.5 0.7,1.2 0.8,2 0.6,0 0.6,-0.9 1.6,-0.6 -0.3,0.7 -1.4,0.4 -1.2,1.6 0.3,1.5 1.9,2.1 2.7,3.3 4.4,-0.7 7,3.7 11,3.7 2.6,0 5.5,-1 7.3,-2.8 -1.4,-0.7 -0.6,-2 0.2,-2.7 2.6,1 4,-1.2 7,-0.5 0.4,-0.5 0.4,-1.5 0.7,-2.2 0.7,0.4 0.8,1.3 1.3,1.9 z m 3,-46 c -2.8,-0.5 -3,2.2 -3.7,4.2 l -2,-0.2 c -0.4,-2.4 -2.1,-3.8 -4.6,-4.5 -0.8,0.7 -1,3 -0.6,4.2 -0.5,-1.4 -0.7,-2.9 0.3,-4.5 2.5,0.8 4.6,2 4.8,4.5 l 1.5,0.2 c 1.3,-1.5 1.1,-4.8 4.2,-4.1 v 0.2 z"
         transform="matrix(3.36,0,0,1.54,-680.3,-171.8)"
         id="path66"
         inkscape:connector-curvature="0" />
      <path
         d="m 262,200 c 0.2,1.7 0.6,4.3 -0.1,6 -1.5,-1.4 -0.6,-4.7 -1.6,-6.5 -0.8,0 -1.1,-0.3 -1.7,-0.4 0.6,-3.1 -1,-5.8 -3.8,-4.7 -0.2,0.9 -0.5,1.2 -0.2,2 -0.8,-0.7 -1.3,-0.5 -2.5,-0.5 -2.2,1.8 0.6,5.3 -1.5,7.2 -0.8,0 -0.7,-0.5 -1.5,-0.4 -0.2,-1.8 -1,-3.1 -1.7,-4.4 0.3,0.4 0.6,0.8 1.3,1 0.6,1.2 0,3.3 1.7,3.5 2,-1.7 -0.8,-5.3 1.5,-7.2 1,0.3 1.5,-0.4 2,0.2 0.5,-0.3 0.5,-1.3 1,-1.7 2.7,-1.1 4.4,1.5 4,4.4 0,0.6 0.8,0.5 1.4,0.6 1.1,1.5 0.5,4.5 1.4,6.2 1.1,-2.4 0,-4.3 -0.7,-6.3 0.2,0.6 0.6,1 1,0.8 z"
         transform="matrix(3.36,0,0,1.54,-680.3,-171.8)"
         id="path68"
         inkscape:connector-curvature="0" />
      <path
         d="m 248,198 c -0.7,-1.2 -1.3,-2.4 -1.5,-4 -1.1,-0.2 -1.4,0.6 -2.3,0.5 -0.2,4.8 1.4,8.6 -1.5,12 -1,-0.1 -1.5,-0.8 -1.9,-1.5 0,-1 0.6,-1.5 0.5,-2.7 -1.9,0.5 -3,2 -3.3,4.7 -0.2,-0.2 -0.5,-0.3 -0.8,-0.3 0.1,-0.2 0.4,-0.3 0.6,-0.2 0.3,-2.6 1.6,-3.9 3.5,-4.4 0.6,0.9 -0.2,2 -0.3,3 0.2,0.6 0.8,0.7 1.1,1.1 3.4,-3 1.4,-7.3 1.7,-12 1,-0.2 1.4,-0.8 2.6,-0.7 0.8,1 0.8,3 1.5,4.2 z m -12,41 c -0.7,-0.7 -1.7,-1 -2.6,-1.5 0.2,-0.5 -0.1,-0.7 -0.2,-1 -0.1,-0.8 0.6,-0.4 1,-0.4 -1.8,-0.8 -2.4,2.1 -4.5,1.8 -0.3,-0.4 -0.8,-0.5 -1.4,-0.6 2,0.3 3.8,0.1 4.7,-1.8 0.9,0 1.1,0.3 1.7,0.4 -0.2,0.4 -0.6,0.5 -1.3,0.4 -0.2,1.8 2.2,1.4 2.5,2.8 z m 1,-32 c -0.2,2 0,3.5 -0.3,5.6 l -0.2,-1.8 c 0,-1.4 0,-3.1 0.5,-3.8 z m 0,0 h 0.1 l -0.1,0.2 z m -1,-10 c -0.1,2.3 -0.7,4 -1.8,5.1 l -1.5,-0.1 c -0.1,-0.8 -0.3,-1.6 -0.8,-1.9 -0.7,0.7 0.6,1.6 0.5,2.6 4.5,0.1 2.4,5.5 3.4,8.4 -1.5,-2.4 1,-8 -3.4,-8.2 -0.2,-1 -1.3,-2.2 -0.7,-3 1.3,0 0.7,1.5 1.6,1.8 l 0.5,0.1 c 1.5,-0.4 1.7,-2.6 2,-4.6 0,-0.7 -1.4,-0.3 -1.7,-1 -0.5,0.1 0.2,1 -0.8,0.7 0,-1 1,-0.9 1.9,-1 0,0 -0.3,0.2 -0.6,0.1 0.3,0.5 1.1,0.5 1.4,1 z m -2,-3 c 1.2,-0.3 2.4,1.2 1.9,1.7 -0.3,-0.6 -0.3,-1.3 -1.2,-1.4 -0.6,-0.3 -0.5,0.4 -0.8,0.6 0.1,-1.6 -1,-3.8 -2,-5.2 l -2.2,-0.2 c 0.4,-3.3 -3.9,-4.9 -6.6,-4.2 0.9,1.1 -1,1.4 -1,1.7 0.3,1.6 4.2,0.8 5.9,2.1 0,0.2 -0.2,0.4 -0.3,0.5 -2,-2 -4.5,-0.6 -6,-2.6 1,-0.4 1.6,-0.6 1.2,-2 3,-0.6 7.2,1 7,4.4 l 2,0.2 c 0.8,1.5 2.2,2.4 2.2,4.5 z m -1,34 -0.6,0.1 c -0.5,-0.4 -1.3,-0.5 -2,-0.6 -1,0.8 -2.2,2.4 -4,1.4 0.8,-2.4 2,-4.4 3.8,-5.4 -1.5,0.4 -2.5,1.7 -3.5,2.7 -1.4,-0.7 -1.6,-2.3 -2,-3.7 0,-1 0.8,-0.8 1.1,-1.4 0,-0.7 -0.5,-1.1 -0.6,-1.8 -3.6,1.2 -8.9,-3.1 -10,0.4 -0.8,-0.3 -1,0.3 -1.8,0 -0.6,-1 -1.6,-1.8 -1.4,-3.6 1,-0.7 2.4,-0.7 3.2,0.3 4,-2.6 9.5,-2.3 15,-1.2 0.6,-0.9 1.5,-1.9 1.1,-3.2 -1.5,2.5 -4.5,1.4 -6.8,0 1.5,-2.3 4,-3.4 6.6,-4.4 l 1.5,-0.5 c -2.7,1.4 -6,2.2 -7.8,4.7 2,1.3 5.2,2.5 6.3,-0.1 1.5,0.9 -0.2,2.7 -0.6,3.7 -5.8,-1 -11,-1.5 -15,1.2 -1,-0.7 -1.9,-1.3 -3.2,-0.6 -0.2,1.8 0.7,2.7 1.7,3.4 1.1,0 1.6,-0.9 2.2,-1.5 2.8,-0.2 6.2,1.6 9.5,1 l 0.8,1.8 c 0,0.8 -0.9,0.7 -1.2,1.4 0.2,1.5 0.7,2.8 1.6,3.7 1.4,-1 2.8,-2.7 4.6,-3 0.2,0.2 0.3,0.6 0,0.7 0.3,0 0.7,0.3 1.1,0.8 -0.5,0.6 -1.2,-0.5 -1.7,-0.6 -2,0.6 -2.8,2.9 -3.8,4.9 1.7,1 2.7,-0.8 3.7,-1.4 1,0.2 2,0.3 2.7,0.7 z m -1,0 h -0.1 z"
         transform="matrix(3.36,0,0,1.54,-680.3,-171.8)"
         id="path70"
         inkscape:connector-curvature="0" />
      <path
         d="m 228,230 c 0.7,-1.9 1.8,-3.1 4.1,-2.4 -1.6,0.3 -3.2,0 -3.8,1.9 0.5,0.5 1,1 1.1,1.9 -0.4,0.3 -1.3,0 -2,0 0.2,0.8 0.1,1.1 -0.2,1.7 -1.6,0.8 -3,0 -3.9,1.4 -1.6,0 -1.2,-1.6 -2,-2.2 -1,1.1 -0.6,3.1 -0.7,4.7 1,-0.5 2,-0.5 3.3,-0.4 -1.3,0 -2,0.7 -3.3,0.7 -0.5,-1.6 -0.2,-3.5 0.3,-5.3 1.5,0 1,1.8 2,2.2 0.9,-1.2 3.3,-0.6 4.4,-1.6 0.2,-0.8 -0.4,-0.8 -0.1,-1.5 l 2,0.2 c -0.2,-0.7 -0.2,-1.4 -1.1,-1.4 z m 3,-8 h 1.2 c -0.1,0.6 -1,0.2 -1.2,0 z m 0,0 z"
         transform="matrix(3.36,0,0,1.54,-680.3,-171.8)"
         id="path72"
         inkscape:connector-curvature="0" />
      <path
         d="m 228,237 c -1.4,-0.2 -3.3,0.3 -4.3,-0.7 1.4,0.1 2.9,0.5 4.3,0.7 z m 0,-32 h -0.3 l -1,-0.2 c 1.2,-0.2 2.3,-1.8 2.7,-1 -0.4,-0.4 -0.8,1.5 -1.9,1.7 -0.3,0.6 0.4,0.5 0.4,1 1,0 0.9,-1.2 1.6,-1.3 1.2,0.5 1.6,1 1.5,1.2 -0.1,0 -0.5,-0.2 -1.2,-1 -0.9,0 -0.8,1.3 -1.6,1.4 -0.7,0 -1.4,-1.7 -0.4,-1.8 h 0.3 z m 0,0 z m -5,-15 c 0.8,3 5.2,3.1 4,7.7 -0.5,-0.2 -0.4,-0.8 -0.6,-1.3 l 0.5,0.3 c 0.7,-4 -3.8,-3.6 -4.1,-6.7 1.2,-1.2 3,0.7 4.3,0.2 -0.8,1.1 -2.7,-1 -4.1,-0.2 z m 3,15 h -0.5 z"
         transform="matrix(3.36,0,0,1.54,-680.3,-171.8)"
         id="path74"
         inkscape:connector-curvature="0" />
      <path
         d="m 226,196 0.2,0.3 -0.3,-0.3 z"
         transform="matrix(3.36,0,0,1.54,-680.3,-171.8)"
         id="path76"
         inkscape:connector-curvature="0" />
      <path
         d="m 226,196 -0.2,0.5 c -0.8,-0.6 -0.7,-1.8 -1.2,-2.6 0.6,0.5 0.9,1.5 1.4,2.2 z m 0,9 a 6,6 0 0 0 -2.7,0 c 0,-0.4 -0.5,-0.6 -0.4,-1.2 -0.8,-0.4 -1.5,0.9 -2,0 0.7,0.1 1.1,-0.4 2,-0.3 0.3,0.4 0.2,1.1 0.7,1.3 0.5,0.2 0.4,-0.4 0.8,-0.4 0.8,0 1.2,0.2 1.6,0.6 z m -1,-8 c 0.8,0.2 0.4,1.9 -0.4,1.7 -0.1,-0.9 0.4,-1 0.4,-1.7 z m 0,-3 z m -1,-1 c 0.2,0 0.3,0.2 0.5,0.3 -0.5,0.1 -0.8,0.6 -1,1.2 -0.5,-0.3 -0.8,-0.8 -1.6,-1 0,-0.7 -0.1,-1.3 -0.5,-1.8 0.6,0.7 1,1.5 1.7,2.2 0.6,0.2 0.7,-0.4 0.8,-0.9 z"
         transform="matrix(3.36,0,0,1.54,-680.3,-171.8)"
         id="path78"
         inkscape:connector-curvature="0" />
      <path
         d="m 222,192 c -0.7,-0.9 -2,-1.4 -3.3,-1.7 l -1.2,1.4 c 0.2,1.3 2,1.3 1.7,3 -0.7,-0.9 -1.8,-1.5 -2.8,-2.2 -1.7,2.4 2.1,4 4,5 -1.8,0.4 -3,-1.7 -4.8,-2 -2,2.3 2.3,4.4 4.7,3.2 0,1.4 -1.7,0.8 -2.6,1 -0.6,0 0.3,0.7 0.5,0.8 v 0.3 l -1,-0.9 c 0.1,-0.5 0.7,-0.4 1.3,-0.3 -2.3,-0.4 -4.8,-2.2 -3,-4.3 0.8,-0.1 0.8,0.6 1.6,0.6 -0.7,-0.8 -2.2,-2 -1,-3.6 1.2,0.3 1.8,1.1 2.8,1.6 -0.3,-0.8 -1.2,-1.3 -1.8,-2 0.5,-0.6 1.1,-1 1.5,-1.9 1.8,0.2 2.7,1 3.5,2 z m -1,12 c -0.5,0.2 -0.8,0.6 -0.9,1.2 -3,-0.9 -3.8,1.1 -6.2,1.1 a 1,1 0 0 0 -0.3,-0.7 h 0.1 c 1,1.7 3.4,-1.7 5.9,-0.7 0.5,-0.1 0.7,-0.6 0.9,-1.2 z m -2,-3 c 0.7,0.7 -1.2,0.6 -1.4,1.1 l -0.1,-0.3 1.2,-0.5 z m -2,0 h -0.1 v -0.1 z"
         transform="matrix(3.36,0,0,1.54,-680.3,-171.8)"
         id="path80"
         inkscape:connector-curvature="0" />
      <path
         d="m 217,200 c 0,0.5 0.3,0.7 0.1,1.3 -0.7,-1.6 -2.3,-2.5 -4,-3.5 -1,1 0.2,2.3 1.3,3.1 l -0.2,0.1 c -0.5,0.2 -0.8,-0.1 -1.3,-0.2 0.3,1 1,1.9 2,2.5 l -0.8,0.2 c 0.4,-0.8 -1.6,-1.6 -1.5,-3 l 0.7,0.1 c -0.5,-0.7 -0.9,-1.7 -1,-2.9 2,-0.6 2.8,1.9 4.7,2.2 z"
         transform="matrix(3.36,0,0,1.54,-680.3,-171.8)"
         id="path82"
         inkscape:connector-curvature="0" />
      <path
         d="m 215,202 c -0.2,0.5 -1.2,-0.1 -0.9,-0.5 h 0.2 z m -1,1 c -1.1,0 -1.8,-2.1 -3,-2.5 -1,0.4 -0.6,2 -2.2,2.3 1,-0.8 1.4,-1.4 1.8,-2.6 1.9,0.3 2.2,2 3.5,2.9 z m 0,-2 -0.2,0.1 z m -1,4 c -0.9,-1.4 -3,-1.5 -4.9,-1.8 l 0.3,-0.2 c 1.1,0.7 3.2,-0.2 4.2,1 z m -4,-2 z"
         transform="matrix(3.36,0,0,1.54,-680.3,-171.8)"
         id="path84"
         inkscape:connector-curvature="0" />
    </g>
    <path
       style="fill:#c5c5c5;stroke:#757575;stroke-width:2.29999995"
       d="m 1325.7,756.8 -3.4,1.5 h -10 l -6.8,1.6 -6.7,-1.6 -13.5,-4.6 -6.7,-1.5 h -6.7 v 3 l 3.4,3.1 -3.4,3.1 -13.4,1.6 h -6.8 l -3.3,3 6.7,3.1 -3.4,6.2 v 7.7 l -6.7,1.5 -6.7,3 -3.4,1.6 h 13.5 l 6.7,4.7 6.7,4.6 10,1.5 10.2,6.2 10,1.5 13.5,4.6 6.7,1.6 13.5,3 13.4,-1.5 13.4,-3 6.8,-3.1 13.4,-1.6 3.4,-1.5 10,-1.6 13.5,-4.6 h 10 l 6.8,-3 6.7,1.5 3.4,1.5 v -1.5 l 6.7,-1.6 16.8,-3 10,-3.1 3.4,-7.7 6.7,-4.6 3.4,-6.2 v -4.6 l 10,-4.6 v -4.7 l 3.4,-4.6 v -3 l 3.4,-3.1 10,-4.7 h 6.8 l 3.4,-3 3.3,-1.6 -3.3,-4.6 -10.1,-1.5 -10.1,-3.1 -10,-1.6 -10.2,1.6 -13.4,-3.1 h -13.4 l -10.1,1.5 -13.5,1.6 -10,3 v 4.7 l -10.1,1.5 -10.1,3 H 1376 l -10.1,3.2 -10.1,3 -13.4,1.6 -3.4,4.6 -3.4,3 h -3.3 z"
       id="path88"
       inkscape:connector-curvature="0" />
    <g
       style="fill:#c5c5c5;stroke:#757575"
       id="g94">
      <path
         d="m 666,721 -3,4 -5,1 -3,1 h -1 l 1,3 1,4 -3,3 -2,5 -2,3 v 3 l -1,2 -2,2 2,4 3,2 5,6 1,-3 4,1 1,2 -2,1 h -3 l 4,5 2,3 2,1 h 1 l 1,-1 1,-1 4,1 5,-1 h 3 l 3,-1 h 3 l 2,-2 2,2 2,1 h 3 v 2 l -2,1 2,1 4,-1 4,-1 4,3 3,1 1,-2 -1,-3 v -2 l -2,-3 -2,-1 -2,1 -2,-2 -3,-1 h -1 l -2,-3 -3,1 -2,-1 h -3 l -3,-1 -2,-1 3,-2 h 3 l 1,-1 -1,-1 -2,-3 v -2 h 3 l 1,1 v 2 h 2 l 1,-1 -1,-2 -2,-2 -3,-2 -3,-2 -2,-3 -2,-2 -1,-3 -1,-4 v -4 l 2,-1 2,2 3,1 3,2 4,4 4,1 v -1 l -2,-1 -2,-3 h 4 l 2,2 3,2 v -2 l -4,-3 -1,-2 2,-1 3,1 2,1 h 2 l -1,-1 -1,-1 -2,-1 -4,-1 -4,-3 3,-3 4,-1 2,-4 3,1 2,-1 1,-1 3,-2 h 12 l 5,2 1,-3 v -8 l 2,-3 v -4 l -3,-1 -1,-1 -4,1 1,4 -3,4 -5,2 h -6 l -4,-1 -3,-1 h -3 l -3,2 -5,3 -6,1 -4,2 -2,1 h -2 l -4,5 -5,1 z m -23,33 -1,-2 -2,-1 -2,1 3,4 2,2 h 2 v -1 z m 12,26 h 3 l 1,1 1,-3 -3,-1 -1,-2 -1,1 -2,2 2,1 z"
         transform="matrix(3.36,0,0,1.54,-680.3,-171.8)"
         id="path90"
         inkscape:connector-curvature="0" />
      <path
         d="m 689,804 v 2 l 2,1 v -7 h 3 l 4,3 2,2 1,-1 -2,-4 v -2 l -3,-7 -3,-3 -1,-3 h 1 l 2,1 2,1 1,2 1,-1 2,-2 2,-1 -1,-2 h -1 l -2,-1 -2,-2 -1,-2 -1,-1 -2,-1 -8,-1 -3,-1 h -2 l -1,-1 h -3 l -2,1 -3,3 h -2 l -3,5 v 3 l 3,3 4,1 3,3 -1,5 2,4 2,1 h 2 v -3 l 2,-2 1,1 3,2 z m 35,-30 1,-1 -1,-2 v -1 l -2,-1 h -2 v 2 l 1,1 z m -6,-42 h 2 v -3 h -2 l -2,1 v 2 l 1,1 v -1 z m -9,-12 v -2 h -2 l -2,3 1,1 h 3 l 1,-1 z m -14,41 2,1 3,1 1,2 3,1 h 2 l 4,1 1,2 1,2 2,1 h 3 l -1,-2 h 1 v -3 h -4 l -3,-3 v -3 l -2,-1 h -7 l -3,-2 -3,-1 v -1 h -2 l -2,3 -1,1 h 3 z m 36,52 1,1 v -2 l 2,-1 1,-2 h 1 v 7 h -2 l -1,1 h -5 l -1,2 -4,1 -3,2 v -2 l -1,-1 -6,-1 -1,1 -8,-1 -1,-2 1,-2 h 1 v -2 h 1 l 1,2 h 2 v -2 h 1 v 2 h 3 l 1,2 h 2 l 2,-3 h 6 l 1,-1 3,1 2,-1 z m -69,-27 -1,-1 v -3 l 3,2 v 2 z m 66,-2 h 2 l 1,2 h -3 z m 1,13 h -1 l -1,-1 h 1 z"
         transform="matrix(3.36,0,0,1.54,-680.3,-171.8)"
         id="path92"
         inkscape:connector-curvature="0" />
    </g>
    <path
       style="fill:#c5c5c5;stroke:#757575"
       d="m 524,480 1,-1 1,1 v 1 h 3 l -1,2 v 1 l 1,1 v 1 h -2 l -1,1 -1,-1 -2,-1 h 1 v -1 l -1,-2 h 1 l 1,1 h 2 l -1,-1 -1,-1 z m -7,4 h 2 l -2,1 -1,1 -1,1 2,-1 h 1 l 2,-1 h 1 l 1,1 2,1 1,2 1,1 2,-1 h 1 v 2 l 1,1 1,3 h 2 l 1,1 h 2 v 2 l 1,2 1,1 v 6 l -1,3 v 4 l 1,1 2,1 1,2 v 5 l 1,2 1,3 v 4 l 1,3 1,2 2,2 h 1 v 6 l -1,3 v 2 h -2 l -1,-1 -2,-3 h -2 v 2 l -1,3 -2,1 -3,1 -3,1 -1,3 -3,2 -3,1 h -1 l -2,1 -2,1 v 1 l -1,2 -1,-1 -3,-2 v 3 l 2,2 3,1 1,3 v 4 l 2,3 7,5 2,2 2,2 4,3 1,1 v 2 l -2,1 -2,1 -1,2 v 2 l -5,2 -1,3 v 4 l 2,3 v 2 l -1,1 -2,-2 -3,1 -3,-1 -1,1 -5,1 h -2 l -2,2 -3,2 h -3 l -3,-2 h -3 l -1,1 -1,2 h -1 l -3,-1 -1,-2 h -4 l -2,1 -2,-1 -3,-1 -2,-1 h -2 l -6,1 h -3 l -4,1 h -1 l -2,-1 -1,-1 v -5 l 1,-4 1,-5 1,-3 2,-3 2,-3 1,-2 -3,-1 -4,-2 -5,-2 h -5 l -1,-2 -1,-2 -2,-1 -1,-2 1,-1 v -3 l -1,-1 -1,-2 v -3 l -1,-1 2,-4 v -2 l -1,-2 v -2 l -1,-1 v -2 l -1,-1 v -4 l 2,-2 v -8 l -1,-4 1,-2 2,1 2,1 2,-1 1,-2 1,-2 2,-2 1,-2 1,-2 -4,-2 -1,-2 4,-2 v -2 l 1,-2 v -3 l 1,-2 3,-1 1,2 h 1 l -1,-2 -1,-1 -1,-1 h -2 v -2 l 1,-1 1,-2 h 2 l 4,-1 3,1 1,2 v 2 h 2 v -2 l 1,1 1,2 2,2 -2,-5 v -3 l 1,-1 v -1 h 2 l 3,-1 h 1 l -2,-1 -1,-1 v -2 h 1 v -1 h -1 l -1,-2 1,-1 -1,-1 h -1 v -1 h 1 l 1,-1 1,-1 v -1 l -1,-2 -1,-1 -1,-1 v -3 l 2,1 5,1 h 4 l 1,1 1,2 v 2 l -1,1 1,1 h 1 l 1,1 h 1 l 1,-1 2,1 1,1 h 3 l 1,-1 1,1 v 2 l -1,1 -1,1 -1,2 1,1 v 1 l 1,-1 2,-1 1,1 h 3 v -2 h 1 l 1,-2 3,-1 h 1 v 1 h 1 l 1,-2 1,-2 2,-2 z"
       transform="matrix(3.36,0,0,1.54,-680.3,-171.8)"
       id="path96"
       inkscape:connector-curvature="0" />
    <path
       style="fill:#c5c5c5;stroke:#757575"
       d="m 428,566 h 2 v 1 l -1,3 v 1 h 1 v 2 l 2,1 2,2 2,1 2,-1 4,2 h 1 l 2,-1 1,2 2,1 1,2 1,2 h 5 l 5,2 4,2 3,1 -1,2 -2,3 -2,3 -1,3 -1,5 -1,4 v 5 l 1,1 -2,1 -1,1 h -3 l -1,-1 -2,2 1,1 -2,2 -2,3 -1,1 -2,2 -1,3 -2,1 -1,1 -1,1 v 3 l -1,2 v 3 l 1,1 2,-1 1,-2 1,-2 h 4 l 1,1 v 5 l 1,1 1,1 1,1 v 1 h -3 v 2 l 1,1 v 2 l 2,4 v 3 l -2,1 -2,2 v 4 h 1 l 1,1 1,2 -1,2 v 3 l 1,3 1,2 h 2 l 3,1 h 1 l 1,2 v 4 l -1,1 -4,2 -1,1 -1,1 -2,2 -1,1 -2,1 h -1 v 3 l -4,1 -2,1 h -5 v -1 l -1,-1 -1,-1 h -4 v -2 h -2 l -1,-1 h -3 l -1,1 -2,-1 h -2 l -1,-1 v -1 l -4,-1 -1,-1 h -2 l -2,1 -1,2 -3,1 -2,1 -3,1 -2,3 -1,3 v 1 h 1 v 8 l -2,-1 h -14 l -2,-1 -3,-2 -1,-1 -2,-1 h -2 l -3,-3 -2,-1 h -2 l -3,2 h -2 l -4,-1 -4,-2 -7,-3 -2,-2 -2,-2 -3,-1 -2,-1 -2,-2 -1,-2 -2,-2 v -1 l 2,1 3,-1 2,-3 1,-4 2,-5 2,-5 2,-4 1,-1 -2,-2 v -1 l 1,-3 1,-5 1,-4 1,-1 2,2 1,2 1,1 -1,-3 -1,-3 -3,-2 v -2 l 1,-3 1,-3 -1,-2 1,-2 h -1 l -2,-1 -3,-2 -3,-2 -1,-4 -1,-3 v -7 h 5 l -2,-1 -4,-1 h -3 v -3 l 1,-1 -1,-1 -4,-1 h 1 l -1,-1 h -4 l -1,-1 v -1 l -2,-1 -2,-2 -3,-1 -1,-1 -2,-1 -3,1 -1,-2 -2,-3 1,-1 h 2 v -1 h -2 v -2 l 1,-1 h 2 v -1 h -5 l 1,-1 1,-2 3,-1 2,-1 h 4 l 2,1 2,-1 h 2 v -1 h 4 l 2,1 1,1 2,2 2,2 h 11 v 1 l 3,1 1,-1 -1,-2 v -11 l -2,-1 v -6 l 2,1 h 5 l 1,1 -1,1 1,2 1,2 h 1 l 4,1 3,2 h 4 l 3,-2 h 5 l -1,-1 h -4 v -2 l 2,-2 4,-2 h 3 l 4,-1 3,-2 4,-3 v -1 l -1,-1 2,-7 1,-4 3,-1 h 5 l 3,-1 h 1 v 5 l 3,2 h 2 l 1,2 1,2 2,1 1,1 h 1 l 1,1 3,1 1,1 v 6 l 3,1 h 2 l 1,-2 z m 49,160 h -2 v -6 l -1,-1 -1,-2 v -1 l 1,-1 v -4 l 1,-1 h 1 l 2,-1 1,-1 1,-1 h 3 v -2 l 1,-1 v -2 l 1,1 v 7 l 2,7 v 3 l -1,2 -1,3 -1,1 v 2 l -1,1 v 1 l -1,2 v 1 l -1,-2 h -2 l -1,-1 -1,-2 z"
       transform="matrix(3.36,0,0,1.54,-680.3,-171.8)"
       id="path98"
       inkscape:connector-curvature="0" />
    <g
       style="fill:#c5c5c5;stroke:#757575"
       id="g104">
      <path
         d="m 591,171 2,-1 v -2 l 2,-2 1,1 1,1 1,1 h 2 l 3,-3 v -2 l 3,-4 v -1 l -1,-5 -1,-2 v -4 l 1,-5 v -2 l 2,-1 3,-2 1,-1 3,-2 3,-2 1,1 2,2 1,1 h 3 l 2,1 2,4 1,2 -2,4 v 2 l 1,1 1,1 v 1 l -2,4 h 1 v 5 l 1,5 2,3 2,1 h 4 l 4,5 2,1 2,4 -1,6 -1,7 v 2 l 1,3 2,3 1,2 2,3 3,3 3,5 2,4 v 1 l -2,3 1,3 v 3 l 1,1 1,3 v 2 l 1,4 2,-1 2,3 1,3 2,3 3,1 1,3 v 4 l -1,3 v 3 l 2,3 4,2 2,1 h 2 l 1,3 1,1 2,2 v -2 l 2,7 v 3 l -2,9 -3,10 -2,5 -4,10 -6,12 -5,7 -1,2 -2,3 -1,-1 h -3 l -1,1 -2,1 -2,1 h -1 l -1,1 h -1 l -1,-1 1,2 -3,2 -1,-1 -1,3 -3,2 -2,2 h -1 l -2,1 -2,3 v 1 l -1,1 h -3 l -1,1 -2,2 -2,1 h -1 v -2 l -1,2 v 2 l -2,2 h -1 l 1,-2 1,-1 -2,-1 v -1 l -2,-3 v -2 l -1,-1 -2,2 -2,-1 1,-1 -1,-1 h -3 l -2,-1 -1,-1 -2,-1 -3,1 v -2 h 1 l -1,-1 v -3 l -1,-1 v -4 l 1,-3 -1,-3 v -5 h 1 l 1,1 -1,-1 -1,-2 -1,-1 -1,-1 v -3 l -1,-1 v -8 l -1,-2 -1,-1 -1,-1 -1,-4 1,-4 v -1 h 1 l 1,-1 v -2 l 2,-1 1,-1 -2,-1 1,-3 h 3 l 2,-1 v -2 l 1,-1 1,-2 1,-1 2,-5 v -3 l 2,-4 3,-6 2,-5 2,-3 v -6 l 4,-3 1,1 v -3 h 1 l -1,-2 -1,-1 v -2 l -1,-3 v -1 l -1,-1 -3,-3 h -1 l -2,-1 -1,-3 -1,1 h -1 l -1,-1 h -1 l -1,-1 -1,-2 -2,-3 -1,-3 v -9 l -3,-4 -1,-2 -1,-3 v -3 l -1,-2 v -1 l -1,-2 -1,-3 v -5 l -2,-3 -4,-5 -3,-2 h -5 l -5,-4 -4,-3 -2,-2 -1,-1 v -1 l 1,-1 1,1 2,-1 -1,-1 v -2 l 1,-1 h 2 l 2,1 3,4 2,2 1,2 1,1 h 3 l 2,1 z"
         transform="matrix(3.36,0,0,1.54,-680.3,-171.8)"
         id="path100"
         inkscape:connector-curvature="0" />
      <path
         d="m 613,358 v 4 l 1,-1 h 1 l 1,-1 v -4 h -1 v 1 z m -21,-2 h -2 v -1 l -1,1 v 1 l 1,2 -2,-1 v 2 l 1,2 h 2 l 2,2 v -2 h -1 l -1,-2 h 1 l 1,-2 v -1 z m 15,3 h -1 v 1 l 1,1 h 1 z"
         transform="matrix(3.36,0,0,1.54,-680.3,-171.8)"
         id="path102"
         inkscape:connector-curvature="0" />
    </g>
    <path
       style="fill:#c5c5c5;stroke:#757575"
       d="m 605,397 -3,-4 3,-5 4,3 -1,3 -1,4 z m -1,11 -3,-2 2,-4 3,-2 h 1 l 4,1 3,2 -7,6 v 5 l -1,2 -2,-3 z m 32,-6 h 5 l 2,3 8,1 3,-2 h 6 l 2,1 3,-2 -5,-5 -2,-7 -3,-1 -7,-7 v -5 h 6 v -5 l -12,1 -9,-1 -6,4 -5,1 -3,5 -5,1 -2,3 1,3 v 6 h 2 l 2,9 7,1 2,-3 2,1 1,3 2,-3 z"
       transform="matrix(3.36,0,0,1.54,-680.3,-171.8)"
       id="path106"
       inkscape:connector-curvature="0" />
    <g
       style="fill:#c5c5c5;stroke:#757575"
       id="g114">
      <path
         d="m 548,473 -1,-3 -2,-2 h -1 l -1,4 2,1 h 2 z m -49,5 v -1 l 1,-1 v -2 h 1 v -3 h 2 v 3 h -1 v 3 l -1,1 v 2 h -1 v -2 z"
         transform="matrix(3.36,0,0,1.54,-680.3,-171.8)"
         id="path108"
         inkscape:connector-curvature="0" />
      <path
         d="m 499,463 1,1 v 1 h -1 v 1 h 1 v 2 h 1 v 4 h -1 1 -1 l -1,1 h -3 l -1,-1 h -1 l -1,1 h -1 v -1 l 1,-1 h -1 l -1,-1 h -1 v -2 h -1 v -2 l -1,-1 v -1 h -1 v -1 h 1 l 2,1 1,-1 1,-1 h 3 l 1,1 h 1 v -1 l 1,-1 v 1 z m 12,14 h 1 v 2 h 1 v 2 h -2 l -1,-1 v 1 l -1,1 -1,-1 h -1 v -1 h -1 l -1,-1 h -1 v -1 h -1 1 l 1,-1 h -1 v -2 h 3 v 1 h 1 l 1,1 h 1 v -1 h 1 z m 5,2 h -1 v 3 h -1 v -4 h -1 v -2 l -1,-1 1,-1 v 1 h 1 l 1,1 h 2 l 1,2 h -1 z m -4,-21 -1,1 1,-1 v 2 -1 h 1 v -4 l 1,-1 v 2 l 1,1 v 1 h -1 v 2 l 1,-1 v -5 h -1 v -1 h -1 l 2,-2 1,-1 h 3 l 1,2 1,2 v 5 l -1,1 h -1 v 2 l -1,1 v 1 h 2 v 1 h 1 v 3 l -2,1 v -1 l -1,1 -1,1 h 1 v 3 l -2,1 -1,-1 h -3 l -1,-1 h 1 v -2 h -2 l -1,-1 h -1 l -1,1 -1,-1 v -1 h -1 v -7 h -2 v -1 l -1,-1 1,-1 h 4 v -2 h 2 v -2 l -1,-1 h 1 v 1 l 2,-1 h 1 v 1 l -1,1 v 2 -1 1 z m -40,-26 -1,2 h 4 l 1,-1 3,-1 2,-1 h 5 l 1,-1 h 2 l 1,1 h 4 v -1 l 2,-2 v -7 l 1,-2 h -1 l -1,1 -5,2 -1,2 -2,1 -1,2 -3,2 h -3 l -3,1 h -3 z"
         transform="matrix(3.36,0,0,1.54,-680.3,-171.8)"
         id="path110"
         inkscape:connector-curvature="0" />
      <path
         d="m 501,445 -1,2 -2,2 -1,1 v -1 l -2,2 v -3 l -2,1 v 5 l -1,2 -3,-1 v 1 l 1,2 -1,1 h -4 l 2,2 v 1 l -1,1 -1,1 1,1 h -1 v 4 h 1 v 1 h -1 l -1,1 v 3 h 1 l 1,1 1,1 v 1 l -1,-1 h -1 v 1 h -2 l -1,1 -5,-1 -2,-1 v -9 l -1,-2 -2,-1 -2,-2 -1,1 h -1 v -1 l 1,-3 v -3 l -1,-2 v -9 l 1,-3 v -2 l 2,-5 h 4 l 2,-1 h 3 l 2,-1 4,-1 h 7 l 1,1 1,2 v 1 h -1 l -2,1 1,2 2,-1 v 1 l -1,1 -1,1 1,1 1,-1 1,1 1,1 h 3 z"
         transform="matrix(3.36,0,0,1.54,-680.3,-171.8)"
         id="path112"
         inkscape:connector-curvature="0" />
    </g>
    <g
       style="fill:#c5c5c5;stroke:#757575"
       id="g120">
      <path
         d="m 590,562 h -4 l -2,-1 v -4 h -7 l -2,-1 h -1 v 3 l -2,2 -2,-1 -2,-2 -2,-1 v -4 h -2 l -3,-2 -2,-1 h -4 l -1,-2 -3,-1 -1,2 -2,2 -1,-1 h -2 l -1,-1 -2,-3 h -2 v 2 l -1,3 -2,1 -3,1 -3,1 -1,3 -3,2 -3,1 h -1 l -2,1 -2,1 v 1 l -1,2 -1,-1 -3,-2 v 3 l 2,2 3,1 1,3 v 4 l 2,3 7,5 2,2 2,2 4,3 1,1 3,1 2,1 h 5 l 2,-1 2,-2 1,-3 1,-2 h 8 l 2,1 3,2 4,-1 h 4 l 2,2 1,-2 2,-1 1,-1 3,1 3,-2 v -1 l 2,-3 v -2 l 1,-1 4,-4 1,-1 v -1 h 1 l 2,-2 -3,-1 -3,-3 z m 255,250 7,1 5,-1 10,-5 v 2 l -6,5 -1,1 1,4 h -4 l -2,3 -4,2 h -2 v 1 l -1,1 -1,-2 -7,-1 -2,-7 4,-1 h 2 v -2 z M 623,654 v -2 h -3 l -3,-2 -5,-6 -1,-8 -4,1 -2,2 -4,2 -4,1 -4,-2 -2,-1 -4,-3 -3,-1 -5,1 h -4 l -5,3 -3,6 -8,9 h -4 l -7,-1 h -4 l -4,2 1,3 1,2 2,4 2,1 h 1 l 2,-5 1,-5 4,1 2,2 h 1 l 1,1 1,3 v 3 l 2,4 3,2 3,2 -3,1 v 2 l 3,4 3,1 1,1 3,1 2,3 v 1 h 8 l 5,1 4,2 3,4 3,1 v 1 h -1 l -2,-2 h -3 l -1,1 4,1 4,2 h 4 l 6,3 2,1 2,1 2,1 1,1 v -7 l -8,-4 h -4 l -7,-9 -2,-3 -11,-7 -13,-12 v -5 h 5 l 8,-5 8,2 4,-1 11,-3 4,4 4,2 4,-1 z m 125,-5 -4,2 -6,-2 h -8 l -2,-1 -4,1 -6,4 -5,3 -4,5 -3,2 h -12 l -10,3 h -8 l -4,1 -3,-2 1,-3 -3,-1 -4,3 v 5 l 2,5 3,3 4,4 -2,3 -2,7 1,5 v 1 l 7,4 3,7 1,5 h 1 l 2,-1 4,-2 6,-1 5,-3 3,-2 h 3 l 3,1 4,1 h 6 l 5,-2 3,-4 -1,-4 4,-1 1,-2 5,-3 3,-2 5,1 4,-1 2,-1 2,-1 -1,-2 -3,-2 -1,-1 -2,-2 -1,-2 h -2 l -1,-1 2,-1 v -2 l 1,-1 2,-2 -1,-4 -1,-3 2,-4 4,-3 1,-3 -1,-4"
         transform="matrix(3.36,0,0,1.54,-680.3,-171.8)"
         id="path116"
         inkscape:connector-curvature="0" />
      <path
         d="m 626,678 -3,8 -4,1 -2,11 -8,-4 h -4 l -7,-9 -2,-3 -11,-7 -13,-12 v -5 h 5 l 8,-5 8,2 4,-1 11,-3 4,4 4,2 4,-1 v 11 l 5,7 z M 408,553 h 2 l 1,2 1,2 2,1 1,1 h 1 l 1,1 3,1 1,1 v 6 l 3,1 h 2 l 1,-2 1,-1 h 2 v 1 l -1,3 v 1 h 1 v 2 l 2,1 2,2 2,1 2,-1 v -6 l 1,-3 2,-1 h 2 l 2,-4 v -2 l -1,-2 v -2 l -1,-1 -3,-1 -1,-1 -1,-2 1,-3 v -2 l -2,-1 h -2 l -2,-1 v -2 h -1 l -1,-1 h -6 l -3,2 -3,1 h -1 l -3,-2 h -5 l -5,3 v 6 z m 102,63 -3,2 h -3 l -3,-2 h -3 l -1,1 -1,2 h -1 l -3,-1 -1,-2 h -4 l -2,1 v 2 l 2,1 1,2 -1,3 3,1 v 2 l 3,1 2,-2 1,1 1,1 h 1 l 2,1 h 1 l 4,-2 h 1 l 3,-2 h 5 l 2,-1 1,-1 h 2 v 2 l 1,1 1,2 1,1 2,1 h 1 l 2,1 2,1 h 8 l 1,1 h 2 l 4,-1 4,1 h 3 v -1 l 2,-1 v -1 l 1,-1 2,-1 2,-1 2,1 h 2 l 1,-2 h 5 l 1,-1 v -1 l 1,-1 1,-1 2,-2 2,-1 v -5 l 1,-4 -2,-2 1,-2 h 2 l 4,-1 1,-2 -1,-2 v -3 l -2,-2 -2,-5 v -3 l -2,-2 h -4 l -4,1 -3,-2 -2,-1 h -8 l -1,2 -1,3 -2,2 -2,1 h -5 l -2,-1 -3,-1 v 2 l -2,1 -2,1 -1,2 v 2 l -5,2 -1,3 v 4 l 2,3 v 2 l -1,1 -2,-2 -3,1 -3,-1 -1,1 -5,1 h -2 z m -136,92 1,1 2,-1 -1,-1 -1,-1 -2,-1 h -2 l 2,2 z m 256,26 1,-4 v -5 l -2,-3 v -2 l 1,-2 1,-4 -2,-1 -2,-1 1,-4 -1,-3 v -3 l 2,-2 1,-3 2,2 4,-2 3,3 3,1 4,4 -1,1 v 9 l 1,4 3,5 3,2 2,1 1,3 1,4 -3,3 -2,5 -2,3 v 3 l -1,2 -2,2 -3,-1 -1,-3 -2,-2 -5,-1 -3,-4 -2,-2 h 2 v -2 z"
         transform="matrix(3.36,0,0,1.54,-680.3,-171.8)"
         id="path118"
         inkscape:connector-curvature="0" />
    </g>
  </g>
  <g
     inkscape:groupmode="layer"
     id="cities"
     inkscape:label="Cities"
     style="display:inline"
     transform="translate(20.033844,19.973397)">
    <circle
       style="opacity:1;fill:#000000;fill-opacity:1;fill-rule:nonzero;stroke:#000000;stroke-width:3;stroke-linecap:round;stroke-linejoin:miter;stroke-miterlimit:4;stroke-dasharray:none;stroke-dashoffset:0;stroke-opacity:1"
       id="stockholm"
       cx="1246.9265"
       cy="403.70438"
       r="20" />
    <circle
       style="display:inline;opacity:1;fill:#000000;fill-opacity:1;fill-rule:nonzero;stroke:#000000;stroke-width:3;stroke-linecap:round;stroke-linejoin:miter;stroke-miterlimit:4;stroke-dasharray:none;stroke-dashoffset:0;stroke-opacity:1"
       id="oslo"
       cx="1005.2622"
       cy="406.02066"
       r="20" />
    <circle
       style="display:inline;opacity:1;fill:#000000;fill-opacity:1;fill-rule:nonzero;stroke:#000000;stroke-width:3;stroke-linecap:round;stroke-linejoin:miter;stroke-miterlimit:4;stroke-dasharray:none;stroke-dashoffset:0;stroke-opacity:1"
       id="copenhagen"
       cx="1051.5878"
       cy="546.5412"
       r="20" />
    <circle
       style="display:inline;opacity:1;fill:#000000;fill-opacity:1;fill-rule:nonzero;stroke:#000000;stroke-width:3;stroke-linecap:round;stroke-linejoin:miter;stroke-miterlimit:4;stroke-dasharray:none;stroke-dashoffset:0;stroke-opacity:1"
       id="hamburg"
       cx="960.02521"
       cy="604.76428"
       r="20" />
    <circle
       style="display:inline;opacity:1;fill:#000000;fill-opacity:1;fill-rule:nonzero;stroke:#000000;stroke-width:3;stroke-linecap:round;stroke-linejoin:miter;stroke-miterlimit:4;stroke-dasharray:none;stroke-dashoffset:0;stroke-opacity:1"
       id="berlin"
       cx="1080.9272"
       cy="625.29449"
       r="20" />
    <circle
       style="display:inline;opacity:1;fill:#000000;fill-opacity:1;fill-rule:nonzero;stroke:#000000;stroke-width:3;stroke-linecap:round;stroke-linejoin:miter;stroke-miterlimit:4;stroke-dasharray:none;stroke-dashoffset:0;stroke-opacity:1"
       id="nuremburg"
       cx="1013.2845"
       cy="708.61273"
       r="20" />
    <circle
       style="display:inline;opacity:1;fill:#000000;fill-opacity:1;fill-rule:nonzero;stroke:#000000;stroke-width:3;stroke-linecap:round;stroke-linejoin:miter;stroke-miterlimit:4;stroke-dasharray:none;stroke-dashoffset:0;stroke-opacity:1"
       id="munich"
       cx="1048.2253"
       cy="750.10504"
       r="20" />
    <circle
       style="display:inline;opacity:1;fill:#000000;fill-opacity:1;fill-rule:nonzero;stroke:#000000;stroke-width:3;stroke-linecap:round;stroke-linejoin:miter;stroke-miterlimit:4;stroke-dasharray:none;stroke-dashoffset:0;stroke-opacity:1"
       id="zurich"
       cx="910.64575"
       cy="776.31067"
       r="20" />
    <circle
       style="display:inline;opacity:1;fill:#000000;fill-opacity:1;fill-rule:nonzero;stroke:#000000;stroke-width:3;stroke-linecap:round;stroke-linejoin:miter;stroke-miterlimit:4;stroke-dasharray:none;stroke-dashoffset:0;stroke-opacity:1"
       id="frankfurt"
       cx="923.74847"
       cy="700.42896"
       r="20" />
    <circle
       style="display:inline;opacity:1;fill:#000000;fill-opacity:1;fill-rule:nonzero;stroke:#000000;stroke-width:3;stroke-linecap:round;stroke-linejoin:miter;stroke-miterlimit:4;stroke-dasharray:none;stroke-dashoffset:0;stroke-opacity:1"
       id="luxembourg"
       cx="810.46191"
       cy="709.69373"
       r="20" />
    <circle
       style="display:inline;opacity:1;fill:#000000;fill-opacity:1;fill-rule:nonzero;stroke:#000000;stroke-width:3;stroke-linecap:round;stroke-linejoin:miter;stroke-miterlimit:4;stroke-dasharray:none;stroke-dashoffset:0;stroke-opacity:1"
       id="eindhoven"
       cx="789.44464"
       cy="661.66095"
       r="20" />
    <circle
       style="display:inline;opacity:1;fill:#000000;fill-opacity:1;fill-rule:nonzero;stroke:#000000;stroke-width:3;stroke-linecap:round;stroke-linejoin:miter;stroke-miterlimit:4;stroke-dasharray:none;stroke-dashoffset:0;stroke-opacity:1"
       id="amsterdam"
       cx="766.51471"
       cy="629.99585"
       r="20" />
    <circle
       style="display:inline;opacity:1;fill:#000000;fill-opacity:1;fill-rule:nonzero;stroke:#000000;stroke-width:3;stroke-linecap:round;stroke-linejoin:miter;stroke-miterlimit:4;stroke-dasharray:none;stroke-dashoffset:0;stroke-opacity:1"
       id="thehague"
       cx="749.04431"
       cy="637.63916"
       r="20" />
    <circle
       style="display:inline;opacity:1;fill:#000000;fill-opacity:1;fill-rule:nonzero;stroke:#000000;stroke-width:3;stroke-linecap:round;stroke-linejoin:miter;stroke-miterlimit:4;stroke-dasharray:none;stroke-dashoffset:0;stroke-opacity:1"
       id="rotterdam"
       cx="741.401"
       cy="648.55817"
       r="20" />
    <circle
       style="display:inline;opacity:1;fill:#000000;fill-opacity:1;fill-rule:nonzero;stroke:#000000;stroke-width:3;stroke-linecap:round;stroke-linejoin:miter;stroke-miterlimit:4;stroke-dasharray:none;stroke-dashoffset:0;stroke-opacity:1"
       id="antwerp"
       cx="749.04431"
       cy="663.84485"
       r="20" />
    <circle
       style="display:inline;opacity:1;fill:#000000;fill-opacity:1;fill-rule:nonzero;stroke:#000000;stroke-width:3;stroke-linecap:round;stroke-linejoin:miter;stroke-miterlimit:4;stroke-dasharray:none;stroke-dashoffset:0;stroke-opacity:1"
       id="brussels"
       cx="742.49286"
       cy="678.03955"
       r="20" />
    <circle
       style="display:inline;opacity:1;fill:#000000;fill-opacity:1;fill-rule:nonzero;stroke:#000000;stroke-width:3;stroke-linecap:round;stroke-linejoin:miter;stroke-miterlimit:4;stroke-dasharray:none;stroke-dashoffset:0;stroke-opacity:1"
       id="paris"
       cx="666.05981"
       cy="743.55359"
       r="20" />
    <circle
       style="display:inline;opacity:1;fill:#000000;fill-opacity:1;fill-rule:nonzero;stroke:#000000;stroke-width:3;stroke-linecap:round;stroke-linejoin:miter;stroke-miterlimit:4;stroke-dasharray:none;stroke-dashoffset:0;stroke-opacity:1"
       id="london"
       cx="585.25909"
       cy="651.83392"
       r="20" />
    <circle
       style="display:inline;opacity:1;fill:#000000;fill-opacity:1;fill-rule:nonzero;stroke:#000000;stroke-width:3;stroke-linecap:round;stroke-linejoin:miter;stroke-miterlimit:4;stroke-dasharray:none;stroke-dashoffset:0;stroke-opacity:1"
       id="dublin"
       cx="336.3056"
       cy="571.0332"
       r="20" />
    <circle
       style="display:inline;opacity:1;fill:#000000;fill-opacity:1;fill-rule:nonzero;stroke:#000000;stroke-width:3;stroke-linecap:round;stroke-linejoin:miter;stroke-miterlimit:4;stroke-dasharray:none;stroke-dashoffset:0;stroke-opacity:1"
       id="porto"
       cx="87.352104"
       cy="924.8092"
       r="20" />
    <circle
       style="display:inline;opacity:1;fill:#000000;fill-opacity:1;fill-rule:nonzero;stroke:#000000;stroke-width:3;stroke-linecap:round;stroke-linejoin:miter;stroke-miterlimit:4;stroke-dasharray:none;stroke-dashoffset:0;stroke-opacity:1"
       id="lisbon"
       cx="36.032745"
       cy="987.04755"
       r="20" />
    <circle
       style="display:inline;opacity:1;fill:#000000;fill-opacity:1;fill-rule:nonzero;stroke:#000000;stroke-width:3;stroke-linecap:round;stroke-linejoin:miter;stroke-miterlimit:4;stroke-dasharray:none;stroke-dashoffset:0;stroke-opacity:1"
       id="madrid"
       cx="327.57037"
       cy="971.76093"
       r="20" />
    <circle
       style="display:inline;opacity:1;fill:#000000;fill-opacity:1;fill-rule:nonzero;stroke:#000000;stroke-width:3;stroke-linecap:round;stroke-linejoin:miter;stroke-miterlimit:4;stroke-dasharray:none;stroke-dashoffset:0;stroke-opacity:1"
       id="barcelona"
       cx="600.54572"
       cy="939.00397"
       r="20" />
    <circle
       style="display:inline;opacity:1;fill:#000000;fill-opacity:1;fill-rule:nonzero;stroke:#000000;stroke-width:3;stroke-linecap:round;stroke-linejoin:miter;stroke-miterlimit:4;stroke-dasharray:none;stroke-dashoffset:0;stroke-opacity:1"
       id="rome"
       cx="1059.1443"
       cy="914.98212"
       r="20" />
    <circle
       style="display:inline;opacity:1;fill:#000000;fill-opacity:1;fill-rule:nonzero;stroke:#000000;stroke-width:3;stroke-linecap:round;stroke-linejoin:miter;stroke-miterlimit:4;stroke-dasharray:none;stroke-dashoffset:0;stroke-opacity:1"
       id="valletta"
       cx="1240.3999"
       cy="1101.6973"
       r="20" />
    <circle
       style="display:inline;opacity:1;fill:#000000;fill-opacity:1;fill-rule:nonzero;stroke:#000000;stroke-width:3;stroke-linecap:round;stroke-linejoin:miter;stroke-miterlimit:4;stroke-dasharray:none;stroke-dashoffset:0;stroke-opacity:1"
       id="nicosia"
       cx="2168.5161"
       cy="1085.3187"
       r="20" />
    <circle
       style="display:inline;opacity:1;fill:#000000;fill-opacity:1;fill-rule:nonzero;stroke:#000000;stroke-width:3;stroke-linecap:round;stroke-linejoin:miter;stroke-miterlimit:4;stroke-dasharray:none;stroke-dashoffset:0;stroke-opacity:1"
       id="athens"
       cx="1682.6199"
       cy="1012.1613"
       r="20" />
    <circle
       style="display:inline;opacity:1;fill:#000000;fill-opacity:1;fill-rule:nonzero;stroke:#000000;stroke-width:3;stroke-linecap:round;stroke-linejoin:miter;stroke-miterlimit:4;stroke-dasharray:none;stroke-dashoffset:0;stroke-opacity:1"
       id="sofia"
       cx="1596.5792"
       cy="882.59979"
       r="20" />
    <circle
       style="display:inline;opacity:1;fill:#000000;fill-opacity:1;fill-rule:nonzero;stroke:#000000;stroke-width:3;stroke-linecap:round;stroke-linejoin:miter;stroke-miterlimit:4;stroke-dasharray:none;stroke-dashoffset:0;stroke-opacity:1"
       id="bucharest"
       cx="1733.9393"
       cy="809.06769"
       r="20" />
    <circle
       style="display:inline;opacity:1;fill:#000000;fill-opacity:1;fill-rule:nonzero;stroke:#000000;stroke-width:3;stroke-linecap:round;stroke-linejoin:miter;stroke-miterlimit:4;stroke-dasharray:none;stroke-dashoffset:0;stroke-opacity:1"
       id="budapest"
       cx="1375.7957"
       cy="755.56451"
       r="20" />
    <circle
       style="display:inline;opacity:1;fill:#000000;fill-opacity:1;fill-rule:nonzero;stroke:#000000;stroke-width:3;stroke-linecap:round;stroke-linejoin:miter;stroke-miterlimit:4;stroke-dasharray:none;stroke-dashoffset:0;stroke-opacity:1"
       id="bratislava"
       cx="1284.076"
       cy="741.36975"
       r="20" />
    <circle
       style="display:inline;opacity:1;fill:#000000;fill-opacity:1;fill-rule:nonzero;stroke:#000000;stroke-width:3;stroke-linecap:round;stroke-linejoin:miter;stroke-miterlimit:4;stroke-dasharray:none;stroke-dashoffset:0;stroke-opacity:1"
       id="zagreb"
       cx="1262.2379"
       cy="816.711"
       r="20" />
    <circle
       style="display:inline;opacity:1;fill:#000000;fill-opacity:1;fill-rule:nonzero;stroke:#000000;stroke-width:3;stroke-linecap:round;stroke-linejoin:miter;stroke-miterlimit:4;stroke-dasharray:none;stroke-dashoffset:0;stroke-opacity:1"
       id="ljubljana"
       cx="1191.2643"
       cy="812.34338"
       r="20" />
    <circle
       style="display:inline;opacity:1;fill:#000000;fill-opacity:1;fill-rule:nonzero;stroke:#000000;stroke-width:3;stroke-linecap:round;stroke-linejoin:miter;stroke-miterlimit:4;stroke-dasharray:none;stroke-dashoffset:0;stroke-opacity:1"
       id="vienna"
       cx="1239.2759"
       cy="747.9212"
       r="20" />
    <circle
       style="display:inline;opacity:1;fill:#000000;fill-opacity:1;fill-rule:nonzero;stroke:#000000;stroke-width:3;stroke-linecap:round;stroke-linejoin:miter;stroke-miterlimit:4;stroke-dasharray:none;stroke-dashoffset:0;stroke-opacity:1"
       id="warsaw"
       cx="1376.8876"
       cy="610.34161"
       r="20" />
    <circle
       style="display:inline;opacity:1;fill:#000000;fill-opacity:1;fill-rule:nonzero;stroke:#000000;stroke-width:3;stroke-linecap:round;stroke-linejoin:miter;stroke-miterlimit:4;stroke-dasharray:none;stroke-dashoffset:0;stroke-opacity:1"
       id="riga"
       cx="1438.0339"
       cy="483.68106"
       r="20" />
    <circle
       style="display:inline;opacity:1;fill:#000000;fill-opacity:1;fill-rule:nonzero;stroke:#000000;stroke-width:3;stroke-linecap:round;stroke-linejoin:miter;stroke-miterlimit:4;stroke-dasharray:none;stroke-dashoffset:0;stroke-opacity:1"
       id="helsinki"
       cx="1426.0231"
       cy="373.39908"
       r="20"
       inkscape:transform-center-x="-9.8271114"
       inkscape:transform-center-y="25.113729" />
    <circle
       style="display:inline;opacity:1;fill:#000000;fill-opacity:1;fill-rule:nonzero;stroke:#000000;stroke-width:3;stroke-linecap:round;stroke-linejoin:miter;stroke-miterlimit:4;stroke-dasharray:none;stroke-dashoffset:0;stroke-opacity:1"
       id="tallinn"
       cx="1422.7474"
       cy="415.98322"
       r="20"
       inkscape:transform-center-x="-67.697879"
       inkscape:transform-center-y="-27.297532" />
    <circle
       style="display:inline;opacity:1;fill:#000000;fill-opacity:1;fill-rule:nonzero;stroke:#000000;stroke-width:3;stroke-linecap:round;stroke-linejoin:miter;stroke-miterlimit:4;stroke-dasharray:none;stroke-dashoffset:0;stroke-opacity:1"
       id="vilnius"
       cx="1512.2833"
       cy="536.09235"
       r="20"
       inkscape:transform-center-x="52.411261"
       inkscape:transform-center-y="-34.940841" />
    <circle
       style="display:inline;opacity:1;fill:#000000;fill-opacity:1;fill-rule:nonzero;stroke:#000000;stroke-width:3;stroke-linecap:round;stroke-linejoin:miter;stroke-miterlimit:4;stroke-dasharray:none;stroke-dashoffset:0;stroke-opacity:1"
       id="lyon"
       cx="744.6767"
       cy="822.17047"
       r="20" />
    <circle
       style="display:inline;opacity:1;fill:#000000;fill-opacity:1;fill-rule:nonzero;stroke:#000000;stroke-width:3;stroke-linecap:round;stroke-linejoin:miter;stroke-miterlimit:4;stroke-dasharray:none;stroke-dashoffset:0;stroke-opacity:1"
       id="marseille"
       cx="767.60663"
       cy="888.77649"
       r="20" />
    <circle
       style="display:inline;opacity:1;fill:#000000;fill-opacity:1;fill-rule:nonzero;stroke:#000000;stroke-width:3;stroke-linecap:round;stroke-linejoin:miter;stroke-miterlimit:4;stroke-dasharray:none;stroke-dashoffset:0;stroke-opacity:1"
       id="bordeaux"
       cx="508.82599"
       cy="840.73279"
       r="20" />
    <circle
       style="display:inline;opacity:1;fill:#000000;fill-opacity:1;fill-rule:nonzero;stroke:#000000;stroke-width:3;stroke-linecap:round;stroke-linejoin:miter;stroke-miterlimit:4;stroke-dasharray:none;stroke-dashoffset:0;stroke-opacity:1"
       id="turin"
       cx="852.7749"
       cy="847.28424"
       r="20" />
    <circle
       style="display:inline;opacity:1;fill:#000000;fill-opacity:1;fill-rule:nonzero;stroke:#000000;stroke-width:3;stroke-linecap:round;stroke-linejoin:miter;stroke-miterlimit:4;stroke-dasharray:none;stroke-dashoffset:0;stroke-opacity:1"
       id="milan"
       cx="930.29993"
       cy="836.36523"
       r="20" />
    <circle
       style="display:inline;opacity:1;fill:#000000;fill-opacity:1;fill-rule:nonzero;stroke:#000000;stroke-width:3;stroke-linecap:round;stroke-linejoin:miter;stroke-miterlimit:4;stroke-dasharray:none;stroke-dashoffset:0;stroke-opacity:1"
       id="prague"
       cx="1151.9559"
       cy="702.06134"
       r="20" />
  </g>
</svg>
